<svg width="369" height="144" viewBox="0 0 369 144" fill="none" xmlns="http://www.w3.org/2000/svg">
<path d="M1.38 15V0.699999H3.18V15H1.38ZM7.27078 4.66V6.02H7.31078C8.05078 5.04 9.09078 4.42 10.5908 4.42C12.7508 4.42 14.0708 5.6 14.0708 7.74V15H12.4508V7.88C12.4508 6.54 11.5708 5.78 10.1108 5.78C8.47078 5.78 7.27078 6.94 7.27078 8.64V15H5.65078V4.66H7.27078ZM15.3619 5.98V4.66H16.8619V1.4H18.4819V4.66H20.4819V5.98H18.4819V12.7C18.4819 13.42 18.8619 13.66 19.5219 13.66C19.8419 13.66 20.2019 13.58 20.3819 13.52H20.4419V14.92C20.0619 15 19.6219 15.06 19.1419 15.06C17.8219 15.06 16.8619 14.52 16.8619 13.06V5.98H15.3619ZM23.7747 4.66V6.38H23.8147C24.4347 5.38 25.5147 4.54 26.8947 4.54C27.1947 4.54 27.3547 4.58 27.5547 4.66V6.22H27.4947C27.2547 6.14 27.0947 6.12 26.7747 6.12C25.1747 6.12 23.7747 7.32 23.7747 9.26V15H22.1547V4.66H23.7747ZM33.0395 15.28C29.9595 15.28 28.0395 12.84 28.0395 9.84C28.0395 6.84 29.9595 4.4 33.0395 4.4C36.1395 4.4 38.0195 6.84 38.0195 9.84C38.0195 12.84 36.1395 15.28 33.0395 15.28ZM33.0395 13.92C35.2395 13.92 36.3595 12.12 36.3595 9.84C36.3595 7.56 35.2395 5.74 33.0395 5.74C30.8395 5.74 29.6995 7.56 29.6995 9.84C29.6995 12.12 30.8395 13.92 33.0395 13.92ZM43.6352 15.3C40.8152 15.3 39.0552 13.18 39.0552 9.86C39.0552 6.42 41.0352 4.42 43.5952 4.42C45.0552 4.42 46.1752 5.14 46.8352 6.12H46.8752V0.699999H48.4952V15H46.8752V13.74H46.8352C46.0552 14.74 45.0952 15.3 43.6352 15.3ZM43.6952 13.94C45.9952 13.94 46.9752 12.22 46.9752 9.88C46.9752 7.48 45.8152 5.8 43.6752 5.8C41.7152 5.8 40.7152 7.56 40.7152 9.88C40.7152 12.22 41.7152 13.94 43.6952 13.94ZM58.8898 15H57.2698V13.58H57.2298C56.4898 14.58 55.6098 15.24 54.1098 15.24C51.9898 15.24 50.6298 13.96 50.6298 11.82V4.66H52.2498V11.78C52.2498 13.12 53.1098 13.9 54.5698 13.9C56.2098 13.9 57.2698 12.66 57.2698 11.02V4.66H58.8898V15ZM65.5005 15.28C62.4205 15.28 60.5005 12.84 60.5005 9.84C60.5005 6.84 62.4205 4.4 65.5005 4.4C67.9405 4.4 69.5605 5.8 69.9205 8H68.2805C68.0405 6.6 67.0605 5.74 65.5005 5.74C63.3005 5.74 62.1605 7.56 62.1605 9.84C62.1605 12.12 63.3005 13.92 65.5005 13.92C67.1805 13.92 68.1805 12.96 68.3205 11.36H69.9205C69.7005 13.84 68.0805 15.28 65.5005 15.28ZM71.4516 15V4.66H73.0716V15H71.4516ZM71.4516 2.7V0.699999H73.0716V2.7H71.4516ZM76.8997 4.66V6.02H76.9397C77.6797 5.04 78.7197 4.42 80.2197 4.42C82.3797 4.42 83.6997 5.6 83.6997 7.74V15H82.0797V7.88C82.0797 6.54 81.1997 5.78 79.7397 5.78C78.0997 5.78 76.8997 6.94 76.8997 8.64V15H75.2797V4.66H76.8997ZM89.9661 18.44C87.2861 18.44 85.7661 17.36 85.5861 15.58H87.0861C87.2461 16.72 88.3261 17.16 89.9261 17.16C91.8261 17.16 92.8861 16.3 92.8861 14.5V13.04H92.8461C92.0861 14.02 91.2661 14.64 89.7861 14.64C87.1061 14.64 85.2661 12.5 85.2661 9.52C85.2661 6.3 87.2861 4.42 89.6861 4.42C91.1861 4.42 92.1461 5 92.8461 5.98H92.8861V4.66H94.5061V14.44C94.5061 17.16 92.7061 18.44 89.9661 18.44ZM89.8661 13.28C92.2461 13.28 93.0061 11.62 93.0061 9.44C93.0061 7.18 92.0461 5.78 89.8461 5.78C87.9061 5.78 86.9261 7.3 86.9261 9.54C86.9261 11.8 87.9461 13.28 89.8661 13.28ZM108.009 15.1C106.949 15.1 106.389 14.62 106.229 13.56H106.209C105.589 14.36 104.529 15.2 102.769 15.2C100.809 15.2 99.2691 14.28 99.2691 12.32C99.2691 9.88 101.189 9.38 103.769 8.98C105.229 8.76 106.249 8.62 106.249 7.5C106.249 6.34 105.409 5.68 103.929 5.68C102.249 5.68 101.409 6.4 101.349 7.96H99.7891C99.8491 5.96 101.169 4.46 103.909 4.46C106.109 4.46 107.729 5.28 107.729 7.74V12.66C107.729 13.5 107.929 13.96 108.829 13.76H108.889V14.94C108.689 15.02 108.429 15.1 108.009 15.1ZM103.129 13.96C105.289 13.96 106.269 12.38 106.269 11.18V9.42C105.729 9.76 104.789 10.02 103.909 10.18C102.289 10.48 100.989 10.76 100.989 12.28C100.989 13.66 102.069 13.96 103.129 13.96ZM114.888 4.66V6.38H114.928C115.548 5.38 116.628 4.54 118.008 4.54C118.308 4.54 118.468 4.58 118.668 4.66V6.22H118.608C118.368 6.14 118.208 6.12 117.888 6.12C116.288 6.12 114.888 7.32 114.888 9.26V15H113.268V4.66H114.888ZM124.153 15.28C120.993 15.28 119.153 12.84 119.153 9.84C119.153 6.84 121.113 4.4 124.053 4.4C127.153 4.4 128.813 6.8 128.813 10.22H120.813C120.933 12.32 122.073 13.92 124.153 13.92C125.653 13.92 126.653 13.2 127.013 11.8H128.593C128.113 14.02 126.493 15.28 124.153 15.28ZM124.053 5.68C122.133 5.68 121.093 7.12 120.853 9H127.073C126.973 6.94 125.913 5.68 124.053 5.68ZM130.397 15V4.66H132.017V6.14H132.057C132.697 5.14 133.797 4.42 135.097 4.42C136.357 4.42 137.357 5.06 137.797 6.26H137.837C138.497 5.08 139.737 4.42 140.997 4.42C142.837 4.42 144.137 5.6 144.137 7.74V15H142.517V7.82C142.517 6.54 141.657 5.78 140.617 5.78C139.277 5.78 138.077 6.94 138.077 8.56V15H136.457V7.82C136.457 6.54 135.737 5.78 134.677 5.78C133.417 5.78 132.017 6.94 132.017 8.56V15H130.397ZM154.396 15.1C153.336 15.1 152.776 14.62 152.616 13.56H152.596C151.976 14.36 150.916 15.2 149.156 15.2C147.196 15.2 145.656 14.28 145.656 12.32C145.656 9.88 147.576 9.38 150.156 8.98C151.616 8.76 152.636 8.62 152.636 7.5C152.636 6.34 151.796 5.68 150.316 5.68C148.636 5.68 147.796 6.4 147.736 7.96H146.176C146.236 5.96 147.556 4.46 150.296 4.46C152.496 4.46 154.116 5.28 154.116 7.74V12.66C154.116 13.5 154.316 13.96 155.216 13.76H155.276V14.94C155.076 15.02 154.816 15.1 154.396 15.1ZM149.516 13.96C151.676 13.96 152.656 12.38 152.656 11.18V9.42C152.116 9.76 151.176 10.02 150.296 10.18C148.676 10.48 147.376 10.76 147.376 12.28C147.376 13.66 148.456 13.96 149.516 13.96ZM158.091 4.66V6.38H158.131C158.751 5.38 159.831 4.54 161.211 4.54C161.511 4.54 161.671 4.58 161.871 4.66V6.22H161.811C161.571 6.14 161.411 6.12 161.091 6.12C159.491 6.12 158.091 7.32 158.091 9.26V15H156.471V4.66H158.091ZM170.127 15L166.467 9.42L164.947 10.86V15H163.327V0.699999H164.947V9.08L169.487 4.66H171.547L167.587 8.38L172.027 15H170.127ZM181.036 15.1C179.976 15.1 179.416 14.62 179.256 13.56H179.236C178.616 14.36 177.556 15.2 175.796 15.2C173.836 15.2 172.296 14.28 172.296 12.32C172.296 9.88 174.216 9.38 176.796 8.98C178.256 8.76 179.276 8.62 179.276 7.5C179.276 6.34 178.436 5.68 176.956 5.68C175.276 5.68 174.436 6.4 174.376 7.96H172.816C172.876 5.96 174.196 4.46 176.936 4.46C179.136 4.46 180.756 5.28 180.756 7.74V12.66C180.756 13.5 180.956 13.96 181.856 13.76H181.916V14.94C181.716 15.02 181.456 15.1 181.036 15.1ZM176.156 13.96C178.316 13.96 179.296 12.38 179.296 11.18V9.42C178.756 9.76 177.816 10.02 176.936 10.18C175.316 10.48 174.016 10.76 174.016 12.28C174.016 13.66 175.096 13.96 176.156 13.96ZM188.032 15.3C186.632 15.3 185.612 14.8 184.772 13.64H184.732V15H183.112V0.699999H184.732V6.14H184.772C185.552 5.08 186.592 4.42 188.092 4.42C190.712 4.42 192.492 6.42 192.492 9.86C192.492 13.18 190.832 15.3 188.032 15.3ZM187.912 13.94C189.892 13.94 190.832 12.22 190.832 9.88C190.832 7.56 189.892 5.8 187.932 5.8C185.672 5.8 184.632 7.64 184.632 9.88C184.632 12.2 185.712 13.94 187.912 13.94ZM194.168 15V0.699999H195.788V15H194.168ZM202.473 15.28C199.313 15.28 197.473 12.84 197.473 9.84C197.473 6.84 199.433 4.4 202.373 4.4C205.473 4.4 207.133 6.8 207.133 10.22H199.133C199.253 12.32 200.393 13.92 202.473 13.92C203.973 13.92 204.973 13.2 205.333 11.8H206.913C206.433 14.02 204.813 15.28 202.473 15.28ZM202.373 5.68C200.453 5.68 199.413 7.12 199.173 9H205.393C205.293 6.94 204.233 5.68 202.373 5.68ZM215.821 15.3C212.981 15.3 211.401 13.96 211.241 11.64H212.901C213.121 13.44 214.321 13.94 215.861 13.94C217.561 13.94 218.261 13.2 218.261 12.24C218.261 11.08 217.461 10.78 215.561 10.38C213.521 9.96 211.701 9.54 211.701 7.28C211.701 5.56 213.021 4.44 215.421 4.44C217.981 4.44 219.241 5.66 219.481 7.68H217.821C217.661 6.32 216.921 5.72 215.381 5.72C213.901 5.72 213.301 6.38 213.301 7.2C213.301 8.32 214.301 8.54 216.081 8.9C218.161 9.32 219.901 9.78 219.901 12.16C219.901 14.24 218.201 15.3 215.821 15.3ZM226.067 15.28C222.907 15.28 221.067 12.84 221.067 9.84C221.067 6.84 223.027 4.4 225.967 4.4C229.067 4.4 230.727 6.8 230.727 10.22H222.727C222.847 12.32 223.987 13.92 226.067 13.92C227.567 13.92 228.567 13.2 228.927 11.8H230.507C230.027 14.02 228.407 15.28 226.067 15.28ZM225.967 5.68C224.047 5.68 223.007 7.12 222.767 9H228.987C228.887 6.94 227.827 5.68 225.967 5.68ZM231.456 5.98V4.66H232.956V1.4H234.576V4.66H236.576V5.98H234.576V12.7C234.576 13.42 234.956 13.66 235.616 13.66C235.936 13.66 236.296 13.58 236.476 13.52H236.536V14.92C236.156 15 235.716 15.06 235.236 15.06C233.916 15.06 232.956 14.52 232.956 13.06V5.98H231.456ZM245.852 15.28C242.772 15.28 240.852 12.84 240.852 9.84C240.852 6.84 242.772 4.4 245.852 4.4C248.952 4.4 250.832 6.84 250.832 9.84C250.832 12.84 248.952 15.28 245.852 15.28ZM245.852 13.92C248.052 13.92 249.172 12.12 249.172 9.84C249.172 7.56 248.052 5.74 245.852 5.74C243.652 5.74 242.512 7.56 242.512 9.84C242.512 12.12 243.652 13.92 245.852 13.92ZM251.592 5.98V4.66H253.012V3C253.012 1.22 254.032 0.58 255.752 0.58C256.092 0.58 256.352 0.599999 256.572 0.619999V2C256.292 1.98 256.212 1.98 256.052 1.98C255.012 1.98 254.632 2.24 254.632 3.08V4.66H256.552V5.98H254.632V15H253.012V5.98H251.592ZM262.935 4.66V6.02H262.975C263.715 5.04 264.755 4.42 266.255 4.42C268.415 4.42 269.735 5.6 269.735 7.74V15H268.115V7.88C268.115 6.54 267.235 5.78 265.775 5.78C264.135 5.78 262.935 6.94 262.935 8.64V15H261.315V4.66H262.935ZM276.301 15.28C273.141 15.28 271.301 12.84 271.301 9.84C271.301 6.84 273.261 4.4 276.201 4.4C279.301 4.4 280.961 6.8 280.961 10.22H272.961C273.081 12.32 274.221 13.92 276.301 13.92C277.801 13.92 278.801 13.2 279.161 11.8H280.741C280.261 14.02 278.641 15.28 276.301 15.28ZM276.201 5.68C274.281 5.68 273.241 7.12 273.001 9H279.221C279.121 6.94 278.061 5.68 276.201 5.68ZM284.61 15L281.33 4.66H283.07L284.89 11.04C285.13 11.9 285.45 13.26 285.45 13.26H285.49C285.49 13.26 285.79 11.9 286.01 11.08L287.75 4.66H289.45L291.13 11.08C291.35 11.92 291.63 13.26 291.63 13.26H291.67C291.67 13.26 291.99 11.9 292.25 11.04L294.17 4.66H295.85L292.47 15H290.81L289.09 8.74C288.85 7.88 288.59 6.58 288.59 6.58H288.55C288.55 6.58 288.27 7.88 288.03 8.74L286.29 15H284.61ZM299.561 5.98V4.66H300.981V3C300.981 1.22 302.001 0.58 303.721 0.58C304.061 0.58 304.321 0.599999 304.541 0.619999V2C304.261 1.98 304.181 1.98 304.021 1.98C302.981 1.98 302.601 2.24 302.601 3.08V4.66H304.521V5.98H302.601V15H300.981V5.98H299.561ZM310.227 15.28C307.067 15.28 305.227 12.84 305.227 9.84C305.227 6.84 307.187 4.4 310.127 4.4C313.227 4.4 314.887 6.8 314.887 10.22H306.887C307.007 12.32 308.147 13.92 310.227 13.92C311.727 13.92 312.727 13.2 313.087 11.8H314.667C314.187 14.02 312.567 15.28 310.227 15.28ZM310.127 5.68C308.207 5.68 307.167 7.12 306.927 9H313.147C313.047 6.94 311.987 5.68 310.127 5.68ZM324.591 15.1C323.531 15.1 322.971 14.62 322.811 13.56H322.791C322.171 14.36 321.111 15.2 319.351 15.2C317.391 15.2 315.851 14.28 315.851 12.32C315.851 9.88 317.771 9.38 320.351 8.98C321.811 8.76 322.831 8.62 322.831 7.5C322.831 6.34 321.991 5.68 320.511 5.68C318.831 5.68 317.991 6.4 317.931 7.96H316.371C316.431 5.96 317.751 4.46 320.491 4.46C322.691 4.46 324.311 5.28 324.311 7.74V12.66C324.311 13.5 324.511 13.96 325.411 13.76H325.471V14.94C325.271 15.02 325.011 15.1 324.591 15.1ZM319.711 13.96C321.871 13.96 322.851 12.38 322.851 11.18V9.42C322.311 9.76 321.371 10.02 320.491 10.18C318.871 10.48 317.571 10.76 317.571 12.28C317.571 13.66 318.651 13.96 319.711 13.96ZM325.811 5.98V4.66H327.311V1.4H328.931V4.66H330.931V5.98H328.931V12.7C328.931 13.42 329.311 13.66 329.971 13.66C330.291 13.66 330.651 13.58 330.831 13.52H330.891V14.92C330.511 15 330.071 15.06 329.591 15.06C328.271 15.06 327.311 14.52 327.311 13.06V5.98H325.811ZM340.804 15H339.184V13.58H339.144C338.404 14.58 337.524 15.24 336.024 15.24C333.904 15.24 332.544 13.96 332.544 11.82V4.66H334.164V11.78C334.164 13.12 335.024 13.9 336.484 13.9C338.124 13.9 339.184 12.66 339.184 11.02V4.66H340.804V15ZM344.615 4.66V6.38H344.655C345.275 5.38 346.355 4.54 347.735 4.54C348.035 4.54 348.195 4.58 348.395 4.66V6.22H348.335C348.095 6.14 347.935 6.12 347.615 6.12C346.015 6.12 344.615 7.32 344.615 9.26V15H342.995V4.66H344.615ZM353.879 15.28C350.719 15.28 348.879 12.84 348.879 9.84C348.879 6.84 350.839 4.4 353.779 4.4C356.879 4.4 358.539 6.8 358.539 10.22H350.539C350.659 12.32 351.799 13.92 353.879 13.92C355.379 13.92 356.379 13.2 356.739 11.8H358.319C357.839 14.02 356.219 15.28 353.879 15.28ZM353.779 5.68C351.859 5.68 350.819 7.12 350.579 9H356.799C356.699 6.94 355.639 5.68 353.779 5.68ZM364.043 15.3C361.203 15.3 359.623 13.96 359.463 11.64H361.123C361.343 13.44 362.543 13.94 364.083 13.94C365.783 13.94 366.483 13.2 366.483 12.24C366.483 11.08 365.683 10.78 363.783 10.38C361.743 9.96 359.923 9.54 359.923 7.28C359.923 5.56 361.243 4.44 363.643 4.44C366.203 4.44 367.463 5.66 367.703 7.68H366.043C365.883 6.32 365.143 5.72 363.603 5.72C362.123 5.72 361.523 6.38 361.523 7.2C361.523 8.32 362.523 8.54 364.303 8.9C366.383 9.32 368.123 9.78 368.123 12.16C368.123 14.24 366.423 15.3 364.043 15.3ZM0.44 30.98V29.66H1.94V26.4H3.56V29.66H5.56V30.98H3.56V37.7C3.56 38.42 3.94 38.66 4.6 38.66C4.92 38.66 5.28 38.58 5.46 38.52H5.52V39.92C5.14 40 4.7 40.06 4.22 40.06C2.9 40.06 1.94 39.52 1.94 38.06V30.98H0.44ZM8.85281 25.7V31.02H8.89281C9.63281 30.04 10.6728 29.42 12.1728 29.42C14.3328 29.42 15.6528 30.6 15.6528 32.74V40H14.0328V32.88C14.0328 31.54 13.1528 30.78 11.6928 30.78C10.0528 30.78 8.85281 31.94 8.85281 33.64V40H7.23281V25.7H8.85281ZM25.9192 40.1C24.8592 40.1 24.2992 39.62 24.1392 38.56H24.1192C23.4992 39.36 22.4392 40.2 20.6792 40.2C18.7192 40.2 17.1792 39.28 17.1792 37.32C17.1792 34.88 19.0992 34.38 21.6792 33.98C23.1392 33.76 24.1592 33.62 24.1592 32.5C24.1592 31.34 23.3192 30.68 21.8392 30.68C20.1592 30.68 19.3192 31.4 19.2592 32.96H17.6992C17.7592 30.96 19.0792 29.46 21.8192 29.46C24.0192 29.46 25.6392 30.28 25.6392 32.74V37.66C25.6392 38.5 25.8392 38.96 26.7392 38.76H26.7992V39.94C26.5992 40.02 26.3392 40.1 25.9192 40.1ZM21.0392 38.96C23.1992 38.96 24.1792 37.38 24.1792 36.18V34.42C23.6392 34.76 22.6992 35.02 21.8192 35.18C20.1992 35.48 18.8992 35.76 18.8992 37.28C18.8992 38.66 19.9792 38.96 21.0392 38.96ZM27.1392 30.98V29.66H28.6392V26.4H30.2592V29.66H32.2592V30.98H30.2592V37.7C30.2592 38.42 30.6392 38.66 31.2992 38.66C31.6192 38.66 31.9792 38.58 32.1592 38.52H32.2192V39.92C31.8392 40 31.3992 40.06 30.9192 40.06C29.5992 40.06 28.6392 39.52 28.6392 38.06V30.98H27.1392ZM41.0356 40.3C38.1956 40.3 36.6156 38.96 36.4556 36.64H38.1156C38.3356 38.44 39.5356 38.94 41.0756 38.94C42.7756 38.94 43.4756 38.2 43.4756 37.24C43.4756 36.08 42.6756 35.78 40.7756 35.38C38.7356 34.96 36.9156 34.54 36.9156 32.28C36.9156 30.56 38.2356 29.44 40.6356 29.44C43.1956 29.44 44.4556 30.66 44.6956 32.68H43.0356C42.8756 31.32 42.1356 30.72 40.5956 30.72C39.1156 30.72 38.5156 31.38 38.5156 32.2C38.5156 33.32 39.5156 33.54 41.2956 33.9C43.3756 34.32 45.1156 34.78 45.1156 37.16C45.1156 39.24 43.4156 40.3 41.0356 40.3ZM46.6664 40V29.66H48.2864V40H46.6664ZM46.6664 27.7V25.7H48.2864V27.7H46.6664ZM50.4945 40V29.66H52.1145V31.14H52.1545C52.7945 30.14 53.8945 29.42 55.1945 29.42C56.4545 29.42 57.4545 30.06 57.8945 31.26H57.9345C58.5945 30.08 59.8345 29.42 61.0945 29.42C62.9345 29.42 64.2345 30.6 64.2345 32.74V40H62.6145V32.82C62.6145 31.54 61.7545 30.78 60.7145 30.78C59.3745 30.78 58.1745 31.94 58.1745 33.56V40H56.5545V32.82C56.5545 31.54 55.8345 30.78 54.7745 30.78C53.5145 30.78 52.1145 31.94 52.1145 33.56V40H50.4945ZM66.3734 43.32V29.66H67.9934V31.12H68.0334C68.8134 30.06 69.8534 29.42 71.3534 29.42C73.9734 29.42 75.7934 31.42 75.7934 34.86C75.7934 38.18 74.0934 40.3 71.2934 40.3C69.8934 40.3 68.8934 39.88 68.0334 38.78H67.9934V43.32H66.3734ZM71.1734 38.94C73.1534 38.94 74.1334 37.22 74.1334 34.88C74.1334 32.56 73.1534 30.8 71.1934 30.8C68.9334 30.8 67.8934 32.64 67.8934 34.88C67.8934 37.12 68.7934 38.94 71.1734 38.94ZM77.4686 40V25.7H79.0886V40H77.4686ZM81.3539 40V29.66H82.9739V40H81.3539ZM81.3539 27.7V25.7H82.9739V27.7H81.3539ZM84.522 30.98V29.66H85.942V28C85.942 26.22 86.962 25.58 88.682 25.58C89.022 25.58 89.282 25.6 89.502 25.62V27C89.222 26.98 89.142 26.98 88.982 26.98C87.942 26.98 87.562 27.24 87.562 28.08V29.66H89.482V30.98H87.562V40H85.942V30.98H84.522ZM92.5763 43.42C91.9563 43.42 91.5563 43.38 91.1163 43.2V41.76H91.1963C91.4163 41.88 91.7563 41.98 92.2963 41.98C92.9763 41.98 93.4363 41.72 93.8363 40.72L94.2363 39.7L90.1963 29.66H91.9563L94.3963 36.1C94.7163 36.96 95.0963 38.12 95.0963 38.12H95.1363C95.1363 38.12 95.4963 36.96 95.8163 36.1L98.1763 29.66H99.8963L95.4763 40.84C94.6363 42.98 93.8363 43.42 92.5763 43.42ZM112.345 40.1C111.285 40.1 110.725 39.62 110.565 38.56H110.545C109.925 39.36 108.865 40.2 107.105 40.2C105.145 40.2 103.605 39.28 103.605 37.32C103.605 34.88 105.525 34.38 108.105 33.98C109.565 33.76 110.585 33.62 110.585 32.5C110.585 31.34 109.745 30.68 108.265 30.68C106.585 30.68 105.745 31.4 105.685 32.96H104.125C104.185 30.96 105.505 29.46 108.245 29.46C110.445 29.46 112.065 30.28 112.065 32.74V37.66C112.065 38.5 112.265 38.96 113.165 38.76H113.225V39.94C113.025 40.02 112.765 40.1 112.345 40.1ZM107.465 38.96C109.625 38.96 110.605 37.38 110.605 36.18V34.42C110.065 34.76 109.125 35.02 108.245 35.18C106.625 35.48 105.325 35.76 105.325 37.28C105.325 38.66 106.405 38.96 107.465 38.96ZM116.04 29.66V31.02H116.08C116.82 30.04 117.86 29.42 119.36 29.42C121.52 29.42 122.84 30.6 122.84 32.74V40H121.22V32.88C121.22 31.54 120.34 30.78 118.88 30.78C117.24 30.78 116.04 31.94 116.04 33.64V40H114.42V29.66H116.04ZM128.987 40.3C126.167 40.3 124.407 38.18 124.407 34.86C124.407 31.42 126.387 29.42 128.947 29.42C130.407 29.42 131.527 30.14 132.187 31.12H132.227V25.7H133.847V40H132.227V38.74H132.187C131.407 39.74 130.447 40.3 128.987 40.3ZM129.047 38.94C131.347 38.94 132.327 37.22 132.327 34.88C132.327 32.48 131.167 30.8 129.027 30.8C127.067 30.8 126.067 32.56 126.067 34.88C126.067 37.22 127.067 38.94 129.047 38.94ZM147.345 40.1C146.285 40.1 145.725 39.62 145.565 38.56H145.545C144.925 39.36 143.865 40.2 142.105 40.2C140.145 40.2 138.605 39.28 138.605 37.32C138.605 34.88 140.525 34.38 143.105 33.98C144.565 33.76 145.585 33.62 145.585 32.5C145.585 31.34 144.745 30.68 143.265 30.68C141.585 30.68 140.745 31.4 140.685 32.96H139.125C139.185 30.96 140.505 29.46 143.245 29.46C145.445 29.46 147.065 30.28 147.065 32.74V37.66C147.065 38.5 147.265 38.96 148.165 38.76H148.225V39.94C148.025 40.02 147.765 40.1 147.345 40.1ZM142.465 38.96C144.625 38.96 145.605 37.38 145.605 36.18V34.42C145.065 34.76 144.125 35.02 143.245 35.18C141.625 35.48 140.325 35.76 140.325 37.28C140.325 38.66 141.405 38.96 142.465 38.96ZM153.84 40.28C150.76 40.28 148.84 37.84 148.84 34.84C148.84 31.84 150.76 29.4 153.84 29.4C156.28 29.4 157.9 30.8 158.26 33H156.62C156.38 31.6 155.4 30.74 153.84 30.74C151.64 30.74 150.5 32.56 150.5 34.84C150.5 37.12 151.64 38.92 153.84 38.92C155.52 38.92 156.52 37.96 156.66 36.36H158.26C158.04 38.84 156.42 40.28 153.84 40.28ZM164.211 40.28C161.131 40.28 159.211 37.84 159.211 34.84C159.211 31.84 161.131 29.4 164.211 29.4C166.651 29.4 168.271 30.8 168.631 33H166.991C166.751 31.6 165.771 30.74 164.211 30.74C162.011 30.74 160.871 32.56 160.871 34.84C160.871 37.12 162.011 38.92 164.211 38.92C165.891 38.92 166.891 37.96 167.031 36.36H168.631C168.411 38.84 166.791 40.28 164.211 40.28ZM174.583 40.28C171.423 40.28 169.583 37.84 169.583 34.84C169.583 31.84 171.543 29.4 174.483 29.4C177.583 29.4 179.243 31.8 179.243 35.22H171.243C171.363 37.32 172.503 38.92 174.583 38.92C176.083 38.92 177.083 38.2 177.443 36.8H179.023C178.543 39.02 176.923 40.28 174.583 40.28ZM174.483 30.68C172.563 30.68 171.523 32.12 171.283 34H177.503C177.403 31.94 176.343 30.68 174.483 30.68ZM180.887 40V25.7H182.507V40H180.887ZM189.192 40.28C186.032 40.28 184.192 37.84 184.192 34.84C184.192 31.84 186.152 29.4 189.092 29.4C192.192 29.4 193.852 31.8 193.852 35.22H185.852C185.972 37.32 187.112 38.92 189.192 38.92C190.692 38.92 191.692 38.2 192.052 36.8H193.632C193.152 39.02 191.532 40.28 189.192 40.28ZM189.092 30.68C187.172 30.68 186.132 32.12 185.892 34H192.112C192.012 31.94 190.952 30.68 189.092 30.68ZM197.056 29.66V31.38H197.096C197.716 30.38 198.796 29.54 200.176 29.54C200.476 29.54 200.636 29.58 200.836 29.66V31.22H200.776C200.536 31.14 200.376 31.12 200.056 31.12C198.456 31.12 197.056 32.32 197.056 34.26V40H195.436V29.66H197.056ZM210.021 40.1C208.961 40.1 208.401 39.62 208.241 38.56H208.221C207.601 39.36 206.541 40.2 204.781 40.2C202.821 40.2 201.281 39.28 201.281 37.32C201.281 34.88 203.201 34.38 205.781 33.98C207.241 33.76 208.261 33.62 208.261 32.5C208.261 31.34 207.421 30.68 205.941 30.68C204.261 30.68 203.421 31.4 203.361 32.96H201.801C201.861 30.96 203.181 29.46 205.921 29.46C208.121 29.46 209.741 30.28 209.741 32.74V37.66C209.741 38.5 209.941 38.96 210.841 38.76H210.901V39.94C210.701 40.02 210.441 40.1 210.021 40.1ZM205.141 38.96C207.301 38.96 208.281 37.38 208.281 36.18V34.42C207.741 34.76 206.801 35.02 205.921 35.18C204.301 35.48 203.001 35.76 203.001 37.28C203.001 38.66 204.081 38.96 205.141 38.96ZM211.241 30.98V29.66H212.741V26.4H214.361V29.66H216.361V30.98H214.361V37.7C214.361 38.42 214.741 38.66 215.401 38.66C215.721 38.66 216.081 38.58 216.261 38.52H216.321V39.92C215.941 40 215.501 40.06 215.021 40.06C213.701 40.06 212.741 39.52 212.741 38.06V30.98H211.241ZM222.356 40.28C219.196 40.28 217.356 37.84 217.356 34.84C217.356 31.84 219.316 29.4 222.256 29.4C225.356 29.4 227.016 31.8 227.016 35.22H219.016C219.136 37.32 220.276 38.92 222.356 38.92C223.856 38.92 224.856 38.2 225.216 36.8H226.796C226.316 39.02 224.696 40.28 222.356 40.28ZM222.256 30.68C220.336 30.68 219.296 32.12 219.056 34H225.276C225.176 31.94 224.116 30.68 222.256 30.68ZM236.204 40.28C233.044 40.28 231.204 37.84 231.204 34.84C231.204 31.84 233.164 29.4 236.104 29.4C239.204 29.4 240.864 31.8 240.864 35.22H232.864C232.984 37.32 234.124 38.92 236.204 38.92C237.704 38.92 238.704 38.2 239.064 36.8H240.644C240.164 39.02 238.544 40.28 236.204 40.28ZM236.104 30.68C234.184 30.68 233.144 32.12 232.904 34H239.124C239.024 31.94 237.964 30.68 236.104 30.68ZM244.812 40L241.192 29.66H242.932L245.072 36.22C245.372 37.14 245.752 38.4 245.752 38.4H245.792C245.792 38.4 246.172 37.12 246.472 36.22L248.652 29.66H250.332L246.612 40H244.812ZM255.696 40.28C252.536 40.28 250.696 37.84 250.696 34.84C250.696 31.84 252.656 29.4 255.596 29.4C258.696 29.4 260.356 31.8 260.356 35.22H252.356C252.476 37.32 253.616 38.92 255.696 38.92C257.196 38.92 258.196 38.2 258.556 36.8H260.136C259.656 39.02 258.036 40.28 255.696 40.28ZM255.596 30.68C253.676 30.68 252.636 32.12 252.396 34H258.616C258.516 31.94 257.456 30.68 255.596 30.68ZM263.56 29.66V31.38H263.6C264.22 30.38 265.3 29.54 266.68 29.54C266.98 29.54 267.14 29.58 267.34 29.66V31.22H267.28C267.04 31.14 266.88 31.12 266.56 31.12C264.96 31.12 263.56 32.32 263.56 34.26V40H261.94V29.66H263.56ZM270.115 43.42C269.495 43.42 269.095 43.38 268.655 43.2V41.76H268.735C268.955 41.88 269.295 41.98 269.835 41.98C270.515 41.98 270.975 41.72 271.375 40.72L271.775 39.7L267.735 29.66H269.495L271.935 36.1C272.255 36.96 272.635 38.12 272.635 38.12H272.675C272.675 38.12 273.035 36.96 273.355 36.1L275.715 29.66H277.435L273.015 40.84C272.175 42.98 271.375 43.42 270.115 43.42ZM282.385 40.3C279.565 40.3 277.805 38.18 277.805 34.86C277.805 31.42 279.785 29.42 282.345 29.42C283.805 29.42 284.925 30.14 285.585 31.12H285.625V25.7H287.245V40H285.625V38.74H285.585C284.805 39.74 283.845 40.3 282.385 40.3ZM282.445 38.94C284.745 38.94 285.725 37.22 285.725 34.88C285.725 32.48 284.565 30.8 282.425 30.8C280.465 30.8 279.465 32.56 279.465 34.88C279.465 37.22 280.465 38.94 282.445 38.94ZM297.56 40.1C296.5 40.1 295.94 39.62 295.78 38.56H295.76C295.14 39.36 294.08 40.2 292.32 40.2C290.36 40.2 288.82 39.28 288.82 37.32C288.82 34.88 290.74 34.38 293.32 33.98C294.78 33.76 295.8 33.62 295.8 32.5C295.8 31.34 294.96 30.68 293.48 30.68C291.8 30.68 290.96 31.4 290.9 32.96H289.34C289.4 30.96 290.72 29.46 293.46 29.46C295.66 29.46 297.28 30.28 297.28 32.74V37.66C297.28 38.5 297.48 38.96 298.38 38.76H298.44V39.94C298.24 40.02 297.98 40.1 297.56 40.1ZM292.68 38.96C294.84 38.96 295.82 37.38 295.82 36.18V34.42C295.28 34.76 294.34 35.02 293.46 35.18C291.84 35.48 290.54 35.76 290.54 37.28C290.54 38.66 291.62 38.96 292.68 38.96ZM300.76 43.42C300.14 43.42 299.74 43.38 299.3 43.2V41.76H299.38C299.6 41.88 299.94 41.98 300.48 41.98C301.16 41.98 301.62 41.72 302.02 40.72L302.42 39.7L298.38 29.66H300.14L302.58 36.1C302.9 36.96 303.28 38.12 303.28 38.12H303.32C303.32 38.12 303.68 36.96 304 36.1L306.36 29.66H308.08L303.66 40.84C302.82 42.98 302.02 43.42 300.76 43.42ZM311.749 30.98V29.66H313.249V26.4H314.869V29.66H316.869V30.98H314.869V37.7C314.869 38.42 315.249 38.66 315.909 38.66C316.229 38.66 316.589 38.58 316.769 38.52H316.829V39.92C316.449 40 316.009 40.06 315.529 40.06C314.209 40.06 313.249 39.52 313.249 38.06V30.98H311.749ZM326.661 40.1C325.601 40.1 325.041 39.62 324.881 38.56H324.861C324.241 39.36 323.181 40.2 321.421 40.2C319.461 40.2 317.921 39.28 317.921 37.32C317.921 34.88 319.841 34.38 322.421 33.98C323.881 33.76 324.901 33.62 324.901 32.5C324.901 31.34 324.061 30.68 322.581 30.68C320.901 30.68 320.061 31.4 320.001 32.96H318.441C318.501 30.96 319.821 29.46 322.561 29.46C324.761 29.46 326.381 30.28 326.381 32.74V37.66C326.381 38.5 326.581 38.96 327.481 38.76H327.541V39.94C327.341 40.02 327.081 40.1 326.661 40.1ZM321.781 38.96C323.941 38.96 324.921 37.38 324.921 36.18V34.42C324.381 34.76 323.441 35.02 322.561 35.18C320.941 35.48 319.641 35.76 319.641 37.28C319.641 38.66 320.721 38.96 321.781 38.96ZM332.657 40.3C329.817 40.3 328.237 38.96 328.077 36.64H329.737C329.957 38.44 331.157 38.94 332.697 38.94C334.397 38.94 335.097 38.2 335.097 37.24C335.097 36.08 334.297 35.78 332.397 35.38C330.357 34.96 328.537 34.54 328.537 32.28C328.537 30.56 329.857 29.44 332.257 29.44C334.817 29.44 336.077 30.66 336.317 32.68H334.657C334.497 31.32 333.757 30.72 332.217 30.72C330.737 30.72 330.137 31.38 330.137 32.2C330.137 33.32 331.137 33.54 332.917 33.9C334.997 34.32 336.737 34.78 336.737 37.16C336.737 39.24 335.037 40.3 332.657 40.3ZM345.088 40L341.428 34.42L339.908 35.86V40H338.288V25.7H339.908V34.08L344.448 29.66H346.508L342.548 33.38L346.988 40H345.088ZM351.7 40.3C348.86 40.3 347.28 38.96 347.12 36.64H348.78C349 38.44 350.2 38.94 351.74 38.94C353.44 38.94 354.14 38.2 354.14 37.24C354.14 36.08 353.34 35.78 351.44 35.38C349.4 34.96 347.58 34.54 347.58 32.28C347.58 30.56 348.9 29.44 351.3 29.44C353.86 29.44 355.12 30.66 355.36 32.68H353.7C353.54 31.32 352.8 30.72 351.26 30.72C349.78 30.72 349.18 31.38 349.18 32.2C349.18 33.32 350.18 33.54 351.96 33.9C354.04 34.32 355.78 34.78 355.78 37.16C355.78 39.24 354.08 40.3 351.7 40.3ZM1.1 68.32V54.66H2.72V56.12H2.76C3.54 55.06 4.58 54.42 6.08 54.42C8.7 54.42 10.52 56.42 10.52 59.86C10.52 63.18 8.82 65.3 6.02 65.3C4.62 65.3 3.62 64.88 2.76 63.78H2.72V68.32H1.1ZM5.9 63.94C7.88 63.94 8.86 62.22 8.86 59.88C8.86 57.56 7.88 55.8 5.92 55.8C3.66 55.8 2.62 57.64 2.62 59.88C2.62 62.12 3.52 63.94 5.9 63.94ZM16.5552 65.28C13.3952 65.28 11.5552 62.84 11.5552 59.84C11.5552 56.84 13.5152 54.4 16.4552 54.4C19.5552 54.4 21.2152 56.8 21.2152 60.22H13.2152C13.3352 62.32 14.4752 63.92 16.5552 63.92C18.0552 63.92 19.0552 63.2 19.4152 61.8H20.9952C20.5152 64.02 18.8952 65.28 16.5552 65.28ZM16.4552 55.68C14.5352 55.68 13.4952 57.12 13.2552 59H19.4752C19.3752 56.94 18.3152 55.68 16.4552 55.68ZM24.4192 54.66V56.38H24.4592C25.0792 55.38 26.1592 54.54 27.5392 54.54C27.8392 54.54 27.9992 54.58 28.1992 54.66V56.22H28.1392C27.8992 56.14 27.7392 56.12 27.4192 56.12C25.8192 56.12 24.4192 57.32 24.4192 59.26V65H22.7992V54.66H24.4192ZM28.9947 55.98V54.66H30.4147V53C30.4147 51.22 31.4347 50.58 33.1547 50.58C33.4947 50.58 33.7547 50.6 33.9747 50.62V52C33.6947 51.98 33.6147 51.98 33.4547 51.98C32.4147 51.98 32.0347 52.24 32.0347 53.08V54.66H33.9547V55.98H32.0347V65H30.4147V55.98H28.9947ZM39.6606 65.28C36.5806 65.28 34.6606 62.84 34.6606 59.84C34.6606 56.84 36.5806 54.4 39.6606 54.4C42.7606 54.4 44.6406 56.84 44.6406 59.84C44.6406 62.84 42.7606 65.28 39.6606 65.28ZM39.6606 63.92C41.8606 63.92 42.9806 62.12 42.9806 59.84C42.9806 57.56 41.8606 55.74 39.6606 55.74C37.4606 55.74 36.3206 57.56 36.3206 59.84C36.3206 62.12 37.4606 63.92 39.6606 63.92ZM47.8763 54.66V56.38H47.9163C48.5363 55.38 49.6163 54.54 50.9963 54.54C51.2963 54.54 51.4563 54.58 51.6563 54.66V56.22H51.5963C51.3563 56.14 51.1963 56.12 50.8763 56.12C49.2763 56.12 47.8763 57.32 47.8763 59.26V65H46.2563V54.66H47.8763ZM53.1117 65V54.66H54.7317V56.14H54.7717C55.4117 55.14 56.5117 54.42 57.8117 54.42C59.0717 54.42 60.0717 55.06 60.5117 56.26H60.5517C61.2117 55.08 62.4517 54.42 63.7117 54.42C65.5517 54.42 66.8517 55.6 66.8517 57.74V65H65.2317V57.82C65.2317 56.54 64.3717 55.78 63.3317 55.78C61.9917 55.78 60.7917 56.94 60.7917 58.56V65H59.1717V57.82C59.1717 56.54 58.4517 55.78 57.3917 55.78C56.1317 55.78 54.7317 56.94 54.7317 58.56V65H53.1117ZM73.4106 65.28C70.2506 65.28 68.4106 62.84 68.4106 59.84C68.4106 56.84 70.3706 54.4 73.3106 54.4C76.4106 54.4 78.0706 56.8 78.0706 60.22H70.0706C70.1906 62.32 71.3306 63.92 73.4106 63.92C74.9106 63.92 75.9106 63.2 76.2706 61.8H77.8506C77.3706 64.02 75.7506 65.28 73.4106 65.28ZM73.3106 55.68C71.3906 55.68 70.3506 57.12 70.1106 59H76.3306C76.2306 56.94 75.1706 55.68 73.3106 55.68ZM83.6547 65.3C80.8347 65.3 79.0747 63.18 79.0747 59.86C79.0747 56.42 81.0547 54.42 83.6147 54.42C85.0747 54.42 86.1947 55.14 86.8547 56.12H86.8947V50.7H88.5147V65H86.8947V63.74H86.8547C86.0747 64.74 85.1147 65.3 83.6547 65.3ZM83.7147 63.94C86.0147 63.94 86.9947 62.22 86.9947 59.88C86.9947 57.48 85.8347 55.8 83.6947 55.8C81.7347 55.8 80.7347 57.56 80.7347 59.88C80.7347 62.22 81.7347 63.94 83.7147 63.94ZM93.893 65V54.66H95.513V65H93.893ZM93.893 52.7V50.7H95.513V52.7H93.893ZM99.3411 54.66V56.02H99.3811C100.121 55.04 101.161 54.42 102.661 54.42C104.821 54.42 106.141 55.6 106.141 57.74V65H104.521V57.88C104.521 56.54 103.641 55.78 102.181 55.78C100.541 55.78 99.3411 56.94 99.3411 58.64V65H97.7211V54.66H99.3411ZM110.811 55.98V54.66H112.311V51.4H113.931V54.66H115.931V55.98H113.931V62.7C113.931 63.42 114.311 63.66 114.971 63.66C115.291 63.66 115.651 63.58 115.831 63.52H115.891V64.92C115.511 65 115.071 65.06 114.591 65.06C113.271 65.06 112.311 64.52 112.311 63.06V55.98H110.811ZM119.224 50.7V56.02H119.264C120.004 55.04 121.044 54.42 122.544 54.42C124.704 54.42 126.024 55.6 126.024 57.74V65H124.404V57.88C124.404 56.54 123.524 55.78 122.064 55.78C120.424 55.78 119.224 56.94 119.224 58.64V65H117.604V50.7H119.224ZM132.59 65.28C129.43 65.28 127.59 62.84 127.59 59.84C127.59 56.84 129.55 54.4 132.49 54.4C135.59 54.4 137.25 56.8 137.25 60.22H129.25C129.37 62.32 130.51 63.92 132.59 63.92C134.09 63.92 135.09 63.2 135.45 61.8H137.03C136.55 64.02 134.93 65.28 132.59 65.28ZM132.49 55.68C130.57 55.68 129.53 57.12 129.29 59H135.51C135.41 56.94 134.35 55.68 132.49 55.68ZM142.258 65V50.7H148.218C149.718 50.7 150.878 51.2 151.618 52.08C152.218 52.78 152.578 53.72 152.578 54.8C152.578 57.42 151.078 59 147.958 59H144.058V65H142.258ZM144.058 52.26V57.54H147.818C149.838 57.54 150.798 56.52 150.798 54.88C150.798 53.16 149.738 52.26 147.918 52.26H144.058ZM158.196 65.28C155.116 65.28 153.196 62.84 153.196 59.84C153.196 56.84 155.116 54.4 158.196 54.4C161.296 54.4 163.176 56.84 163.176 59.84C163.176 62.84 161.296 65.28 158.196 65.28ZM158.196 63.92C160.396 63.92 161.516 62.12 161.516 59.84C161.516 57.56 160.396 55.74 158.196 55.74C155.996 55.74 154.856 57.56 154.856 59.84C154.856 62.12 155.996 63.92 158.196 63.92ZM166.411 54.66V56.38H166.451C167.071 55.38 168.151 54.54 169.531 54.54C169.831 54.54 169.991 54.58 170.191 54.66V56.22H170.131C169.891 56.14 169.731 56.12 169.411 56.12C167.811 56.12 166.411 57.32 166.411 59.26V65H164.791V54.66H166.411ZM170.987 55.98V54.66H172.487V51.4H174.107V54.66H176.107V55.98H174.107V62.7C174.107 63.42 174.487 63.66 175.147 63.66C175.467 63.66 175.827 63.58 176.007 63.52H176.067V64.92C175.687 65 175.247 65.06 174.767 65.06C173.447 65.06 172.487 64.52 172.487 63.06V55.98H170.987ZM185.9 65.1C184.84 65.1 184.28 64.62 184.12 63.56H184.1C183.48 64.36 182.42 65.2 180.66 65.2C178.7 65.2 177.16 64.28 177.16 62.32C177.16 59.88 179.08 59.38 181.66 58.98C183.12 58.76 184.14 58.62 184.14 57.5C184.14 56.34 183.3 55.68 181.82 55.68C180.14 55.68 179.3 56.4 179.24 57.96H177.68C177.74 55.96 179.06 54.46 181.8 54.46C184 54.46 185.62 55.28 185.62 57.74V62.66C185.62 63.5 185.82 63.96 186.72 63.76H186.78V64.94C186.58 65.02 186.32 65.1 185.9 65.1ZM181.02 63.96C183.18 63.96 184.16 62.38 184.16 61.18V59.42C183.62 59.76 182.68 60.02 181.8 60.18C180.18 60.48 178.88 60.76 178.88 62.28C178.88 63.66 179.96 63.96 181.02 63.96ZM188.035 65V50.7H189.655V65H188.035ZM191.7 65V63.02H193.64V65H191.7ZM199.035 65V50.7H204.995C206.495 50.7 207.655 51.2 208.395 52.08C208.995 52.78 209.355 53.72 209.355 54.8C209.355 57.42 207.855 59 204.735 59H200.835V65H199.035ZM200.835 52.26V57.54H204.595C206.615 57.54 207.575 56.52 207.575 54.88C207.575 53.16 206.515 52.26 204.695 52.26H200.835ZM212.466 54.66V56.38H212.506C213.126 55.38 214.206 54.54 215.586 54.54C215.886 54.54 216.046 54.58 216.246 54.66V56.22H216.186C215.946 56.14 215.786 56.12 215.466 56.12C213.866 56.12 212.466 57.32 212.466 59.26V65H210.846V54.66H212.466ZM221.731 65.28C218.651 65.28 216.731 62.84 216.731 59.84C216.731 56.84 218.651 54.4 221.731 54.4C224.831 54.4 226.711 56.84 226.711 59.84C226.711 62.84 224.831 65.28 221.731 65.28ZM221.731 63.92C223.931 63.92 225.051 62.12 225.051 59.84C225.051 57.56 223.931 55.74 221.731 55.74C219.531 55.74 218.391 57.56 218.391 59.84C218.391 62.12 219.531 63.92 221.731 63.92ZM230.691 65L227.071 54.66H228.811L230.951 61.22C231.251 62.14 231.631 63.4 231.631 63.4H231.671C231.671 63.4 232.051 62.12 232.351 61.22L234.531 54.66H236.211L232.491 65H230.691ZM237.35 65V54.66H238.97V65H237.35ZM237.35 52.7V50.7H238.97V52.7H237.35ZM245.178 65.3C242.358 65.3 240.598 63.18 240.598 59.86C240.598 56.42 242.578 54.42 245.138 54.42C246.598 54.42 247.718 55.14 248.378 56.12H248.418V50.7H250.038V65H248.418V63.74H248.378C247.598 64.74 246.638 65.3 245.178 65.3ZM245.238 63.94C247.538 63.94 248.518 62.22 248.518 59.88C248.518 57.48 247.358 55.8 245.218 55.8C243.258 55.8 242.258 57.56 242.258 59.88C242.258 62.22 243.258 63.94 245.238 63.94ZM256.653 65.28C253.493 65.28 251.653 62.84 251.653 59.84C251.653 56.84 253.613 54.4 256.553 54.4C259.653 54.4 261.313 56.8 261.313 60.22H253.313C253.433 62.32 254.573 63.92 256.653 63.92C258.153 63.92 259.153 63.2 259.513 61.8H261.093C260.613 64.02 258.993 65.28 256.653 65.28ZM256.553 55.68C254.633 55.68 253.593 57.12 253.353 59H259.573C259.473 56.94 258.413 55.68 256.553 55.68ZM264.517 54.66V56.38H264.557C265.177 55.38 266.257 54.54 267.637 54.54C267.937 54.54 268.097 54.58 268.297 54.66V56.22H268.237C267.997 56.14 267.837 56.12 267.517 56.12C265.917 56.12 264.517 57.32 264.517 59.26V65H262.897V54.66H264.517ZM273.672 65.3C270.832 65.3 269.252 63.96 269.092 61.64H270.752C270.972 63.44 272.172 63.94 273.712 63.94C275.412 63.94 276.112 63.2 276.112 62.24C276.112 61.08 275.312 60.78 273.412 60.38C271.372 59.96 269.552 59.54 269.552 57.28C269.552 55.56 270.872 54.44 273.272 54.44C275.832 54.44 277.092 55.66 277.332 57.68H275.672C275.512 56.32 274.772 55.72 273.232 55.72C271.752 55.72 271.152 56.38 271.152 57.2C271.152 58.32 272.152 58.54 273.932 58.9C276.012 59.32 277.752 59.78 277.752 62.16C277.752 64.24 276.052 65.3 273.672 65.3ZM284.107 50.7V56.02H284.147C284.887 55.04 285.927 54.42 287.427 54.42C289.587 54.42 290.907 55.6 290.907 57.74V65H289.287V57.88C289.287 56.54 288.407 55.78 286.947 55.78C285.307 55.78 284.107 56.94 284.107 58.64V65H282.487V50.7H284.107ZM301.173 65.1C300.113 65.1 299.553 64.62 299.393 63.56H299.373C298.753 64.36 297.693 65.2 295.933 65.2C293.973 65.2 292.433 64.28 292.433 62.32C292.433 59.88 294.353 59.38 296.933 58.98C298.393 58.76 299.413 58.62 299.413 57.5C299.413 56.34 298.573 55.68 297.093 55.68C295.413 55.68 294.573 56.4 294.513 57.96H292.953C293.013 55.96 294.333 54.46 297.073 54.46C299.273 54.46 300.893 55.28 300.893 57.74V62.66C300.893 63.5 301.093 63.96 301.993 63.76H302.053V64.94C301.853 65.02 301.593 65.1 301.173 65.1ZM296.293 63.96C298.453 63.96 299.433 62.38 299.433 61.18V59.42C298.893 59.76 297.953 60.02 297.073 60.18C295.453 60.48 294.153 60.76 294.153 62.28C294.153 63.66 295.233 63.96 296.293 63.96ZM305.613 65L301.993 54.66H303.733L305.873 61.22C306.173 62.14 306.553 63.4 306.553 63.4H306.593C306.593 63.4 306.973 62.12 307.273 61.22L309.453 54.66H311.133L307.413 65H305.613ZM316.497 65.28C313.337 65.28 311.497 62.84 311.497 59.84C311.497 56.84 313.457 54.4 316.397 54.4C319.497 54.4 321.157 56.8 321.157 60.22H313.157C313.277 62.32 314.417 63.92 316.497 63.92C317.997 63.92 318.997 63.2 319.357 61.8H320.937C320.457 64.02 318.837 65.28 316.497 65.28ZM316.397 55.68C314.477 55.68 313.437 57.12 313.197 59H319.417C319.317 56.94 318.257 55.68 316.397 55.68ZM330.344 65.28C327.184 65.28 325.344 62.84 325.344 59.84C325.344 56.84 327.304 54.4 330.244 54.4C333.344 54.4 335.004 56.8 335.004 60.22H327.004C327.124 62.32 328.264 63.92 330.344 63.92C331.844 63.92 332.844 63.2 333.204 61.8H334.784C334.304 64.02 332.684 65.28 330.344 65.28ZM330.244 55.68C328.324 55.68 327.284 57.12 327.044 59H333.264C333.164 56.94 332.104 55.68 330.244 55.68ZM338.953 65L335.333 54.66H337.073L339.213 61.22C339.513 62.14 339.893 63.4 339.893 63.4H339.933C339.933 63.4 340.313 62.12 340.613 61.22L342.793 54.66H344.473L340.753 65H338.953ZM349.836 65.28C346.676 65.28 344.836 62.84 344.836 59.84C344.836 56.84 346.796 54.4 349.736 54.4C352.836 54.4 354.496 56.8 354.496 60.22H346.496C346.616 62.32 347.756 63.92 349.836 63.92C351.336 63.92 352.336 63.2 352.696 61.8H354.276C353.796 64.02 352.176 65.28 349.836 65.28ZM349.736 55.68C347.816 55.68 346.776 57.12 346.536 59H352.756C352.656 56.94 351.596 55.68 349.736 55.68ZM357.7 54.66V56.02H357.74C358.48 55.04 359.52 54.42 361.02 54.42C363.18 54.42 364.5 55.6 364.5 57.74V65H362.88V57.88C362.88 56.54 362 55.78 360.54 55.78C358.9 55.78 357.7 56.94 357.7 58.64V65H356.08V54.66H357.7ZM5.22 93.44C2.54 93.44 1.02 92.36 0.84 90.58H2.34C2.5 91.72 3.58 92.16 5.18 92.16C7.08 92.16 8.14 91.3 8.14 89.5V88.04H8.1C7.34 89.02 6.52 89.64 5.04 89.64C2.36 89.64 0.52 87.5 0.52 84.52C0.52 81.3 2.54 79.42 4.94 79.42C6.44 79.42 7.4 80 8.1 80.98H8.14V79.66H9.76V89.44C9.76 92.16 7.96 93.44 5.22 93.44ZM5.12 88.28C7.5 88.28 8.26 86.62 8.26 84.44C8.26 82.18 7.3 80.78 5.1 80.78C3.16 80.78 2.18 82.3 2.18 84.54C2.18 86.8 3.2 88.28 5.12 88.28ZM13.5794 79.66V81.38H13.6194C14.2394 80.38 15.3194 79.54 16.6994 79.54C16.9994 79.54 17.1594 79.58 17.3594 79.66V81.22H17.2994C17.0594 81.14 16.8994 81.12 16.5794 81.12C14.9794 81.12 13.5794 82.32 13.5794 84.26V90H11.9594V79.66H13.5794ZM22.8442 90.28C19.6842 90.28 17.8442 87.84 17.8442 84.84C17.8442 81.84 19.8042 79.4 22.7442 79.4C25.8442 79.4 27.5042 81.8 27.5042 85.22H19.5042C19.6242 87.32 20.7642 88.92 22.8442 88.92C24.3442 88.92 25.3442 88.2 25.7042 86.8H27.2842C26.8042 89.02 25.1842 90.28 22.8442 90.28ZM22.7442 80.68C20.8242 80.68 19.7842 82.12 19.5442 84H25.7642C25.6642 81.94 24.6042 80.68 22.7442 80.68ZM37.2083 90.1C36.1483 90.1 35.5883 89.62 35.4283 88.56H35.4083C34.7883 89.36 33.7283 90.2 31.9683 90.2C30.0083 90.2 28.4683 89.28 28.4683 87.32C28.4683 84.88 30.3883 84.38 32.9683 83.98C34.4283 83.76 35.4483 83.62 35.4483 82.5C35.4483 81.34 34.6083 80.68 33.1283 80.68C31.4483 80.68 30.6083 81.4 30.5483 82.96H28.9883C29.0483 80.96 30.3683 79.46 33.1083 79.46C35.3083 79.46 36.9283 80.28 36.9283 82.74V87.66C36.9283 88.5 37.1283 88.96 38.0283 88.76H38.0883V89.94C37.8883 90.02 37.6283 90.1 37.2083 90.1ZM32.3283 88.96C34.4883 88.96 35.4683 87.38 35.4683 86.18V84.42C34.9283 84.76 33.9883 85.02 33.1083 85.18C31.4883 85.48 30.1883 85.76 30.1883 87.28C30.1883 88.66 31.2683 88.96 32.3283 88.96ZM38.4283 80.98V79.66H39.9283V76.4H41.5483V79.66H43.5483V80.98H41.5483V87.7C41.5483 88.42 41.9283 88.66 42.5883 88.66C42.9083 88.66 43.2683 88.58 43.4483 88.52H43.5083V89.92C43.1283 90 42.6883 90.06 42.2083 90.06C40.8883 90.06 39.9283 89.52 39.9283 88.06V80.98H38.4283ZM49.5434 90.28C46.3834 90.28 44.5434 87.84 44.5434 84.84C44.5434 81.84 46.5034 79.4 49.4434 79.4C52.5434 79.4 54.2034 81.8 54.2034 85.22H46.2034C46.3234 87.32 47.4634 88.92 49.5434 88.92C51.0434 88.92 52.0434 88.2 52.4034 86.8H53.9834C53.5034 89.02 51.8834 90.28 49.5434 90.28ZM49.4434 80.68C47.5234 80.68 46.4834 82.12 46.2434 84H52.4634C52.3634 81.94 51.3034 80.68 49.4434 80.68ZM57.4075 79.66V81.38H57.4475C58.0675 80.38 59.1475 79.54 60.5275 79.54C60.8275 79.54 60.9875 79.58 61.1875 79.66V81.22H61.1275C60.8875 81.14 60.7275 81.12 60.4075 81.12C58.8075 81.12 57.4075 82.32 57.4075 84.26V90H55.7875V79.66H57.4075ZM68.3866 90L64.7666 79.66H66.5066L68.6466 86.22C68.9466 87.14 69.3266 88.4 69.3266 88.4H69.3666C69.3666 88.4 69.7466 87.12 70.0466 86.22L72.2266 79.66H73.9066L70.1866 90H68.3866ZM75.0453 90V79.66H76.6653V90H75.0453ZM75.0453 77.7V75.7H76.6653V77.7H75.0453ZM82.7934 90.3C79.9534 90.3 78.3734 88.96 78.2134 86.64H79.8734C80.0934 88.44 81.2934 88.94 82.8334 88.94C84.5334 88.94 85.2334 88.2 85.2334 87.24C85.2334 86.08 84.4334 85.78 82.5334 85.38C80.4934 84.96 78.6734 84.54 78.6734 82.28C78.6734 80.56 79.9934 79.44 82.3934 79.44C84.9534 79.44 86.2134 80.66 86.4534 82.68H84.7934C84.6334 81.32 83.8934 80.72 82.3534 80.72C80.8734 80.72 80.2734 81.38 80.2734 82.2C80.2734 83.32 81.2734 83.54 83.0534 83.9C85.1334 84.32 86.8734 84.78 86.8734 87.16C86.8734 89.24 85.1734 90.3 82.7934 90.3ZM88.4242 90V79.66H90.0442V90H88.4242ZM88.4242 77.7V75.7H90.0442V77.7H88.4242ZM97.1723 90.3C95.7723 90.3 94.7523 89.8 93.9123 88.64H93.8723V90H92.2523V75.7H93.8723V81.14H93.9123C94.6923 80.08 95.7323 79.42 97.2323 79.42C99.8523 79.42 101.632 81.42 101.632 84.86C101.632 88.18 99.9723 90.3 97.1723 90.3ZM97.0523 88.94C99.0323 88.94 99.9723 87.22 99.9723 84.88C99.9723 82.56 99.0323 80.8 97.0723 80.8C94.8123 80.8 93.7723 82.64 93.7723 84.88C93.7723 87.2 94.8523 88.94 97.0523 88.94ZM103.248 90V79.66H104.868V90H103.248ZM103.248 77.7V75.7H104.868V77.7H103.248ZM107.137 90V75.7H108.757V90H107.137ZM111.022 90V79.66H112.642V90H111.022ZM111.022 77.7V75.7H112.642V77.7H111.022ZM114.19 80.98V79.66H115.69V76.4H117.31V79.66H119.31V80.98H117.31V87.7C117.31 88.42 117.69 88.66 118.35 88.66C118.67 88.66 119.03 88.58 119.21 88.52H119.27V89.92C118.89 90 118.45 90.06 117.97 90.06C116.65 90.06 115.69 89.52 115.69 88.06V80.98H114.19ZM122.303 93.42C121.683 93.42 121.283 93.38 120.843 93.2V91.76H120.923C121.143 91.88 121.483 91.98 122.023 91.98C122.703 91.98 123.163 91.72 123.563 90.72L123.963 89.7L119.923 79.66H121.683L124.123 86.1C124.443 86.96 124.823 88.12 124.823 88.12H124.863C124.863 88.12 125.223 86.96 125.543 86.1L127.903 79.66H129.623L125.203 90.84C124.363 92.98 123.563 93.42 122.303 93.42ZM142.072 90.1C141.012 90.1 140.452 89.62 140.292 88.56H140.272C139.652 89.36 138.592 90.2 136.832 90.2C134.872 90.2 133.332 89.28 133.332 87.32C133.332 84.88 135.252 84.38 137.832 83.98C139.292 83.76 140.312 83.62 140.312 82.5C140.312 81.34 139.472 80.68 137.992 80.68C136.312 80.68 135.472 81.4 135.412 82.96H133.852C133.912 80.96 135.232 79.46 137.972 79.46C140.172 79.46 141.792 80.28 141.792 82.74V87.66C141.792 88.5 141.992 88.96 142.892 88.76H142.952V89.94C142.752 90.02 142.492 90.1 142.072 90.1ZM137.192 88.96C139.352 88.96 140.332 87.38 140.332 86.18V84.42C139.792 84.76 138.852 85.02 137.972 85.18C136.352 85.48 135.052 85.76 135.052 87.28C135.052 88.66 136.132 88.96 137.192 88.96ZM145.767 79.66V81.02H145.807C146.547 80.04 147.587 79.42 149.087 79.42C151.247 79.42 152.567 80.6 152.567 82.74V90H150.947V82.88C150.947 81.54 150.067 80.78 148.607 80.78C146.967 80.78 145.767 81.94 145.767 83.64V90H144.147V79.66H145.767ZM158.713 90.3C155.893 90.3 154.133 88.18 154.133 84.86C154.133 81.42 156.113 79.42 158.673 79.42C160.133 79.42 161.253 80.14 161.913 81.12H161.953V75.7H163.573V90H161.953V88.74H161.913C161.133 89.74 160.173 90.3 158.713 90.3ZM158.773 88.94C161.073 88.94 162.053 87.22 162.053 84.88C162.053 82.48 160.893 80.8 158.753 80.8C156.793 80.8 155.793 82.56 155.793 84.88C155.793 87.22 156.793 88.94 158.773 88.94ZM173.372 90.28C170.292 90.28 168.372 87.84 168.372 84.84C168.372 81.84 170.292 79.4 173.372 79.4C175.812 79.4 177.432 80.8 177.792 83H176.152C175.912 81.6 174.932 80.74 173.372 80.74C171.172 80.74 170.032 82.56 170.032 84.84C170.032 87.12 171.172 88.92 173.372 88.92C175.052 88.92 176.052 87.96 176.192 86.36H177.792C177.572 88.84 175.952 90.28 173.372 90.28ZM183.743 90.28C180.663 90.28 178.743 87.84 178.743 84.84C178.743 81.84 180.663 79.4 183.743 79.4C186.843 79.4 188.723 81.84 188.723 84.84C188.723 87.84 186.843 90.28 183.743 90.28ZM183.743 88.92C185.943 88.92 187.063 87.12 187.063 84.84C187.063 82.56 185.943 80.74 183.743 80.74C181.543 80.74 180.403 82.56 180.403 84.84C180.403 87.12 181.543 88.92 183.743 88.92ZM191.958 79.66V81.02H191.998C192.738 80.04 193.778 79.42 195.278 79.42C197.438 79.42 198.758 80.6 198.758 82.74V90H197.138V82.88C197.138 81.54 196.258 80.78 194.798 80.78C193.158 80.78 191.958 81.94 191.958 83.64V90H190.338V79.66H191.958ZM200.049 80.98V79.66H201.549V76.4H203.169V79.66H205.169V80.98H203.169V87.7C203.169 88.42 203.549 88.66 204.209 88.66C204.529 88.66 204.889 88.58 205.069 88.52H205.129V89.92C204.749 90 204.309 90.06 203.829 90.06C202.509 90.06 201.549 89.52 201.549 88.06V80.98H200.049ZM208.462 79.66V81.38H208.502C209.122 80.38 210.202 79.54 211.582 79.54C211.882 79.54 212.042 79.58 212.242 79.66V81.22H212.182C211.942 81.14 211.782 81.12 211.462 81.12C209.862 81.12 208.462 82.32 208.462 84.26V90H206.842V79.66H208.462ZM217.727 90.28C214.647 90.28 212.727 87.84 212.727 84.84C212.727 81.84 214.647 79.4 217.727 79.4C220.827 79.4 222.707 81.84 222.707 84.84C222.707 87.84 220.827 90.28 217.727 90.28ZM217.727 88.92C219.927 88.92 221.047 87.12 221.047 84.84C221.047 82.56 219.927 80.74 217.727 80.74C215.527 80.74 214.387 82.56 214.387 84.84C214.387 87.12 215.527 88.92 217.727 88.92ZM224.383 90V75.7H226.003V90H224.383ZM235.872 90.28C232.792 90.28 230.872 87.84 230.872 84.84C230.872 81.84 232.792 79.4 235.872 79.4C238.972 79.4 240.852 81.84 240.852 84.84C240.852 87.84 238.972 90.28 235.872 90.28ZM235.872 88.92C238.072 88.92 239.192 87.12 239.192 84.84C239.192 82.56 238.072 80.74 235.872 80.74C233.672 80.74 232.532 82.56 232.532 84.84C232.532 87.12 233.672 88.92 235.872 88.92ZM244.832 90L241.212 79.66H242.952L245.092 86.22C245.392 87.14 245.772 88.4 245.772 88.4H245.812C245.812 88.4 246.192 87.12 246.492 86.22L248.672 79.66H250.352L246.632 90H244.832ZM255.715 90.28C252.555 90.28 250.715 87.84 250.715 84.84C250.715 81.84 252.675 79.4 255.615 79.4C258.715 79.4 260.375 81.8 260.375 85.22H252.375C252.495 87.32 253.635 88.92 255.715 88.92C257.215 88.92 258.215 88.2 258.575 86.8H260.155C259.675 89.02 258.055 90.28 255.715 90.28ZM255.615 80.68C253.695 80.68 252.655 82.12 252.415 84H258.635C258.535 81.94 257.475 80.68 255.615 80.68ZM263.579 79.66V81.38H263.619C264.239 80.38 265.319 79.54 266.699 79.54C266.999 79.54 267.159 79.58 267.359 79.66V81.22H267.299C267.059 81.14 266.899 81.12 266.579 81.12C264.979 81.12 263.579 82.32 263.579 84.26V90H261.959V79.66H263.579ZM277.738 90V75.7H279.358V90H277.738ZM271.338 80.98V79.66H272.758V78C272.758 76.22 273.778 75.58 275.498 75.58C275.838 75.58 276.098 75.6 276.318 75.62V77C276.038 76.98 275.958 76.98 275.798 76.98C274.758 76.98 274.378 77.24 274.378 78.08V79.66H276.298V80.98H274.378V90H272.758V80.98H271.338ZM286.047 90.28C282.887 90.28 281.047 87.84 281.047 84.84C281.047 81.84 283.007 79.4 285.947 79.4C289.047 79.4 290.707 81.8 290.707 85.22H282.707C282.827 87.32 283.967 88.92 286.047 88.92C287.547 88.92 288.547 88.2 288.907 86.8H290.487C290.007 89.02 288.387 90.28 286.047 90.28ZM285.947 80.68C284.027 80.68 282.987 82.12 282.747 84H288.967C288.867 81.94 287.807 80.68 285.947 80.68ZM290.804 90L294.704 84.58L291.264 79.66H293.144L295.604 83.42H295.644L298.204 79.66H299.984L296.584 84.4L300.624 90H298.724L295.664 85.56H295.624L292.624 90H290.804ZM301.842 90V79.66H303.462V90H301.842ZM301.842 77.7V75.7H303.462V77.7H301.842ZM310.59 90.3C309.19 90.3 308.17 89.8 307.33 88.64H307.29V90H305.67V75.7H307.29V81.14H307.33C308.11 80.08 309.15 79.42 310.65 79.42C313.27 79.42 315.05 81.42 315.05 84.86C315.05 88.18 313.39 90.3 310.59 90.3ZM310.47 88.94C312.45 88.94 313.39 87.22 313.39 84.88C313.39 82.56 312.45 80.8 310.49 80.8C308.23 80.8 307.19 82.64 307.19 84.88C307.19 87.2 308.27 88.94 310.47 88.94ZM316.726 90V75.7H318.346V90H316.726ZM325.032 90.28C321.872 90.28 320.032 87.84 320.032 84.84C320.032 81.84 321.992 79.4 324.932 79.4C328.032 79.4 329.692 81.8 329.692 85.22H321.692C321.812 87.32 322.952 88.92 325.032 88.92C326.532 88.92 327.532 88.2 327.892 86.8H329.472C328.992 89.02 327.372 90.28 325.032 90.28ZM324.932 80.68C323.012 80.68 321.972 82.12 321.732 84H327.952C327.852 81.94 326.792 80.68 324.932 80.68ZM0.44 105.98V104.66H1.86V103C1.86 101.22 2.88 100.58 4.6 100.58C4.94 100.58 5.2 100.6 5.42 100.62V102C5.14 101.98 5.06 101.98 4.9 101.98C3.86 101.98 3.48 102.24 3.48 103.08V104.66H5.4V105.98H3.48V115H1.86V105.98H0.44ZM6.78 115V104.66H8.4V115H6.78ZM6.78 102.7V100.7H8.4V102.7H6.78ZM12.2122 104.66V106.02H12.2522C12.9922 105.04 14.0322 104.42 15.5322 104.42C17.6922 104.42 19.0122 105.6 19.0122 107.74V115H17.3922V107.88C17.3922 106.54 16.5122 105.78 15.0522 105.78C13.4122 105.78 12.2122 106.94 12.2122 108.64V115H10.5922V104.66H12.2122ZM29.2786 115.1C28.2186 115.1 27.6586 114.62 27.4986 113.56H27.4786C26.8586 114.36 25.7986 115.2 24.0386 115.2C22.0786 115.2 20.5386 114.28 20.5386 112.32C20.5386 109.88 22.4586 109.38 25.0386 108.98C26.4986 108.76 27.5186 108.62 27.5186 107.5C27.5186 106.34 26.6786 105.68 25.1986 105.68C23.5186 105.68 22.6786 106.4 22.6186 107.96H21.0586C21.1186 105.96 22.4386 104.46 25.1786 104.46C27.3786 104.46 28.9986 105.28 28.9986 107.74V112.66C28.9986 113.5 29.1986 113.96 30.0986 113.76H30.1586V114.94C29.9586 115.02 29.6986 115.1 29.2786 115.1ZM24.3986 113.96C26.5586 113.96 27.5386 112.38 27.5386 111.18V109.42C26.9986 109.76 26.0586 110.02 25.1786 110.18C23.5586 110.48 22.2586 110.76 22.2586 112.28C22.2586 113.66 23.3386 113.96 24.3986 113.96ZM32.9739 104.66V106.02H33.0139C33.7539 105.04 34.7939 104.42 36.2939 104.42C38.4539 104.42 39.7739 105.6 39.7739 107.74V115H38.1539V107.88C38.1539 106.54 37.2739 105.78 35.8139 105.78C34.1739 105.78 32.9739 106.94 32.9739 108.64V115H31.3539V104.66H32.9739ZM46.3403 115.28C43.2603 115.28 41.3403 112.84 41.3403 109.84C41.3403 106.84 43.2603 104.4 46.3403 104.4C48.7803 104.4 50.4003 105.8 50.7603 108H49.1203C48.8803 106.6 47.9003 105.74 46.3403 105.74C44.1403 105.74 43.0003 107.56 43.0003 109.84C43.0003 112.12 44.1403 113.92 46.3403 113.92C48.0203 113.92 49.0203 112.96 49.1603 111.36H50.7603C50.5403 113.84 48.9203 115.28 46.3403 115.28ZM52.2914 115V104.66H53.9114V115H52.2914ZM52.2914 102.7V100.7H53.9114V102.7H52.2914ZM57.7395 104.66V106.02H57.7795C58.5195 105.04 59.5595 104.42 61.0595 104.42C63.2195 104.42 64.5395 105.6 64.5395 107.74V115H62.9195V107.88C62.9195 106.54 62.0395 105.78 60.5795 105.78C58.9395 105.78 57.7395 106.94 57.7395 108.64V115H56.1195V104.66H57.7395ZM70.8059 118.44C68.1259 118.44 66.6059 117.36 66.4259 115.58H67.9259C68.0859 116.72 69.1659 117.16 70.7659 117.16C72.6659 117.16 73.7259 116.3 73.7259 114.5V113.04H73.6859C72.9259 114.02 72.1059 114.64 70.6259 114.64C67.9459 114.64 66.1059 112.5 66.1059 109.52C66.1059 106.3 68.1259 104.42 70.5259 104.42C72.0259 104.42 72.9859 105 73.6859 105.98H73.7259V104.66H75.3459V114.44C75.3459 117.16 73.5459 118.44 70.8059 118.44ZM70.7059 113.28C73.0859 113.28 73.8459 111.62 73.8459 109.44C73.8459 107.18 72.8859 105.78 70.6859 105.78C68.7459 105.78 67.7659 107.3 67.7659 109.54C67.7659 111.8 68.7859 113.28 70.7059 113.28ZM85.1489 115.28C82.0689 115.28 80.1489 112.84 80.1489 109.84C80.1489 106.84 82.0689 104.4 85.1489 104.4C88.2489 104.4 90.1289 106.84 90.1289 109.84C90.1289 112.84 88.2489 115.28 85.1489 115.28ZM85.1489 113.92C87.3489 113.92 88.4689 112.12 88.4689 109.84C88.4689 107.56 87.3489 105.74 85.1489 105.74C82.9489 105.74 81.8089 107.56 81.8089 109.84C81.8089 112.12 82.9489 113.92 85.1489 113.92ZM90.8892 105.98V104.66H92.3092V103.12C92.3092 101.34 93.3292 100.7 95.0492 100.7C95.3692 100.7 95.6092 100.72 95.8292 100.74V102.12C95.5892 102.1 95.4892 102.1 95.3292 102.1C94.3092 102.1 93.9292 102.36 93.9292 103.2V104.66H97.2292V103C97.2292 101.22 98.2492 100.58 99.9692 100.58C100.309 100.58 100.569 100.6 100.789 100.62V102C100.509 101.98 100.429 101.98 100.269 101.98C99.2292 101.98 98.8492 102.24 98.8492 103.08V104.66H100.769V105.98H98.8492V115H97.2292V105.98H93.9292V115H92.3092V105.98H90.8892ZM106.477 115.28C103.317 115.28 101.477 112.84 101.477 109.84C101.477 106.84 103.437 104.4 106.377 104.4C109.477 104.4 111.137 106.8 111.137 110.22H103.137C103.257 112.32 104.397 113.92 106.477 113.92C107.977 113.92 108.977 113.2 109.337 111.8H110.917C110.437 114.02 108.817 115.28 106.477 115.28ZM106.377 105.68C104.457 105.68 103.417 107.12 103.177 109H109.397C109.297 106.94 108.237 105.68 106.377 105.68ZM114.341 104.66V106.38H114.381C115.001 105.38 116.081 104.54 117.461 104.54C117.761 104.54 117.921 104.58 118.121 104.66V106.22H118.061C117.821 106.14 117.661 106.12 117.341 106.12C115.741 106.12 114.341 107.32 114.341 109.26V115H112.721V104.66H114.341ZM123.606 115.28C120.446 115.28 118.606 112.84 118.606 109.84C118.606 106.84 120.566 104.4 123.506 104.4C126.606 104.4 128.266 106.8 128.266 110.22H120.266C120.386 112.32 121.526 113.92 123.606 113.92C125.106 113.92 126.106 113.2 126.466 111.8H128.046C127.566 114.02 125.946 115.28 123.606 115.28ZM123.506 105.68C121.586 105.68 120.546 107.12 120.306 109H126.526C126.426 106.94 125.366 105.68 123.506 105.68ZM133.85 115.3C131.03 115.3 129.27 113.18 129.27 109.86C129.27 106.42 131.25 104.42 133.81 104.42C135.27 104.42 136.39 105.14 137.05 106.12H137.09V100.7H138.71V115H137.09V113.74H137.05C136.27 114.74 135.31 115.3 133.85 115.3ZM133.91 113.94C136.21 113.94 137.19 112.22 137.19 109.88C137.19 107.48 136.03 105.8 133.89 105.8C131.93 105.8 130.93 107.56 130.93 109.88C130.93 112.22 131.93 113.94 133.91 113.94ZM143.428 105.98V104.66H144.928V101.4H146.548V104.66H148.548V105.98H146.548V112.7C146.548 113.42 146.928 113.66 147.588 113.66C147.908 113.66 148.268 113.58 148.448 113.52H148.508V114.92C148.128 115 147.688 115.06 147.208 115.06C145.888 115.06 144.928 114.52 144.928 113.06V105.98H143.428ZM151.841 100.7V106.02H151.881C152.621 105.04 153.661 104.42 155.161 104.42C157.321 104.42 158.641 105.6 158.641 107.74V115H157.021V107.88C157.021 106.54 156.141 105.78 154.681 105.78C153.041 105.78 151.841 106.94 151.841 108.64V115H150.221V100.7H151.841ZM162.408 104.66V106.38H162.448C163.068 105.38 164.148 104.54 165.528 104.54C165.828 104.54 165.988 104.58 166.188 104.66V106.22H166.128C165.888 106.14 165.728 106.12 165.408 106.12C163.808 106.12 162.408 107.32 162.408 109.26V115H160.788V104.66H162.408ZM171.672 115.28C168.592 115.28 166.672 112.84 166.672 109.84C166.672 106.84 168.592 104.4 171.672 104.4C174.772 104.4 176.652 106.84 176.652 109.84C176.652 112.84 174.772 115.28 171.672 115.28ZM171.672 113.92C173.872 113.92 174.992 112.12 174.992 109.84C174.992 107.56 173.872 105.74 171.672 105.74C169.472 105.74 168.332 107.56 168.332 109.84C168.332 112.12 169.472 113.92 171.672 113.92ZM186.468 115H184.848V113.58H184.808C184.068 114.58 183.188 115.24 181.688 115.24C179.568 115.24 178.208 113.96 178.208 111.82V104.66H179.828V111.78C179.828 113.12 180.688 113.9 182.148 113.9C183.788 113.9 184.848 112.66 184.848 111.02V104.66H186.468V115ZM192.779 118.44C190.099 118.44 188.579 117.36 188.399 115.58H189.899C190.059 116.72 191.139 117.16 192.739 117.16C194.639 117.16 195.699 116.3 195.699 114.5V113.04H195.659C194.899 114.02 194.079 114.64 192.599 114.64C189.919 114.64 188.079 112.5 188.079 109.52C188.079 106.3 190.099 104.42 192.499 104.42C193.999 104.42 194.959 105 195.659 105.98H195.699V104.66H197.319V114.44C197.319 117.16 195.519 118.44 192.779 118.44ZM192.679 113.28C195.059 113.28 195.819 111.62 195.819 109.44C195.819 107.18 194.859 105.78 192.659 105.78C190.719 105.78 189.739 107.3 189.739 109.54C189.739 111.8 190.759 113.28 192.679 113.28ZM201.138 100.7V106.02H201.178C201.918 105.04 202.958 104.42 204.458 104.42C206.618 104.42 207.938 105.6 207.938 107.74V115H206.318V107.88C206.318 106.54 205.438 105.78 203.978 105.78C202.338 105.78 201.138 106.94 201.138 108.64V115H199.518V100.7H201.138ZM212.608 105.98V104.66H214.108V101.4H215.728V104.66H217.728V105.98H215.728V112.7C215.728 113.42 216.108 113.66 216.768 113.66C217.088 113.66 217.448 113.58 217.628 113.52H217.688V114.92C217.308 115 216.868 115.06 216.388 115.06C215.068 115.06 214.108 114.52 214.108 113.06V105.98H212.608ZM221.021 100.7V106.02H221.061C221.801 105.04 222.841 104.42 224.341 104.42C226.501 104.42 227.821 105.6 227.821 107.74V115H226.201V107.88C226.201 106.54 225.321 105.78 223.861 105.78C222.221 105.78 221.021 106.94 221.021 108.64V115H219.401V100.7H221.021ZM234.387 115.28C231.227 115.28 229.387 112.84 229.387 109.84C229.387 106.84 231.347 104.4 234.287 104.4C237.387 104.4 239.047 106.8 239.047 110.22H231.047C231.167 112.32 232.307 113.92 234.387 113.92C235.887 113.92 236.887 113.2 237.247 111.8H238.827C238.347 114.02 236.727 115.28 234.387 115.28ZM234.287 105.68C232.367 105.68 231.327 107.12 231.087 109H237.307C237.207 106.94 236.147 105.68 234.287 105.68ZM243.815 115V104.66H245.435V115H243.815ZM243.815 102.7V100.7H245.435V102.7H243.815ZM254.043 115.28C249.983 115.28 247.343 112.18 247.343 107.84C247.343 103.64 249.863 100.38 254.123 100.38C257.463 100.38 259.483 102.3 259.863 104.94H258.103C257.763 103.16 256.343 101.94 254.083 101.94C250.943 101.94 249.183 104.48 249.183 107.84C249.183 111.34 251.123 113.7 254.103 113.7C256.803 113.7 258.083 111.86 258.263 109.76H260.043C260.023 111.18 259.343 112.78 258.323 113.78C257.323 114.76 255.863 115.28 254.043 115.28ZM263.443 104.66V106.38H263.483C264.103 105.38 265.183 104.54 266.563 104.54C266.863 104.54 267.023 104.58 267.223 104.66V106.22H267.163C266.923 106.14 266.763 106.12 266.443 106.12C264.843 106.12 263.443 107.32 263.443 109.26V115H261.823V104.66H263.443ZM272.708 115.28C269.548 115.28 267.708 112.84 267.708 109.84C267.708 106.84 269.668 104.4 272.608 104.4C275.708 104.4 277.368 106.8 277.368 110.22H269.368C269.488 112.32 270.628 113.92 272.708 113.92C274.208 113.92 275.208 113.2 275.568 111.8H277.148C276.668 114.02 275.048 115.28 272.708 115.28ZM272.608 105.68C270.688 105.68 269.648 107.12 269.408 109H275.628C275.528 106.94 274.468 105.68 272.608 105.68ZM282.952 115.3C280.132 115.3 278.372 113.18 278.372 109.86C278.372 106.42 280.352 104.42 282.912 104.42C284.372 104.42 285.492 105.14 286.152 106.12H286.192V100.7H287.812V115H286.192V113.74H286.152C285.372 114.74 284.412 115.3 282.952 115.3ZM283.012 113.94C285.312 113.94 286.292 112.22 286.292 109.88C286.292 107.48 285.132 105.8 282.992 105.8C281.032 105.8 280.032 107.56 280.032 109.88C280.032 112.22 281.032 113.94 283.012 113.94ZM290.006 115V104.66H291.626V115H290.006ZM290.006 102.7V100.7H291.626V102.7H290.006ZM293.174 105.98V104.66H294.674V101.4H296.294V104.66H298.294V105.98H296.294V112.7C296.294 113.42 296.674 113.66 297.334 113.66C297.654 113.66 298.014 113.58 298.194 113.52H298.254V114.92C297.874 115 297.434 115.06 296.954 115.06C295.634 115.06 294.674 114.52 294.674 113.06V105.98H293.174ZM302.847 115L299.147 100.7H301.027L303.287 110C303.527 110.96 303.827 112.42 303.827 112.42H303.867C303.867 112.42 304.207 110.9 304.467 109.96L307.047 100.7H308.987L311.487 109.96C311.747 110.92 312.067 112.42 312.067 112.42H312.107C312.107 112.42 312.447 110.88 312.667 110L315.047 100.7H316.867L312.887 115H311.167L308.547 104.92C308.327 104.08 308.027 102.74 308.027 102.74H307.987C307.987 102.74 307.687 104.08 307.447 104.92L304.647 115H302.847ZM321.672 115.28C318.592 115.28 316.672 112.84 316.672 109.84C316.672 106.84 318.592 104.4 321.672 104.4C324.772 104.4 326.652 106.84 326.652 109.84C326.652 112.84 324.772 115.28 321.672 115.28ZM321.672 113.92C323.872 113.92 324.992 112.12 324.992 109.84C324.992 107.56 323.872 105.74 321.672 105.74C319.472 105.74 318.332 107.56 318.332 109.84C318.332 112.12 319.472 113.92 321.672 113.92ZM329.888 104.66V106.38H329.928C330.548 105.38 331.628 104.54 333.008 104.54C333.308 104.54 333.468 104.58 333.668 104.66V106.22H333.608C333.368 106.14 333.208 106.12 332.888 106.12C331.288 106.12 329.888 107.32 329.888 109.26V115H328.268V104.66H329.888ZM341.923 115L338.263 109.42L336.743 110.86V115H335.123V100.7H336.743V109.08L341.283 104.66H343.343L339.383 108.38L343.823 115H341.923ZM348.536 115.3C345.696 115.3 344.116 113.96 343.956 111.64H345.616C345.836 113.44 347.036 113.94 348.576 113.94C350.276 113.94 350.976 113.2 350.976 112.24C350.976 111.08 350.176 110.78 348.276 110.38C346.236 109.96 344.416 109.54 344.416 107.28C344.416 105.56 345.736 104.44 348.136 104.44C350.696 104.44 351.956 105.66 352.196 107.68H350.536C350.376 106.32 349.636 105.72 348.096 105.72C346.616 105.72 346.016 106.38 346.016 107.2C346.016 108.32 347.016 108.54 348.796 108.9C350.876 109.32 352.616 109.78 352.616 112.16C352.616 114.24 350.916 115.3 348.536 115.3ZM2.72 129.66V131.02H2.76C3.5 130.04 4.54 129.42 6.04 129.42C8.2 129.42 9.52 130.6 9.52 132.74V140H7.9V132.88C7.9 131.54 7.02 130.78 5.56 130.78C3.92 130.78 2.72 131.94 2.72 133.64V140H1.1V129.66H2.72ZM19.7864 140.1C18.7264 140.1 18.1664 139.62 18.0064 138.56H17.9864C17.3664 139.36 16.3064 140.2 14.5464 140.2C12.5864 140.2 11.0464 139.28 11.0464 137.32C11.0464 134.88 12.9664 134.38 15.5464 133.98C17.0064 133.76 18.0264 133.62 18.0264 132.5C18.0264 131.34 17.1864 130.68 15.7064 130.68C14.0264 130.68 13.1864 131.4 13.1264 132.96H11.5664C11.6264 130.96 12.9464 129.46 15.6864 129.46C17.8864 129.46 19.5064 130.28 19.5064 132.74V137.66C19.5064 138.5 19.7064 138.96 20.6064 138.76H20.6664V139.94C20.4664 140.02 20.2064 140.1 19.7864 140.1ZM14.9064 138.96C17.0664 138.96 18.0464 137.38 18.0464 136.18V134.42C17.5064 134.76 16.5664 135.02 15.6864 135.18C14.0664 135.48 12.7664 135.76 12.7664 137.28C12.7664 138.66 13.8464 138.96 14.9064 138.96ZM21.0064 130.98V129.66H22.5064V126.4H24.1264V129.66H26.1264V130.98H24.1264V137.7C24.1264 138.42 24.5064 138.66 25.1664 138.66C25.4864 138.66 25.8464 138.58 26.0264 138.52H26.0864V139.92C25.7064 140 25.2664 140.06 24.7864 140.06C23.4664 140.06 22.5064 139.52 22.5064 138.06V130.98H21.0064ZM27.7992 140V129.66H29.4192V140H27.7992ZM27.7992 127.7V125.7H29.4192V127.7H27.7992ZM34.1873 140L30.5673 129.66H32.3073L34.4473 136.22C34.7473 137.14 35.1273 138.4 35.1273 138.4H35.1673C35.1673 138.4 35.5473 137.12 35.8473 136.22L38.0273 129.66H39.7073L35.9873 140H34.1873ZM45.0708 140.28C41.9108 140.28 40.0708 137.84 40.0708 134.84C40.0708 131.84 42.0308 129.4 44.9708 129.4C48.0708 129.4 49.7308 131.8 49.7308 135.22H41.7308C41.8508 137.32 42.9908 138.92 45.0708 138.92C46.5708 138.92 47.5708 138.2 47.9308 136.8H49.5108C49.0308 139.02 47.4108 140.28 45.0708 140.28ZM44.9708 130.68C43.0508 130.68 42.0108 132.12 41.7708 134H47.9908C47.8908 131.94 46.8308 130.68 44.9708 130.68ZM54.4984 140V129.66H56.1184V131.14H56.1584C56.7984 130.14 57.8984 129.42 59.1984 129.42C60.4584 129.42 61.4584 130.06 61.8984 131.26H61.9384C62.5984 130.08 63.8384 129.42 65.0984 129.42C66.9384 129.42 68.2384 130.6 68.2384 132.74V140H66.6184V132.82C66.6184 131.54 65.7584 130.78 64.7184 130.78C63.3784 130.78 62.1784 131.94 62.1784 133.56V140H60.5584V132.82C60.5584 131.54 59.8384 130.78 58.7784 130.78C57.5184 130.78 56.1184 131.94 56.1184 133.56V140H54.4984ZM74.7973 140.28C71.7173 140.28 69.7973 137.84 69.7973 134.84C69.7973 131.84 71.7173 129.4 74.7973 129.4C77.8973 129.4 79.7773 131.84 79.7773 134.84C79.7773 137.84 77.8973 140.28 74.7973 140.28ZM74.7973 138.92C76.9973 138.92 78.1173 137.12 78.1173 134.84C78.1173 132.56 76.9973 130.74 74.7973 130.74C72.5973 130.74 71.4573 132.56 71.4573 134.84C71.4573 137.12 72.5973 138.92 74.7973 138.92ZM86.313 140.3C84.913 140.3 83.893 139.8 83.053 138.64H83.013V140H81.393V125.7H83.013V131.14H83.053C83.833 130.08 84.873 129.42 86.373 129.42C88.993 129.42 90.773 131.42 90.773 134.86C90.773 138.18 89.113 140.3 86.313 140.3ZM86.193 138.94C88.173 138.94 89.113 137.22 89.113 134.88C89.113 132.56 88.173 130.8 86.213 130.8C83.953 130.8 82.913 132.64 82.913 134.88C82.913 137.2 83.993 138.94 86.193 138.94ZM92.3891 140V129.66H94.0091V140H92.3891ZM92.3891 127.7V125.7H94.0091V127.7H92.3891ZM96.2772 140V125.7H97.8972V140H96.2772ZM104.583 140.28C101.423 140.28 99.5825 137.84 99.5825 134.84C99.5825 131.84 101.543 129.4 104.483 129.4C107.583 129.4 109.243 131.8 109.243 135.22H101.243C101.363 137.32 102.503 138.92 104.583 138.92C106.083 138.92 107.083 138.2 107.443 136.8H109.023C108.543 139.02 106.923 140.28 104.583 140.28ZM104.483 130.68C102.563 130.68 101.523 132.12 101.283 134H107.503C107.403 131.94 106.343 130.68 104.483 130.68ZM113.11 140L118.37 125.7H120.39L125.67 140H123.71L122.19 135.64H116.49L114.95 140H113.11ZM118.71 129.38L117.01 134.18H121.69L120.05 129.38C119.77 128.58 119.41 127.36 119.41 127.36H119.37C119.37 127.36 118.99 128.56 118.71 129.38ZM126.979 143.32V129.66H128.599V131.12H128.639C129.419 130.06 130.459 129.42 131.959 129.42C134.579 129.42 136.399 131.42 136.399 134.86C136.399 138.18 134.699 140.3 131.899 140.3C130.499 140.3 129.499 139.88 128.639 138.78H128.599V143.32H126.979ZM131.779 138.94C133.759 138.94 134.739 137.22 134.739 134.88C134.739 132.56 133.759 130.8 131.799 130.8C129.539 130.8 128.499 132.64 128.499 134.88C128.499 137.12 129.399 138.94 131.779 138.94ZM138.014 143.32V129.66H139.634V131.12H139.674C140.454 130.06 141.494 129.42 142.994 129.42C145.614 129.42 147.434 131.42 147.434 134.86C147.434 138.18 145.734 140.3 142.934 140.3C141.534 140.3 140.534 139.88 139.674 138.78H139.634V143.32H138.014ZM142.814 138.94C144.794 138.94 145.774 137.22 145.774 134.88C145.774 132.56 144.794 130.8 142.834 130.8C140.574 130.8 139.534 132.64 139.534 134.88C139.534 137.12 140.434 138.94 142.814 138.94ZM149.849 136.54L149.409 130.28V125.7H151.189V130.28L150.749 136.54H149.849ZM149.329 140V138.02H151.269V140H149.329Z" fill="white"/>
</svg>
