<svg width="238" height="138" viewBox="0 0 238 138" fill="none" xmlns="http://www.w3.org/2000/svg">
<path fill-rule="evenodd" clip-rule="evenodd" d="M28.5687 25.9725V15.4012C28.5687 12.8583 30.1625 11.1146 32.3359 11.1146C34.4007 11.1146 35.5598 12.5314 35.5598 14.5294V25.9725H40.4862V13.8028C40.4862 9.73415 37.9144 6.82796 34.0747 6.82796C31.539 6.82796 30.0176 7.8088 28.6774 9.77048H28.5687V-0.00158691H23.6423V25.9725H28.5687ZM13.6099 25.9725V4.43036H21.3979V-0.00157894H0.569407V4.43036H8.35746V25.9725H13.6099ZM60.6624 20.4144C59.9742 23.7202 57.0401 26.5174 52.2586 26.5174C46.1006 26.5174 42.6231 22.1944 42.6231 16.6364C42.6231 11.1146 46.3542 6.82796 51.7877 6.82796C57.7646 6.82796 60.9522 11.4052 60.9522 18.0531H47.4771C47.8393 20.923 49.4332 22.703 52.2224 22.703C54.1422 22.703 55.2651 21.8312 55.8085 20.4144H60.6624ZM55.8089 14.6383H47.5499C47.9846 12.2044 49.2524 10.6423 51.8605 10.6423C54.1064 10.6423 55.664 12.2771 55.8089 14.6383ZM84.6791 20.5234C84.6791 24.2651 81.4915 26.5174 76.8549 26.5174C71.4576 26.5174 68.451 23.9018 68.1612 19.9421H72.7254C73.0514 22.0855 74.5728 23.03 76.7824 23.03C78.9558 23.03 80.1874 22.1944 80.1874 20.8866C80.1874 19.3307 78.3884 18.996 76.2419 18.5967L76.2414 18.5967L76.2411 18.5966C75.9322 18.5391 75.6162 18.4804 75.2972 18.4164C71.9647 17.7625 68.7046 16.8543 68.7046 12.7856C68.7046 8.7533 72.0371 6.82795 76.2753 6.82795C81.1655 6.82795 83.8822 9.26188 84.2445 13.0036H79.789C79.5716 11.0056 78.3038 10.279 76.2028 10.279C74.283 10.279 73.0152 11.0056 73.0152 12.3497C73.0152 13.6904 74.7481 14.0088 76.8673 14.3982L76.8674 14.3982C77.2748 14.473 77.6964 14.5505 78.1227 14.6383C81.2379 15.2922 84.6791 16.1641 84.6791 20.5234ZM91.8146 25.9725V15.1469C91.8146 12.6767 93.1549 11.0783 95.1471 11.0783C96.9583 11.0783 98.0088 12.1681 98.0088 14.2751V25.9725H102.935V15.1469C102.935 12.6767 104.203 11.0783 106.268 11.0783C108.079 11.0783 109.129 12.1681 109.129 14.2751V25.9725H114.056V13.4395C114.056 9.37088 111.846 6.82796 107.934 6.82796C105.58 6.82796 103.623 8.06309 102.356 10.0974H102.283C101.378 8.13575 99.494 6.82796 97.1394 6.82796C94.5676 6.82796 92.7564 8.13575 91.7421 9.84314H91.6335V7.33655H86.8882V25.9725H91.8146ZM128.147 23.9018C127.205 25.3186 125.865 26.4084 122.677 26.4084C118.874 26.4084 116.193 24.4104 116.193 20.705C116.193 16.6 119.526 15.2922 123.655 14.711C126.734 14.2751 128.147 14.0208 128.147 12.604C128.147 11.2599 127.096 10.388 125.032 10.388C122.713 10.388 121.59 11.2236 121.445 13.0036H117.062C117.207 9.73414 119.634 6.86428 125.068 6.86428C130.646 6.86428 132.892 9.37087 132.892 13.7302V23.2116C132.892 24.6284 133.109 25.4639 133.544 25.7908V25.9725H128.799C128.509 25.6092 128.328 24.7374 128.219 23.9018H128.147ZM123.872 22.9573C122.134 22.9573 120.975 22.3397 120.975 20.596C120.975 18.8523 122.242 18.2711 124.814 17.6898L125.082 17.627C126.236 17.3562 127.449 17.072 128.256 16.6V19.3972C128.256 21.2136 126.698 22.9573 123.872 22.9573ZM140.935 16.8906V25.9725H136.008V7.33654H140.754V10.3154H140.862C141.985 8.2084 143.253 7.11858 145.426 7.11858C145.97 7.11858 146.296 7.1549 146.586 7.26389V11.5868H146.477C143.253 11.2599 140.935 12.9673 140.935 16.8906ZM158.503 25.9362V22.3034C158.503 22.3034 157.669 22.3398 157.054 22.3398C155.967 22.3398 155.206 21.8675 155.206 20.4871V10.606H158.394V7.33656H155.206V1.52418H150.388V7.33656H147.817V10.606H150.388V21.5406C150.388 25.0643 153.033 26.0088 155.424 26.0088C157.38 26.0088 158.503 25.9362 158.503 25.9362ZM177.882 20.4144C177.194 23.7202 174.26 26.5174 169.478 26.5174C163.32 26.5174 159.843 22.1944 159.843 16.6363C159.843 11.1146 163.574 6.82795 169.007 6.82795C174.984 6.82795 178.172 11.4052 178.172 18.0531H164.697C165.059 20.923 166.653 22.703 169.442 22.703C171.362 22.703 172.485 21.8312 173.028 20.4144H177.882ZM173.029 14.6383H164.77C165.205 12.2044 166.473 10.6423 169.081 10.6423C171.327 10.6423 172.884 12.277 173.029 14.6383ZM195.813 20.5234C195.813 24.2651 192.626 26.5174 187.989 26.5174C182.592 26.5174 179.585 23.9018 179.295 19.9422H183.859C184.185 22.0855 185.707 23.03 187.917 23.03C190.09 23.03 191.322 22.1944 191.322 20.8867C191.322 19.3307 189.522 18.996 187.376 18.5968L187.376 18.5967L187.375 18.5967C187.066 18.5392 186.75 18.4804 186.431 18.4164C183.099 17.7625 179.839 16.8543 179.839 12.7857C179.839 8.75331 183.171 6.82796 187.409 6.82796C192.3 6.82796 195.016 9.2619 195.379 13.0036H190.923C190.706 11.0056 189.438 10.2791 187.337 10.2791C185.417 10.2791 184.149 11.0056 184.149 12.3497C184.149 13.6904 185.882 14.0088 188.001 14.3982C188.409 14.473 188.83 14.5505 189.257 14.6384C192.372 15.2922 195.813 16.1641 195.813 20.5234ZM207.26 25.9362V22.3034C207.26 22.3034 206.427 22.3398 205.811 22.3398C204.724 22.3398 203.964 21.8675 203.964 20.4871V10.606H207.151V7.33654H203.964V1.52416H199.146V7.33654H196.574V10.606H199.146V21.5406C199.146 25.0643 201.79 26.0088 204.181 26.0088C206.137 26.0088 207.26 25.9362 207.26 25.9362ZM12.4867 53.9183L9.95103 63.0728H5.49554L0.0620117 44.4369H4.95219L7.19804 53.0828C7.5965 54.6085 8.03119 56.5702 8.03119 56.5702H8.10363C8.10363 56.5702 8.50209 54.5722 8.90055 53.0464L11.2189 44.4369H15.4208L17.8478 53.0464C18.2462 54.6085 18.7171 56.5702 18.7171 56.5702H18.7896C18.7896 56.5702 19.2243 54.6085 19.6227 53.0828L21.9772 44.4369H26.7587L21.2165 63.0728H16.7248L14.2616 53.9183C13.8632 52.4289 13.4285 50.6852 13.4285 50.6852H13.356C13.356 50.6852 12.8851 52.4289 12.4867 53.9183ZM33.532 63.5087C36.7196 63.5087 38.0599 62.4189 39.0017 61.0021H39.0742C39.1828 61.8377 39.364 62.7095 39.6537 63.0728H44.399V62.8912C43.9643 62.5642 43.747 61.7287 43.747 60.3119V50.8305C43.747 46.4712 41.5011 43.9646 35.9227 43.9646C30.4892 43.9646 28.0622 46.8345 27.9173 50.1039H32.3004C32.4453 48.3239 33.5682 47.4883 35.8865 47.4883C37.9512 47.4883 39.0017 48.3602 39.0017 49.7043C39.0017 51.1211 37.589 51.3754 34.51 51.8113C30.3805 52.3925 27.048 53.7003 27.048 57.8053C27.048 61.5107 29.7285 63.5087 33.532 63.5087ZM31.8287 57.6964C31.8287 59.4401 32.9879 60.0576 34.7266 60.0576C37.552 60.0576 39.1096 58.3139 39.1096 56.4976V53.7003C38.3029 54.1723 37.0906 54.4566 35.9359 54.7273L35.6684 54.7902C33.0965 55.3714 31.8287 55.9526 31.8287 57.6964ZM49.9767 69.1758C53.744 69.1758 55.1205 67.6864 56.5332 63.545L63.0172 44.4368H58.0546L55.4465 52.8285C54.8669 54.5359 54.3598 56.8971 54.3598 56.8971H54.2873C54.2873 56.8971 53.6715 54.5359 53.0919 52.8285L50.339 44.4368H45.159L50.1578 57.6963C51.2083 60.5299 51.5706 61.7287 51.5706 62.7458C51.5706 64.2716 50.7736 65.2887 48.8176 65.2887H47.0788V69.1758H49.9767ZM77.1451 47.8516V63.0728H72.2187V47.8516H69.683V44.4369H72.2187V42.7658C72.2187 38.2249 75.7324 36.6265 80.4776 37.1351V40.9494C78.1593 40.8405 77.1451 41.1311 77.1451 43.0564V44.4369H80.4776V47.8516H77.1451ZM90.9824 63.6177C96.7419 63.6177 100.69 59.3311 100.69 53.773C100.69 48.2149 96.7419 43.9282 90.9824 43.9282C85.2229 43.9282 81.2745 48.2149 81.2745 53.773C81.2745 59.3311 85.2229 63.6177 90.9824 63.6177ZM86.2729 53.773C86.2729 57.4057 87.9392 59.8396 90.9819 59.8396C93.9885 59.8396 95.691 57.4057 95.691 53.773C95.691 50.1402 93.9885 47.67 90.9819 47.67C87.9392 47.67 86.2729 50.1402 86.2729 53.773ZM107.899 63.0728V53.991C107.899 50.0676 110.217 48.3602 113.441 48.6872H113.55V44.3642C113.26 44.2552 112.934 44.2189 112.391 44.2189C110.217 44.2189 108.95 45.3087 107.827 47.4157H107.718V44.4368H102.973V63.0728H107.899ZM131.624 63.545C130.211 67.6864 128.835 69.1758 125.068 69.1758H122.17V65.2887H123.909C125.865 65.2887 126.662 64.2716 126.662 62.7458C126.662 61.7287 126.299 60.5299 125.249 57.6963L120.25 44.4368H125.43L128.183 52.8285C128.763 54.5359 129.378 56.8971 129.378 56.8971H129.451C129.451 56.8971 129.958 54.5359 130.537 52.8285L133.146 44.4368H138.108L131.624 63.545ZM148.034 63.6177C153.794 63.6177 157.742 59.3311 157.742 53.773C157.742 48.2149 153.794 43.9282 148.034 43.9282C142.275 43.9282 138.326 48.2149 138.326 53.773C138.326 59.3311 142.275 63.6177 148.034 63.6177ZM143.325 53.773C143.325 57.4058 144.992 59.8397 148.034 59.8397C151.041 59.8397 152.743 57.4058 152.743 53.773C152.743 50.1403 151.041 47.67 148.034 47.67C144.992 47.67 143.325 50.1403 143.325 53.773ZM166.327 63.5814C168.935 63.5814 170.384 62.6005 171.651 60.8931H171.76V63.0728H176.505V44.4368H171.579V55.1897C171.579 57.66 170.166 59.4037 167.848 59.4037C165.747 59.4037 164.769 58.2049 164.769 56.0253V44.4368H159.879V56.8608C159.879 60.9295 162.197 63.5814 166.327 63.5814ZM184.62 53.991V63.0728H179.694V44.4368H184.439V47.4157H184.548C185.671 45.3087 186.939 44.2189 189.112 44.2189C189.655 44.2189 189.981 44.2552 190.271 44.3642V48.6872H190.163C186.939 48.3602 184.62 50.0676 184.62 53.991ZM6.43788 106.276V98.0661H6.51033C7.56081 99.6645 9.26331 100.718 11.8714 100.718C16.6529 100.718 19.913 96.9036 19.913 90.8733C19.913 85.0609 16.7616 81.0286 11.8352 81.0286C9.29954 81.0286 7.56081 82.2274 6.36543 83.8621H6.25676V81.5372H1.51148V106.276H6.43788ZM6.32867 91.0186C6.32867 94.397 7.88628 96.613 10.8204 96.613C13.3198 96.613 14.9136 94.5424 14.9136 91.0186C14.9136 87.4948 13.682 85.0246 10.6393 85.0246C7.56027 85.0246 6.32867 87.6765 6.32867 91.0186ZM27.7723 100.609C30.96 100.609 32.3003 99.5192 33.2421 98.1024H33.3145C33.4232 98.938 33.6043 99.8098 33.8941 100.173H38.6394V99.9915C38.2047 99.6645 37.9874 98.829 37.9874 97.4122V87.9308C37.9874 83.5715 35.7415 81.0649 30.1631 81.0649C24.7295 81.0649 22.3026 83.9348 22.1577 87.2042H26.5407C26.6856 85.4242 27.8085 84.5886 30.1269 84.5886C32.1916 84.5886 33.2421 85.4605 33.2421 86.8046C33.2421 88.2214 31.8294 88.4757 28.7504 88.9116C24.6209 89.4928 21.2883 90.8006 21.2883 94.9056C21.2883 98.611 23.9689 100.609 27.7723 100.609ZM26.0694 94.7967C26.0694 96.5404 27.2285 97.158 28.9673 97.158C31.7927 97.158 33.3503 95.4143 33.3503 93.5979V90.8007C32.5436 91.2726 31.3313 91.5569 30.1766 91.8276L29.9091 91.8905C27.3372 92.4717 26.0694 93.053 26.0694 94.7967ZM50.3387 100.137V96.504C50.3387 96.504 49.5056 96.5404 48.8898 96.5404C47.8031 96.5404 47.0424 96.0681 47.0424 94.6877V84.8066H50.2301V81.5372H47.0424V75.7248H42.2247V81.5372H39.6528V84.8066H42.2247V95.7412C42.2247 99.2649 44.869 100.209 47.2597 100.209C49.2158 100.209 50.3387 100.137 50.3387 100.137ZM57.6924 74.199V78.631H52.766V74.199H57.6924ZM57.6924 100.173V81.5371H52.766V100.173H57.6924ZM78.0146 94.615C77.3264 97.9208 74.3923 100.718 69.6108 100.718C63.4528 100.718 59.9753 96.3951 59.9753 90.837C59.9753 85.3152 63.7063 81.0286 69.1399 81.0286C75.1168 81.0286 78.3044 85.6058 78.3044 92.2537H64.8293C65.1915 95.1236 66.7853 96.9036 69.5746 96.9036C71.4944 96.9036 72.6173 96.0318 73.1607 94.615H78.0146ZM73.1598 88.839H64.9008C65.3355 86.405 66.6033 84.843 69.2114 84.843C71.4573 84.843 73.0149 86.4777 73.1598 88.839ZM85.5127 89.6018V100.173H80.5863V81.5372H85.404V84.0801H85.5127C86.7805 82.0821 88.483 81.0286 91.0187 81.0286C94.8583 81.0286 97.4302 83.9348 97.4302 88.0034V100.173H92.5038V88.73C92.5038 86.732 91.3447 85.3152 89.2799 85.3152C87.1065 85.3152 85.5127 87.0589 85.5127 89.6018ZM109.71 100.137V96.504C109.71 96.504 108.877 96.5404 108.261 96.5404C107.175 96.5404 106.414 96.0681 106.414 94.6877V84.8066H109.602V81.5371H106.414V75.7248H101.596V81.5371H99.0244V84.8066H101.596V95.7412C101.596 99.2649 104.241 100.209 106.631 100.209C108.587 100.209 109.71 100.137 109.71 100.137ZM127.677 94.724C127.677 98.4657 124.489 100.718 119.853 100.718C114.455 100.718 111.449 98.1024 111.159 94.1428H115.723C116.049 96.2861 117.571 97.2306 119.78 97.2306C121.954 97.2306 123.185 96.3951 123.185 95.0873C123.185 93.5313 121.386 93.1967 119.24 92.7974C118.931 92.7399 118.614 92.681 118.295 92.617C114.962 91.9631 111.702 91.0549 111.702 86.9863C111.702 82.9539 115.035 81.0286 119.273 81.0286C124.163 81.0286 126.88 83.4625 127.242 87.2042H122.787C122.569 85.2062 121.302 84.4797 119.201 84.4797C117.281 84.4797 116.013 85.2062 116.013 86.5503C116.013 87.891 117.746 88.2094 119.865 88.5988C120.272 88.6736 120.694 88.7511 121.12 88.839C124.236 89.4929 127.677 90.3647 127.677 94.724ZM145.57 100.137V96.504C145.57 96.504 144.737 96.5404 144.121 96.5404C143.035 96.5404 142.274 96.0681 142.274 94.6877V84.8066H145.461V81.5371H142.274V75.7248H137.456V81.5371H134.884V84.8066H137.456V95.7412C137.456 99.2649 140.1 100.209 142.491 100.209C144.447 100.209 145.57 100.137 145.57 100.137ZM166.327 90.8733C166.327 96.4314 162.379 100.718 156.619 100.718C150.86 100.718 146.912 96.4314 146.912 90.8733C146.912 85.3152 150.86 81.0286 156.619 81.0286C162.379 81.0286 166.327 85.3152 166.327 90.8733ZM156.619 96.9399C153.577 96.9399 151.91 94.506 151.91 90.8733C151.91 87.2405 153.577 84.7703 156.619 84.7703C159.626 84.7703 161.329 87.2405 161.329 90.8733C161.329 94.506 159.626 96.9399 156.619 96.9399ZM179.62 98.0661V106.276H174.694V81.5372H179.439V83.8621H179.548C180.743 82.2274 182.482 81.0286 185.018 81.0286C189.944 81.0286 193.096 85.0609 193.096 90.8733C193.096 96.9037 189.835 100.718 185.054 100.718C182.446 100.718 180.743 99.6646 179.693 98.0661H179.62ZM184.005 96.613C181.071 96.613 179.513 94.397 179.513 91.0186C179.513 87.6765 180.745 85.0246 183.824 85.0246C186.866 85.0246 188.098 87.4948 188.098 91.0186C188.098 94.5423 186.504 96.613 184.005 96.613ZM206.427 98.1024C205.485 99.5192 204.145 100.609 200.957 100.609C197.154 100.609 194.473 98.611 194.473 94.9056C194.473 90.8006 197.806 89.4928 201.935 88.9116C205.014 88.4757 206.427 88.2214 206.427 86.8046C206.427 85.4605 205.376 84.5886 203.312 84.5886C200.993 84.5886 199.87 85.4242 199.726 87.2042H195.342C195.487 83.9347 197.914 81.0649 203.348 81.0649C208.926 81.0649 211.172 83.5715 211.172 87.9308V97.4122C211.172 98.829 211.389 99.6645 211.824 99.9914V100.173H207.079C206.789 99.8098 206.608 98.938 206.499 98.1024H206.427ZM202.152 97.158C200.413 97.158 199.254 96.5404 199.254 94.7967C199.254 93.053 200.522 92.4717 203.094 91.8905L203.361 91.8276C204.516 91.5569 205.728 91.2726 206.535 90.8007V93.5979C206.535 95.4143 204.977 97.158 202.152 97.158ZM223.959 100.645C222.546 104.787 221.169 106.276 217.402 106.276H214.504V102.389H216.243C218.199 102.389 218.996 101.372 218.996 99.8461C218.996 98.829 218.634 97.6302 217.583 94.7966L212.584 81.5371H217.764L220.517 89.9288C221.097 91.6362 221.713 93.9974 221.713 93.9974H221.785C221.785 93.9974 222.292 91.6362 222.872 89.9288L225.48 81.5371H230.443L223.959 100.645ZM7.88588 137.273V122.052H11.2184V118.637H7.88588V117.257C7.88588 115.332 8.90014 115.041 11.2184 115.15V111.336C6.47316 110.827 2.95948 112.425 2.95948 116.966V118.637H0.423833V122.052H2.95948V137.273H7.88588ZM31.431 127.974C31.431 133.532 27.4826 137.818 21.7231 137.818C15.9636 137.818 12.0152 133.532 12.0152 127.974C12.0152 122.416 15.9636 118.129 21.7231 118.129C27.4826 118.129 31.431 122.416 31.431 127.974ZM21.7224 134.04C18.6796 134.04 17.0134 131.606 17.0134 127.974C17.0134 124.341 18.6796 121.871 21.7224 121.871C24.729 121.871 26.4315 124.341 26.4315 127.974C26.4315 131.606 24.729 134.04 21.7224 134.04ZM38.6394 128.192V137.273H33.713V118.637H38.4582V121.616H38.5669C39.6898 119.509 40.9577 118.419 43.1311 118.419C43.6744 118.419 44.0004 118.456 44.2902 118.565V122.888H44.1816C40.9577 122.561 38.6394 124.268 38.6394 128.192ZM62.1117 137.237V133.604C62.1117 133.604 61.2786 133.641 60.6628 133.641C59.5761 133.641 58.8154 133.168 58.8154 131.788V121.907H62.0031V118.637H58.8154V112.825H53.9977V118.637H51.4258V121.907H53.9977V132.841C53.9977 136.365 56.642 137.31 59.0327 137.31C60.9888 137.31 62.1117 137.237 62.1117 137.237ZM69.4651 126.702V137.273H64.5387V111.299H69.4651V121.071H69.5738C70.9141 119.11 72.4355 118.129 74.9711 118.129C78.8108 118.129 81.3827 121.035 81.3827 125.104V137.273H76.4563V125.83C76.4563 123.832 75.2971 122.416 73.2324 122.416C71.059 122.416 69.4651 124.159 69.4651 126.702ZM93.1553 137.818C97.9368 137.818 100.871 135.021 101.559 131.715H96.7052C96.1618 133.132 95.0389 134.004 93.119 134.004C90.3298 134.004 88.736 132.224 88.3737 129.354H101.849C101.849 122.706 98.6612 118.129 92.6843 118.129C87.2508 118.129 83.5198 122.416 83.5198 127.937C83.5198 133.495 86.9973 137.818 93.1553 137.818ZM88.4466 125.939H96.7056C96.5607 123.578 95.0031 121.943 92.7572 121.943C90.1491 121.943 88.8813 123.505 88.4466 125.939ZM109.057 115.731V111.299H104.131V115.731H109.057ZM109.057 118.637V137.273H104.131V118.637H109.057ZM117.171 137.273V128.192C117.171 124.268 119.49 122.561 122.714 122.888H122.822V118.565C122.532 118.456 122.206 118.419 121.663 118.419C119.49 118.419 118.222 119.509 117.099 121.616H116.99V118.637H112.245V137.273H117.171ZM146.403 131.824C146.403 135.566 143.216 137.818 138.579 137.818C133.182 137.818 130.175 135.203 129.885 131.243H134.45C134.776 133.386 136.297 134.331 138.507 134.331C140.68 134.331 141.912 133.495 141.912 132.188C141.912 130.632 140.113 130.297 137.966 129.898C137.657 129.84 137.341 129.781 137.021 129.717C133.689 129.063 130.429 128.155 130.429 124.087C130.429 120.054 133.761 118.129 137.999 118.129C142.89 118.129 145.606 120.563 145.969 124.305H141.513C141.296 122.307 140.028 121.58 137.927 121.58C136.007 121.58 134.739 122.307 134.739 123.651C134.739 124.991 136.472 125.31 138.592 125.699C138.999 125.774 139.421 125.851 139.847 125.939C142.962 126.593 146.403 127.465 146.403 131.824ZM153.54 137.273V126.448C153.54 123.978 154.88 122.379 156.872 122.379C158.683 122.379 159.734 123.469 159.734 125.576V137.273H164.66V126.448C164.66 123.978 165.928 122.379 167.993 122.379C169.804 122.379 170.855 123.469 170.855 125.576V137.273H175.781V124.74C175.781 120.672 173.571 118.129 169.659 118.129C167.305 118.129 165.349 119.364 164.081 121.398H164.008C163.103 119.437 161.219 118.129 158.865 118.129C156.293 118.129 154.481 119.437 153.467 121.144H153.359V118.637H148.613V137.273H153.54ZM183.751 111.299V115.731H178.825V111.299H183.751ZM183.751 137.273V118.637H178.825V137.273H183.751ZM191.937 111.299V137.273H187.01V111.299H191.937ZM203.927 137.818C208.708 137.818 211.643 135.021 212.331 131.715H207.477C206.933 133.132 205.811 134.004 203.891 134.004C201.101 134.004 199.508 132.224 199.145 129.354H212.621C212.621 122.706 209.433 118.129 203.456 118.129C198.022 118.129 194.291 122.416 194.291 127.937C194.291 133.495 197.769 137.818 203.927 137.818ZM199.218 125.939H207.477C207.332 123.578 205.774 121.943 203.528 121.943C200.92 121.943 199.652 123.505 199.218 125.939ZM222.437 137.818C227.074 137.818 230.262 135.566 230.262 131.824C230.262 127.465 226.82 126.593 223.705 125.939C223.279 125.851 222.857 125.774 222.45 125.699C220.331 125.31 218.598 124.991 218.598 123.651C218.598 122.307 219.866 121.58 221.785 121.58C223.886 121.58 225.154 122.307 225.372 124.305H229.827C229.465 120.563 226.748 118.129 221.858 118.129C217.62 118.129 214.287 120.054 214.287 124.087C214.287 128.155 217.547 129.063 220.88 129.717C221.199 129.781 221.515 129.84 221.824 129.898C223.971 130.297 225.77 130.632 225.77 132.188C225.77 133.495 224.538 134.331 222.365 134.331C220.155 134.331 218.634 133.386 218.308 131.243H213.744C214.034 135.203 217.04 137.818 222.437 137.818ZM237.47 132.006V137.273H232.181V132.006H237.47Z" fill="white"/>
</svg>
