<svg width="171" height="52" viewBox="0 0 171 52" fill="none" xmlns="http://www.w3.org/2000/svg">
<g clip-path="url(#clip0_2_12612)">
<mask id="mask0_2_12612" style="mask-type:luminance" maskUnits="userSpaceOnUse" x="21" y="5" width="130" height="24">
<rect x="21.3152" y="5.91016" width="129.185" height="22.1065" fill="white"/>
</mask>
<g mask="url(#mask0_2_12612)">
<path d="M24.4094 8.13216L24.2834 8.15079C24.2881 8.09489 24.2928 8.039 24.2974 7.98776C24.3441 7.62908 24.4841 7.31233 24.68 7.05147L24.806 7.03284C24.6054 7.29369 24.4701 7.61045 24.4187 7.96912C24.4187 8.02036 24.4141 8.07626 24.4094 8.13216Z" fill="#A6510E"/>
<path d="M24.8105 7.02823L24.6845 7.04686C24.7405 6.97233 24.8058 6.90246 24.8758 6.83724L25.0018 6.81861C24.9318 6.87917 24.8711 6.9537 24.8105 7.02823Z" fill="#A6510E"/>
<path d="M25.0016 6.81387L24.8756 6.8325C24.9316 6.78126 24.9922 6.73002 25.0529 6.68344L25.1788 6.66481C25.1182 6.71139 25.0575 6.76263 25.0016 6.81387Z" fill="#A7510E"/>
<path d="M25.179 6.66487L25.0531 6.68351C25.1091 6.64158 25.1697 6.60432 25.2304 6.56705L25.3563 6.54842C25.2957 6.58569 25.235 6.62295 25.179 6.66487Z" fill="#A8520F"/>
<path d="M25.3566 6.54837L25.2307 6.567C25.2913 6.5344 25.352 6.50179 25.4126 6.47384L25.5386 6.45521C25.4733 6.48781 25.4126 6.51576 25.3566 6.54837Z" fill="#A9520F"/>
<path d="M25.5385 6.45994L25.4125 6.47858C25.4732 6.45063 25.5385 6.42734 25.6038 6.4087L25.7298 6.39007C25.6645 6.4087 25.5992 6.43199 25.5385 6.45994Z" fill="#A9530F"/>
<path d="M25.7295 6.38532L25.6035 6.40395C25.6735 6.38066 25.7435 6.36669 25.8181 6.35271L25.9441 6.33408C25.8694 6.34805 25.7995 6.36669 25.7295 6.38532Z" fill="#AA5310"/>
<path d="M25.9442 6.33871L25.8182 6.35735L25.8368 6.35269L25.9628 6.33405L25.9442 6.33871Z" fill="#AB5310"/>
<path d="M26.5835 10.205L26.4575 10.2236C26.2756 10.2515 26.0843 10.2562 25.8884 10.2236C24.9226 10.0652 24.2321 9.15687 24.2834 8.15071L24.4094 8.13208C24.3581 9.13358 25.0439 10.0466 26.0143 10.205C26.2103 10.2329 26.4016 10.2329 26.5835 10.205Z" fill="#A6510E"/>
<path d="M24.6238 8.14138C24.6285 8.09014 24.6378 8.0389 24.6378 7.99232C24.7638 7.03274 25.6175 6.37594 26.532 6.525C27.4044 6.6694 28.0249 7.48924 27.9783 8.39292C27.9736 8.44416 27.9643 8.4954 27.9643 8.54198C27.8336 9.50156 26.9845 10.163 26.0701 10.0093C25.1977 9.86489 24.5771 9.04506 24.6238 8.14138Z" fill="#E7711F"/>
<path d="M24.624 8.14153L24.4094 8.13221L24.4141 8.11823L24.624 8.12755V8.14153Z" fill="#E06E1E"/>
<path d="M24.624 8.12751L24.4141 8.11819V8.0949L24.6287 8.10887L24.624 8.12751Z" fill="#E06E1E"/>
<path d="M24.6287 8.10885L24.4141 8.09487V8.06693L24.6287 8.0809V8.10885Z" fill="#E16F1E"/>
<path d="M24.6286 8.08088L24.414 8.06691L24.4234 7.98772L24.638 8.01101L24.6286 8.08088Z" fill="#E26F1E"/>
<path d="M24.6377 8.01107L24.4231 7.98778L24.4278 7.96915L24.6377 7.99244V8.01107Z" fill="#E16F1E"/>
<path d="M24.6378 7.99237L24.4279 7.96908V7.96443V7.95977L24.6378 7.98772V7.99237Z" fill="#E26F1E"/>
<path d="M24.6379 7.98781L24.428 7.95987L24.4326 7.91794L24.6426 7.94589L24.6379 7.98781Z" fill="#E36F1E"/>
<path d="M24.6427 7.94583L24.4327 7.91788L24.442 7.8713L24.652 7.90857L24.6427 7.94583Z" fill="#E3701E"/>
<path d="M24.6521 7.90861L24.4421 7.87134L24.4515 7.82942L24.6567 7.86669L24.6521 7.90861Z" fill="#E4701E"/>
<path d="M24.6564 7.86662L24.4512 7.82935L24.4605 7.78743L24.6658 7.82935L24.6564 7.86662Z" fill="#E5701E"/>
<path d="M24.666 7.8294L24.4607 7.78747L24.47 7.74555L24.6753 7.79213L24.666 7.8294Z" fill="#E6711E"/>
<path d="M24.6752 7.79205L24.47 7.74547L24.4793 7.70355L24.6846 7.75479L24.6752 7.79205Z" fill="#E6711F"/>
<path d="M24.6845 7.75483L24.4792 7.70359L24.4886 7.66167L24.6938 7.71757L24.6845 7.75483Z" fill="#E7711F"/>
<path d="M24.6939 7.7176L24.4886 7.6617L24.5026 7.62444L24.7079 7.68499L24.6939 7.7176Z" fill="#E8721F"/>
<path d="M24.708 7.68502L24.5027 7.62446L24.5167 7.5872L24.7173 7.64775L24.708 7.68502Z" fill="#E9721F"/>
<path d="M24.7172 7.64766L24.5166 7.58711L24.5259 7.54984L24.7312 7.61506L24.7172 7.64766Z" fill="#E9721F"/>
<path d="M24.7314 7.61508L24.5261 7.54987L24.5401 7.5126L24.7407 7.58247L24.7314 7.61508Z" fill="#EA731F"/>
<path d="M24.7404 7.58251L24.5398 7.51263L24.5584 7.47071L24.7544 7.54524L24.7404 7.58251Z" fill="#EB731F"/>
<path d="M24.7547 7.54514L24.5587 7.47527L24.5727 7.43801L24.7687 7.51254L24.7547 7.54514Z" fill="#EC741F"/>
<path d="M24.7686 7.51256L24.5726 7.43803L24.5913 7.40076L24.7826 7.47995L24.7686 7.51256Z" fill="#ED7420"/>
<path d="M24.7825 7.47998L24.5912 7.40079L24.6052 7.36352L24.8011 7.44737L24.7825 7.47998Z" fill="#EE7420"/>
<path d="M24.8013 7.44739L24.6054 7.36355L24.624 7.32628L24.8153 7.41479L24.8013 7.44739Z" fill="#EF7520"/>
<path d="M24.8152 7.41481L24.6239 7.32631L24.6426 7.28904L24.8338 7.3822L24.8152 7.41481Z" fill="#F07520"/>
<path d="M24.834 7.38223L24.6427 7.28906L24.666 7.2518L24.8526 7.34962L24.834 7.38223Z" fill="#F17620"/>
<path d="M24.8525 7.34964L24.6613 7.25182L24.6846 7.21456L24.8712 7.31704L24.8525 7.34964Z" fill="#F27720"/>
<path d="M24.8712 7.31694L24.6846 7.21446L24.7079 7.1772L24.8899 7.27967L24.8712 7.31694Z" fill="#F47721"/>
<path d="M24.8897 7.27971L24.7078 7.17723L24.7311 7.13996L24.9131 7.2471L24.8897 7.27971Z" fill="#F57F2B"/>
<path d="M24.9133 7.24712L24.7314 7.13998L24.7547 7.10737L24.932 7.21451L24.9133 7.24712Z" fill="#F58230"/>
<path d="M24.9319 7.21454L24.7547 7.1074L24.7826 7.06548L24.9599 7.18194L24.9319 7.21454Z" fill="#F58433"/>
<path d="M24.9599 7.18196L24.7826 7.06551L24.8106 7.02824L24.9832 7.14935L24.9599 7.18196Z" fill="#F68636"/>
<path d="M24.9833 7.14925L24.8107 7.02814L24.8387 6.99088L25.0113 7.11199L24.9833 7.14925Z" fill="#F68839"/>
<path d="M25.0113 7.11203L24.8386 6.99092L24.876 6.949L25.0439 7.07477L25.0113 7.11203Z" fill="#F6893C"/>
<path d="M25.0436 7.07469L24.8756 6.94892L24.913 6.907L25.0763 7.03742L25.0436 7.07469Z" fill="#F68B3E"/>
<path d="M25.0764 7.03747L24.9131 6.90704L24.9505 6.86512L25.1091 7.0002L25.0764 7.03747Z" fill="#F68C41"/>
<path d="M25.1092 7.00025L24.9506 6.86517L24.9972 6.81859L25.1512 6.95833L25.1092 7.00025Z" fill="#F68D43"/>
<path d="M25.1511 6.95838L24.9971 6.81864L25.0438 6.77672L25.1931 6.92112L25.1511 6.95838Z" fill="#F78F45"/>
<path d="M25.193 6.92107L25.0437 6.77667L25.1044 6.72077L25.249 6.86983L25.193 6.92107Z" fill="#F79047"/>
<path d="M25.2492 6.86981L25.1046 6.72075L25.1793 6.66485L25.3146 6.81857L25.2492 6.86981Z" fill="#F79149"/>
<path d="M25.3144 6.81845L25.1791 6.66473L25.2724 6.59952L25.3983 6.76255L25.3144 6.81845Z" fill="#F7924B"/>
<path d="M25.3984 6.76267L25.2724 6.59963C25.3377 6.55771 25.4077 6.51578 25.4823 6.48318L25.5897 6.65553C25.5243 6.68814 25.459 6.72074 25.3984 6.76267Z" fill="#F7934D"/>
<path d="M25.5896 6.65553L25.4823 6.48318C25.5383 6.45989 25.5896 6.4366 25.6456 6.41331L25.7342 6.59032C25.6876 6.61361 25.6363 6.63224 25.5896 6.65553Z" fill="#F7944E"/>
<path d="M25.7389 6.59499L25.6502 6.41798C25.7249 6.39003 25.8042 6.36674 25.8835 6.35276L25.9535 6.53909C25.8742 6.5484 25.8042 6.56704 25.7389 6.59499Z" fill="#F7934D"/>
<path d="M25.9489 6.53437L25.8836 6.34804C25.9349 6.33873 25.9862 6.32941 26.0375 6.32475L26.0888 6.51108C26.0422 6.51574 25.9955 6.52505 25.9489 6.53437Z" fill="#F7924B"/>
<path d="M26.0889 6.51115L26.0376 6.32482C26.0796 6.32016 26.1216 6.31551 26.1682 6.31551L26.2102 6.50183L26.0889 6.51115Z" fill="#F79149"/>
<path d="M26.201 6.50174L26.1636 6.31076H26.2803L26.3083 6.50174H26.201Z" fill="#F79047"/>
<path d="M26.3083 6.50185L26.2803 6.31087L26.3969 6.31553L26.4109 6.50651L26.3083 6.50185Z" fill="#F78F45"/>
<path d="M26.4109 6.50636L26.3969 6.31537L26.5042 6.32935L26.5135 6.51567L26.4109 6.50636Z" fill="#F68D43"/>
<path d="M26.5134 6.51573L26.5041 6.3294L26.532 6.33406L26.6207 6.35269L26.6114 6.53436L26.532 6.52039L26.5134 6.51573Z" fill="#F68C41"/>
<path d="M26.6113 6.53438L26.6207 6.35271L26.7326 6.38066L26.714 6.56232L26.6113 6.53438Z" fill="#F68B3E"/>
<path d="M26.714 6.56232L26.7327 6.38065L26.84 6.41326L26.812 6.59493L26.714 6.56232Z" fill="#F6893C"/>
<path d="M26.812 6.5949L26.84 6.41324L26.9519 6.45982L26.9146 6.63217L26.812 6.5949Z" fill="#F68839"/>
<path d="M26.9144 6.63222L26.9517 6.45987L27.059 6.50645L27.0123 6.6788L26.9144 6.63222Z" fill="#F68636"/>
<path d="M27.0127 6.67872L27.0594 6.50637L27.1667 6.56692L27.106 6.72996L27.0127 6.67872Z" fill="#F58433"/>
<path d="M27.1058 6.72995L27.1665 6.56691L27.2738 6.63213L27.2038 6.7905L27.1058 6.72995Z" fill="#F58230"/>
<path d="M27.204 6.7906L27.274 6.63222L27.3719 6.70675L27.2926 6.85581L27.204 6.7906Z" fill="#F57F2B"/>
<path d="M27.2925 6.85588L27.3718 6.70681L27.4651 6.786L27.3764 6.92575L27.2925 6.85588Z" fill="#F47721"/>
<path d="M27.3766 6.92567L27.4652 6.78593L27.5538 6.86977L27.4559 7.0002L27.3766 6.92567Z" fill="#F27720"/>
<path d="M27.4557 7.00023L27.5536 6.8698L27.633 6.95364L27.5256 7.07941L27.4557 7.00023Z" fill="#F17620"/>
<path d="M27.5258 7.07943L27.6331 6.95366L27.7078 7.04682L27.5958 7.16328L27.5258 7.07943Z" fill="#F07520"/>
<path d="M27.5958 7.16328L27.7078 7.04683L27.7731 7.13533L27.6565 7.24247L27.5958 7.16328Z" fill="#EF7520"/>
<path d="M27.6563 7.24248L27.773 7.13534L27.8336 7.2285L27.7077 7.32632L27.6563 7.24248Z" fill="#EE7420"/>
<path d="M27.7077 7.32632L27.8337 7.2285L27.8897 7.32166L27.759 7.41017L27.7077 7.32632Z" fill="#ED7420"/>
<path d="M27.7589 7.41016L27.8895 7.32166L27.9362 7.41482L27.8009 7.49401L27.7589 7.41016Z" fill="#EC741F"/>
<path d="M27.8011 7.49402L27.9364 7.41483L27.9784 7.50333L27.8384 7.5732L27.8011 7.49402Z" fill="#EB731F"/>
<path d="M27.8386 7.57321L27.9786 7.50334L28.0112 7.5965L27.8713 7.65706L27.8386 7.57321Z" fill="#EA731F"/>
<path d="M27.8711 7.65693L28.011 7.59637L28.0437 7.68488L27.8991 7.74078L27.8711 7.65693Z" fill="#E9721F"/>
<path d="M27.8989 7.74092L28.0435 7.68502L28.0715 7.77352L27.9222 7.8201L27.8989 7.74092Z" fill="#E9721F"/>
<path d="M27.9225 7.82L28.0718 7.77342L28.0904 7.86658L27.9411 7.89919L27.9225 7.82Z" fill="#E8721F"/>
<path d="M27.941 7.89919L28.0903 7.86658L28.109 7.95509L27.955 7.97838L27.941 7.89919Z" fill="#E7711F"/>
<path d="M27.955 7.9784L28.1089 7.95511L28.1229 8.04361L27.969 8.05758L27.955 7.9784Z" fill="#E6711F"/>
<path d="M27.969 8.05761L28.123 8.03898L28.1323 8.12748L27.9737 8.1368L27.969 8.05761Z" fill="#E6711E"/>
<path d="M27.9739 8.13681L28.1325 8.1275L28.1372 8.216H27.9786L27.9739 8.13681Z" fill="#E5701E"/>
<path d="M27.9784 8.216H28.137V8.3045L27.9831 8.29519L27.9784 8.216Z" fill="#E4701E"/>
<path d="M27.9831 8.29521L28.137 8.30453V8.38838L27.9784 8.3744L27.9831 8.29521Z" fill="#E3701E"/>
<path d="M27.9786 8.37434L28.1372 8.38832L28.1325 8.40695V8.45353L27.9739 8.43024L27.9786 8.38832V8.37434Z" fill="#E36F1E"/>
<path d="M27.9738 8.43025L28.1324 8.45354L28.1184 8.56999L27.9645 8.53738L27.9738 8.43025Z" fill="#E26F1E"/>
<path d="M27.9644 8.5374L28.1184 8.57001L27.9644 8.5374Z" fill="#E36F1E"/>
<path d="M27.9643 8.53741L28.1182 8.57002L28.1089 8.62591L27.9596 8.58399L27.9643 8.53741Z" fill="#E26F1E"/>
<path d="M27.9599 8.58403L28.1092 8.62595L28.1045 8.67719L27.9506 8.63527L27.9599 8.58403Z" fill="#E16F1E"/>
<path d="M27.9505 8.63517L28.1045 8.67709L28.0905 8.73299L27.9412 8.68175L27.9505 8.63517Z" fill="#E06E1E"/>
<path d="M27.9411 8.68172L28.0904 8.73296L28.0718 8.81681L27.9225 8.75625L27.9411 8.68172Z" fill="#E06E1E"/>
<path d="M27.9224 8.7563L28.0716 8.81685L28.0483 8.89604L27.9037 8.83083L27.9224 8.7563Z" fill="#DF6E1D"/>
<path d="M27.899 8.83086L28.0483 8.89608L28.0203 8.97992L27.8757 8.90539L27.899 8.83086Z" fill="#DE6D1D"/>
<path d="M27.8756 8.90532L28.0203 8.97985L27.9923 9.05903L27.8476 8.97519L27.8756 8.90532Z" fill="#DD6D1D"/>
<path d="M27.8476 8.97524L27.9922 9.05909L27.9549 9.13828L27.8196 9.04977L27.8476 8.97524Z" fill="#DC6C1D"/>
<path d="M27.82 9.04982L27.9553 9.13832L27.918 9.21751L27.7827 9.11969L27.82 9.04982Z" fill="#DC6C1D"/>
<path d="M27.7824 9.11962L27.9177 9.21744L27.8757 9.29663L27.7451 9.18949L27.7824 9.11962Z" fill="#DB6C1D"/>
<path d="M27.7449 9.18956L27.8755 9.2967L27.8288 9.37123L27.7029 9.25943L27.7449 9.18956Z" fill="#DA6B1D"/>
<path d="M27.7031 9.25936L27.8291 9.37116L27.7778 9.45035L27.6565 9.32924L27.7031 9.25936Z" fill="#D96B1D"/>
<path d="M27.6564 9.3293L27.7777 9.45041L27.7217 9.52494L27.6097 9.39451L27.6564 9.3293Z" fill="#D96B1C"/>
<path d="M27.6098 9.39447L27.7218 9.52489L27.6611 9.59942L27.5538 9.45968L27.6098 9.39447Z" fill="#D86A1C"/>
<path d="M27.5537 9.45976L27.661 9.59951L27.5957 9.66938L27.493 9.52964L27.5537 9.45976Z" fill="#D76A1C"/>
<path d="M27.4929 9.52958L27.5956 9.66932L27.5209 9.74385L27.4276 9.59013L27.4929 9.52958Z" fill="#D66A1C"/>
<path d="M27.4278 9.59011L27.5211 9.74382L27.4418 9.8137L27.3532 9.65532L27.4278 9.59011Z" fill="#D6691C"/>
<path d="M27.3532 9.65541L27.4419 9.81379L27.3532 9.879L27.2786 9.71597L27.3532 9.65541Z" fill="#D5691C"/>
<path d="M27.2786 9.71595L27.3532 9.87899L27.2599 9.9442L27.19 9.77651L27.2786 9.71595Z" fill="#D4681C"/>
<path d="M27.19 9.77649L27.26 9.94418L27.1527 10.0094L27.0967 9.83239L27.19 9.77649Z" fill="#D3681B"/>
<path d="M27.0966 9.8324L27.1526 10.0094L27.0359 10.0653L26.9893 9.88364L27.0966 9.8324Z" fill="#D3681B"/>
<path d="M26.9895 9.88353L27.0361 10.0652C26.9941 10.0838 26.9475 10.1025 26.9055 10.1211L26.8728 9.93477L26.9895 9.88353Z" fill="#D2671B"/>
<path d="M26.8725 9.93481L26.9051 10.1211C26.8538 10.1398 26.8072 10.1537 26.7558 10.1677L26.7372 9.97674C26.7792 9.96276 26.8258 9.94879 26.8725 9.93481Z" fill="#D1671B"/>
<path d="M26.7372 9.97681L26.7559 10.1678C26.6952 10.1818 26.6346 10.1957 26.5739 10.2051V10.0094C26.6253 10.0001 26.6812 9.99079 26.7372 9.97681Z" fill="#D1671B"/>
<path d="M26.5741 10.0094V10.2051C26.4995 10.2191 26.4248 10.2237 26.3455 10.2237L26.3689 10.0281C26.4388 10.0281 26.5042 10.0188 26.5741 10.0094Z" fill="#D0661B"/>
<path d="M26.3687 10.028L26.3454 10.2236C26.2381 10.2283 26.1261 10.219 26.0141 10.2003L25.9675 10.191L26.0281 9.99539L26.0701 10C26.1681 10.0233 26.2707 10.028 26.3687 10.028Z" fill="#CF661A"/>
<path d="M26.0282 10.0001L25.9676 10.1957C25.781 10.1584 25.6084 10.0979 25.4451 10.0094L25.557 9.83237C25.7063 9.91156 25.8603 9.96745 26.0282 10.0001Z" fill="#CE651A"/>
<path d="M25.5617 9.8324L25.4498 10.0094C25.3425 9.95352 25.2398 9.88364 25.1465 9.80911L25.2865 9.65074C25.3705 9.72061 25.4638 9.78116 25.5617 9.8324Z" fill="#CF661A"/>
<path d="M25.2865 9.6507L25.1465 9.80907C25.0906 9.76249 25.0346 9.71125 24.9833 9.66001L25.1372 9.52027C25.1885 9.56685 25.2352 9.60877 25.2865 9.6507Z" fill="#D0661B"/>
<path d="M25.1418 9.52034L24.9878 9.66009C24.9458 9.61816 24.9085 9.57624 24.8712 9.52966L25.0391 9.39923L25.1418 9.52034Z" fill="#D1671B"/>
<path d="M25.0393 9.40376L24.8714 9.53418L24.7827 9.41773L24.96 9.29662L25.0393 9.40376Z" fill="#D1671B"/>
<path d="M24.9597 9.29669L24.7824 9.4178L24.7124 9.31067L24.8944 9.20353L24.9597 9.29669Z" fill="#D2671B"/>
<path d="M24.8947 9.20357L24.7128 9.31071L24.6568 9.21289L24.8434 9.11507L24.8947 9.20357Z" fill="#D3681B"/>
<path d="M24.843 9.11496L24.6563 9.21278L24.605 9.11962L24.801 9.03111L24.843 9.11496Z" fill="#D3681B"/>
<path d="M24.8013 9.03123L24.6054 9.11973L24.5681 9.03123L24.7687 8.95204L24.8013 9.03123Z" fill="#D4681C"/>
<path d="M24.7686 8.95201L24.568 9.0312L24.5353 8.95201L24.736 8.87748L24.7686 8.95201Z" fill="#D5691C"/>
<path d="M24.7358 8.87743L24.5351 8.95196L24.5072 8.87277L24.7124 8.80756L24.7358 8.87743Z" fill="#D6691C"/>
<path d="M24.7127 8.80761L24.5074 8.87283L24.4887 8.7983L24.694 8.7424L24.7127 8.80761Z" fill="#D66A1C"/>
<path d="M24.6941 8.74233L24.4888 8.79822L24.4702 8.72835L24.6755 8.67711L24.6941 8.74233Z" fill="#D76A1C"/>
<path d="M24.6751 8.67714L24.4698 8.72838L24.4511 8.66317L24.6611 8.61658L24.6751 8.67714Z" fill="#D86A1C"/>
<path d="M24.6613 8.61659L24.4513 8.66318L24.442 8.59796L24.6519 8.5607L24.6613 8.61659Z" fill="#D96B1C"/>
<path d="M24.652 8.56071L24.442 8.59797L24.4327 8.53276L24.6427 8.50481L24.652 8.56071Z" fill="#D96B1D"/>
<path d="M24.6425 8.50482L24.4325 8.53277L24.4232 8.47687L24.6331 8.44892L24.6425 8.50482Z" fill="#DA6B1D"/>
<path d="M24.6333 8.44891L24.4234 8.4722L24.4187 8.4163L24.6286 8.39767L24.6333 8.44891Z" fill="#DB6C1D"/>
<path d="M24.6287 8.39765L24.4187 8.41628L24.4141 8.36038L24.624 8.34641L24.6287 8.39765Z" fill="#DC6C1D"/>
<path d="M24.624 8.34638L24.4141 8.36035L24.4094 8.30446L24.624 8.2998V8.34638Z" fill="#DC6C1D"/>
<path d="M24.624 8.2999L24.4094 8.30456V8.25332L24.624 8.24866V8.2999Z" fill="#DD6D1D"/>
<path d="M24.624 8.24862L24.4094 8.25328V8.20204L24.624 8.2067V8.24862Z" fill="#DE6D1D"/>
<path d="M24.624 8.20666L24.4094 8.202V8.15076L24.624 8.16008V8.20666Z" fill="#DF6E1D"/>
<path d="M24.624 8.16009L24.4094 8.15077V8.13214L24.624 8.14146V8.16009Z" fill="#E06E1E"/>
<path fill-rule="evenodd" clip-rule="evenodd" d="M129.358 27.1608H132.041V21.6828H132.087L136.366 27.1608H139.925L135.022 21.3008L139.636 16.4284H136.188L132.046 20.8769V10.2563H129.358V27.1608ZM94.1296 27.1608H91.531L86.8562 11.3324H89.9447L92.9213 22.7355H92.9679L96.5276 11.3324H99.3036L102.798 22.7355H102.845L105.956 11.3324H108.821L104.207 27.1608H101.52L97.848 15.1101H97.8013L94.1296 27.1608ZM109.488 25.8891C108.966 25.3953 108.555 24.8038 108.247 24.1097C107.944 23.4156 107.79 22.647 107.79 21.7946C107.79 20.9421 107.939 20.1736 108.247 19.4795C108.551 18.7854 108.966 18.1938 109.488 17.7001C110.011 17.2063 110.627 16.829 111.345 16.5588C112.064 16.2933 112.824 16.1582 113.631 16.1582C114.438 16.1582 115.199 16.2887 115.917 16.5588C116.631 16.829 117.252 17.2063 117.774 17.7001C118.297 18.1938 118.707 18.7854 119.015 19.4795C119.318 20.1736 119.472 20.9468 119.472 21.7946C119.472 22.647 119.323 23.4156 119.015 24.1097C118.712 24.8038 118.297 25.3953 117.774 25.8891C117.252 26.3829 116.636 26.7602 115.917 27.0303C115.199 27.2959 114.438 27.4309 113.631 27.4309C112.824 27.4309 112.064 27.3005 111.345 27.0303C110.631 26.7602 110.011 26.3829 109.488 25.8891ZM110.692 20.5881C110.832 20.2015 111.042 19.8568 111.317 19.5587C111.592 19.2606 111.924 19.023 112.315 18.8413C112.703 18.6643 113.146 18.5712 113.636 18.5712C114.126 18.5712 114.569 18.6597 114.956 18.8413C115.343 19.0183 115.675 19.2606 115.954 19.5587C116.23 19.8568 116.44 20.2015 116.58 20.5881C116.72 20.9748 116.794 21.38 116.794 21.7946C116.794 22.2138 116.724 22.6144 116.58 23.001C116.44 23.3877 116.23 23.7324 115.954 24.0305C115.679 24.3286 115.348 24.5662 114.956 24.7479C114.569 24.9249 114.126 25.018 113.636 25.018C113.146 25.018 112.703 24.9295 112.315 24.7479C111.928 24.5708 111.597 24.3286 111.317 24.0305C111.042 23.7324 110.832 23.3877 110.692 23.001C110.547 22.6144 110.477 22.2092 110.477 21.7946C110.477 21.38 110.547 20.9748 110.692 20.5881ZM124.003 27.1607H121.315V16.4284H124.003V18.1286H124.049C124.348 17.5044 124.777 17.02 125.328 16.6753C125.878 16.3352 126.513 16.1629 127.231 16.1629C127.394 16.1629 127.553 16.1815 127.712 16.2095C127.866 16.2374 128.029 16.2747 128.192 16.3212V18.9158C127.968 18.8553 127.744 18.8087 127.53 18.7714C127.31 18.7342 127.1 18.7155 126.89 18.7155C126.265 18.7155 125.757 18.832 125.379 19.0602C125.001 19.2885 124.707 19.554 124.506 19.8521C124.306 20.1502 124.171 20.4484 124.105 20.7465C124.035 21.0446 124.003 21.2682 124.003 21.4173V27.1607ZM146.532 16.5309C147.236 16.7777 147.801 17.197 148.235 17.7932L146.424 19.4049C145.902 18.6736 145.202 18.3103 144.32 18.3103C143.961 18.3103 143.611 18.4034 143.266 18.5804C142.925 18.7575 142.753 19.0509 142.753 19.4515C142.753 19.7822 142.893 20.0198 143.177 20.1689C143.457 20.3179 143.816 20.4484 144.25 20.5508C144.684 20.658 145.151 20.7651 145.65 20.8769C146.149 20.9887 146.616 21.1564 147.05 21.3893C147.479 21.6222 147.838 21.939 148.123 22.3396C148.407 22.7402 148.547 23.2945 148.547 23.9932C148.547 24.636 148.407 25.1764 148.132 25.6142C147.857 26.0521 147.497 26.4061 147.059 26.6763C146.62 26.9465 146.121 27.1375 145.571 27.2586C145.02 27.375 144.465 27.4356 143.914 27.4356C143.079 27.4356 142.309 27.3145 141.61 27.0769C140.91 26.8393 140.28 26.4061 139.729 25.7819L141.521 24.105C141.866 24.4916 142.235 24.8084 142.631 25.0553C143.028 25.3022 143.508 25.4233 144.078 25.4233C144.274 25.4233 144.474 25.4046 144.684 25.358C144.894 25.3115 145.09 25.2369 145.267 25.1345C145.449 25.032 145.594 24.9016 145.706 24.7432C145.818 24.5848 145.874 24.4031 145.874 24.1935C145.874 23.8209 145.734 23.5414 145.449 23.3644C145.169 23.1827 144.81 23.0383 144.376 22.9265C143.942 22.8147 143.476 22.7122 142.977 22.6144C142.477 22.5166 142.011 22.3582 141.577 22.1439C141.148 21.9297 140.789 21.6269 140.504 21.2402C140.219 20.849 140.079 20.3133 140.079 19.6285C140.079 19.0323 140.201 18.5152 140.448 18.0727C140.695 17.6302 141.022 17.2715 141.423 16.9874C141.829 16.7079 142.291 16.4983 142.813 16.3632C143.336 16.2281 143.868 16.1629 144.404 16.1629C145.123 16.1629 145.832 16.284 146.532 16.5309Z" fill="#C6C8D1"/>
<path fill-rule="evenodd" clip-rule="evenodd" d="M74.5113 27.1607H73.1676V25.3534H73.121C72.911 25.7121 72.6498 26.0195 72.3372 26.2803C72.0246 26.5412 71.684 26.7555 71.3201 26.9278C70.9562 27.1002 70.569 27.2259 70.1678 27.3098C69.7665 27.389 69.37 27.4309 68.9827 27.4309C68.1943 27.4309 67.4618 27.3005 66.79 27.0303C66.1182 26.7648 65.5397 26.3875 65.0638 25.903C64.5879 25.4186 64.21 24.841 63.9441 24.1795C63.6782 23.5181 63.5429 22.7914 63.5429 21.9995C63.5429 21.2076 63.6735 20.4856 63.9441 19.8195C64.2147 19.1534 64.5879 18.5804 65.0638 18.096C65.5443 17.6115 66.1182 17.2389 66.79 16.9687C67.4618 16.7032 68.1896 16.5681 68.9827 16.5681C69.37 16.5681 69.7665 16.6054 70.1678 16.6892C70.569 16.7731 70.9562 16.8988 71.3201 17.0712C71.684 17.2435 72.0246 17.4578 72.3372 17.7187C72.6498 17.9795 72.911 18.287 73.121 18.6456H73.1676V10.261H74.5113V27.1607ZM43.0944 23.7649C42.8098 24.1981 42.4832 24.5661 42.11 24.8736C41.7368 25.181 41.3449 25.4325 40.9343 25.6328C40.5237 25.8331 40.1039 25.9822 39.67 26.08C39.2361 26.1778 38.8209 26.2244 38.415 26.2244C37.3839 26.2244 36.4555 26.0474 35.625 25.6887C34.7946 25.33 34.0901 24.8409 33.5069 24.2121C32.9238 23.5832 32.4759 22.8473 32.1633 21.9995C31.8507 21.1517 31.6921 20.234 31.6921 19.2512C31.6921 18.2683 31.8507 17.3506 32.1633 16.5029C32.4759 15.6551 32.9238 14.9144 33.5069 14.2902C34.0901 13.6661 34.7946 13.1723 35.625 12.8136C36.4555 12.4549 37.3839 12.2779 38.415 12.2779C39.2221 12.2779 40.0105 12.4503 40.7757 12.7903C41.5455 13.135 42.1753 13.6754 42.6698 14.4207L43.8782 13.4145C43.1784 12.5202 42.3573 11.882 41.4242 11.5047C40.4911 11.1227 39.488 10.9364 38.4103 10.9364C37.202 10.9364 36.0916 11.146 35.0838 11.5606C34.0761 11.9798 33.213 12.5574 32.4992 13.2934C31.7807 14.0294 31.2209 14.9051 30.8196 15.9206C30.4184 16.9361 30.2131 18.0447 30.2131 19.2512C30.2131 20.4576 30.4137 21.5709 30.8196 22.5957C31.2209 23.6159 31.7807 24.4962 32.4992 25.2322C33.2177 25.9682 34.0761 26.5458 35.0838 26.9557C36.0916 27.3657 37.202 27.5706 38.4103 27.5706C39.5767 27.5706 40.659 27.347 41.6574 26.8998C42.6559 26.4527 43.5376 25.7167 44.2981 24.6872L43.0944 23.7649ZM45.9635 27.1607H47.3025V21.5244C47.3025 21.0166 47.3678 20.5462 47.5031 20.1036C47.6384 19.6658 47.8437 19.2792 48.1189 18.9531C48.3942 18.627 48.7441 18.3662 49.1733 18.1798C49.5979 17.9935 50.1017 17.9003 50.6849 17.9003C50.8482 17.9003 51.0208 17.9283 51.1981 17.9888L51.3568 16.6706L51.2728 16.6532C51.1672 16.6312 51.0646 16.6098 50.9649 16.5914C50.8389 16.5681 50.7083 16.5588 50.573 16.5588C49.7985 16.5588 49.1407 16.7544 48.6041 17.1411C48.0676 17.5277 47.6244 18.0261 47.2838 18.641C47.2558 18.5385 47.2372 18.3056 47.2278 17.9469L47.2257 17.8631L47.2257 17.8627L47.2256 17.8625C47.217 17.5299 47.2081 17.1853 47.1952 16.829H45.8515C45.8515 16.9641 45.8609 17.155 45.8749 17.3973C45.8889 17.6441 45.9029 17.9097 45.9075 18.1891C45.9169 18.4733 45.9262 18.7528 45.9402 19.0276C45.9542 19.3024 45.9635 19.54 45.9635 19.731V27.1607ZM59.0175 25.7307C59.6613 25.4046 60.1512 24.9574 60.4965 24.3891L61.4855 25.2183C60.963 26.0102 60.3192 26.5738 59.5494 26.9185C58.7796 27.2585 57.9305 27.4309 57.0067 27.4309C56.2136 27.4309 55.4998 27.3005 54.8559 27.0303C54.2168 26.7648 53.6616 26.3875 53.1997 25.903C52.7378 25.4186 52.3833 24.841 52.136 24.1795C51.8887 23.5134 51.7674 22.7821 51.7674 21.9762C51.7674 21.1983 51.8981 20.4856 52.15 19.8288C52.4019 19.172 52.7612 18.6037 53.223 18.1193C53.6849 17.6348 54.2308 17.2528 54.8559 16.978C55.4811 16.7032 56.1763 16.5634 56.9367 16.5634C57.7298 16.5634 58.425 16.7032 59.0315 16.978C59.6333 17.2528 60.1419 17.6162 60.5524 18.0727C60.963 18.5292 61.2709 19.0462 61.4809 19.6285C61.6908 20.2108 61.7934 20.7977 61.7934 21.3939V22.3349H53.1064C53.1064 22.619 53.1624 22.9824 53.2744 23.4202C53.3863 23.8581 53.5916 24.2866 53.8902 24.7059C54.1888 25.1204 54.59 25.4791 55.0892 25.7772C55.5884 26.0754 56.2322 26.2244 57.0254 26.2244C57.7112 26.2244 58.3737 26.0567 59.0175 25.7307ZM53.1066 21.1238C53.1066 20.9887 53.1672 20.7418 53.2839 20.3738C53.4052 20.0105 53.6058 19.6332 53.8904 19.2466C54.175 18.8599 54.5575 18.5152 55.0427 18.2171C55.5279 17.919 56.1344 17.7699 56.8669 17.7699C57.3615 17.7699 57.828 17.8584 58.2665 18.0401C58.7051 18.2171 59.0877 18.4593 59.4096 18.7668C59.7315 19.0742 59.9834 19.4282 60.17 19.8288C60.3567 20.2294 60.45 20.6626 60.45 21.1238H53.1066ZM72.9672 23.6392C72.7433 24.1516 72.4353 24.5988 72.0481 24.9807C71.6609 25.3627 71.2037 25.6608 70.6811 25.8844C70.1586 26.108 69.5894 26.2198 68.9783 26.2198C68.3531 26.2198 67.7839 26.108 67.2754 25.8844C66.7668 25.6608 66.333 25.3581 65.9784 24.9807C65.6191 24.5988 65.3485 24.1516 65.1619 23.6392C64.9753 23.1268 64.882 22.5771 64.882 21.9949C64.882 21.4126 64.9753 20.8676 65.1619 20.3506C65.3485 19.8382 65.6191 19.391 65.9784 19.009C66.3376 18.627 66.7715 18.3289 67.2754 18.1053C67.7839 17.8817 68.3484 17.7699 68.9783 17.7699C69.5894 17.7699 70.1586 17.8817 70.6811 18.1053C71.2037 18.3289 71.6609 18.6317 72.0481 19.009C72.4353 19.391 72.7433 19.8382 72.9672 20.3506C73.1911 20.8629 73.3031 21.4126 73.3031 21.9949C73.3031 22.5771 73.1911 23.1268 72.9672 23.6392ZM78.7243 27.1607H77.3806V16.8336H78.7243V27.1607ZM77.3339 13.4565C77.5299 13.6521 77.7678 13.7453 78.0524 13.7453C78.337 13.7453 78.5749 13.6475 78.7709 13.4565C78.9668 13.2608 79.0602 13.0233 79.0602 12.7391C79.0602 12.455 78.9622 12.2174 78.7709 12.0218C78.5749 11.8261 78.337 11.733 78.0524 11.733C77.7678 11.733 77.5299 11.8308 77.3339 12.0218C77.138 12.2174 77.0447 12.455 77.0447 12.7391C77.0447 13.0233 77.138 13.2608 77.3339 13.4565ZM83.9591 16.8337H86.9076V18.0401H83.9498V24.7711C83.9498 25.2323 84.0804 25.591 84.3323 25.8425C84.5889 26.0987 84.9388 26.2245 85.3867 26.2245C85.6433 26.2245 85.8999 26.1872 86.1612 26.122C86.4224 26.0568 86.6744 25.9683 86.9123 25.8658L87.0243 27.0723C86.7723 27.1608 86.4784 27.2446 86.1518 27.3192C85.8253 27.3937 85.5313 27.431 85.2794 27.431C84.8035 27.431 84.393 27.3564 84.0477 27.2167C83.7025 27.0769 83.4272 26.8859 83.2173 26.6484C83.0073 26.4108 82.858 26.1313 82.7601 25.8099C82.6621 25.4885 82.6154 25.1438 82.6154 24.7711V18.0401H80.376V16.8337H82.6154V13.8618H83.9591V16.8337Z" fill="#11202C"/>
<path d="M22.6785 27.1606H30.0685V26.732H27.6985V13.9734H22.6785V14.4019H25.0532V26.732H22.6785V27.1606Z" fill="#496081"/>
</g>
<path d="M27.7555 43.7616V37.993H30.2888C30.9585 37.993 31.4587 38.1867 31.7975 38.5336C32.1202 38.8644 32.3139 39.3162 32.3139 39.8487C32.3139 40.9378 31.5958 41.672 30.3856 41.672H28.9657V43.7616H27.7555ZM28.9657 39.0096V40.72H30.1759C30.789 40.72 31.1118 40.3811 31.1118 39.8567C31.1118 39.3162 30.7729 39.0096 30.192 39.0096H28.9657ZM85.5229 43.7616V37.993H88.0562C88.7259 37.993 89.2261 38.1867 89.5649 38.5336C89.8876 38.8644 90.0813 39.3162 90.0813 39.8487C90.0813 40.9378 89.3632 41.672 88.153 41.672H86.7331V43.7616H85.5229ZM86.7331 39.0096V40.72H87.9433C88.5564 40.72 88.8791 40.3811 88.8791 39.8567C88.8791 39.3162 88.5403 39.0096 87.9594 39.0096H86.7331Z" fill="#EA731F"/>
<path d="M34.8508 43.7616V37.993H37.4971C38.6105 37.993 39.3527 38.6385 39.3527 39.5985C39.3527 40.2763 39.0381 40.7926 38.2958 40.9943V41.0185C38.8283 41.1718 39.1026 41.4784 39.1752 42.1803C39.2559 42.9951 39.2236 43.6164 39.4253 43.7051V43.7616H38.3039C38.1587 43.6971 38.1425 43.0516 38.0941 42.4304C38.0457 41.8011 37.6907 41.4461 36.9646 41.4461H36.0207V43.7616H34.8508ZM36.0207 38.937V40.5425H37.2631C37.9005 40.5425 38.2151 40.2117 38.2151 39.7518C38.2151 39.2839 37.9166 38.937 37.2954 38.937H36.0207ZM44.5976 43.8907C42.8953 43.8907 41.8142 42.616 41.8142 40.8894C41.8142 39.1629 42.8953 37.8801 44.5976 37.8801C46.3 37.8801 47.373 39.1629 47.373 40.8894C47.373 42.616 46.3 43.8907 44.5976 43.8907ZM44.6057 42.9306C45.6626 42.9306 46.1789 42.0351 46.1789 40.8894C46.1789 39.7357 45.6626 38.8402 44.6057 38.8402C43.5488 38.8402 43.0082 39.7357 43.0082 40.8894C43.0082 42.0351 43.5488 42.9306 44.6057 42.9306ZM51.2042 43.7616L49.2599 37.993H50.4862L51.5028 41.3332C51.6157 41.7123 51.7529 42.2529 51.7529 42.2529H51.769C51.769 42.2529 51.9062 41.7043 52.0191 41.3332L53.0276 37.993H54.2136L52.2692 43.7616H51.2042ZM56.6411 43.7616V37.993H57.811V43.7616H56.6411ZM60.6635 43.7616V37.993H62.9145C64.4554 37.993 65.4478 39.2355 65.4478 40.9378C65.4478 41.8737 65.1331 42.6966 64.5281 43.2049C64.1005 43.5599 63.5438 43.7616 62.8177 43.7616H60.6635ZM61.8334 42.7531H62.737C63.8342 42.7531 64.2618 42.0835 64.2618 40.9378C64.2618 39.7922 63.7616 38.9935 62.7692 38.9935H61.8334V42.7531ZM68.0425 43.7616V37.993H72.2862V38.9773H69.2123V40.2682H71.907V41.2283H69.2123V42.7854H72.3104V43.7616H68.0425ZM74.9959 43.7616V37.993H77.6422C78.7556 37.993 79.4978 38.6385 79.4978 39.5985C79.4978 40.2763 79.1832 40.7926 78.4409 40.9943V41.0185C78.9734 41.1718 79.2477 41.4784 79.3204 42.1803C79.401 42.9951 79.3688 43.6164 79.5705 43.7051V43.7616H78.449C78.3038 43.6971 78.2877 43.0516 78.2392 42.4304C78.1908 41.8011 77.8359 41.4461 77.1097 41.4461H76.1658V43.7616H74.9959ZM76.1658 38.937V40.5425H77.4083C78.0456 40.5425 78.3603 40.2117 78.3603 39.7518C78.3603 39.2839 78.0618 38.937 77.4405 38.937H76.1658ZM95.2303 43.8907C93.528 43.8907 92.4469 42.616 92.4469 40.8894C92.4469 39.1629 93.528 37.8801 95.2303 37.8801C96.9326 37.8801 98.0057 39.1629 98.0057 40.8894C98.0057 42.616 96.9326 43.8907 95.2303 43.8907ZM95.2384 42.9306C96.2953 42.9306 96.8116 42.0351 96.8116 40.8894C96.8116 39.7357 96.2953 38.8402 95.2384 38.8402C94.1815 38.8402 93.6409 39.7357 93.6409 40.8894C93.6409 42.0351 94.1815 42.9306 95.2384 42.9306ZM100.604 43.7616V37.993H103.25C104.363 37.993 105.106 38.6385 105.106 39.5985C105.106 40.2763 104.791 40.7926 104.049 40.9943V41.0185C104.581 41.1718 104.856 41.4784 104.928 42.1803C105.009 42.9951 104.977 43.6164 105.178 43.7051V43.7616H104.057C103.912 43.6971 103.896 43.0516 103.847 42.4304C103.799 41.8011 103.444 41.4461 102.718 41.4461H101.774V43.7616H100.604ZM101.774 38.937V40.5425H103.016C103.653 40.5425 103.968 40.2117 103.968 39.7518C103.968 39.2839 103.67 38.937 103.048 38.937H101.774ZM107.44 38.9773V37.993H112.079V38.9773H110.344V43.7616H109.175V38.9773H107.44ZM113.485 43.7616L115.493 37.993H116.704L118.737 43.7616H117.519L117.131 42.5353H115.05L114.671 43.7616H113.485ZM115.84 39.9777L115.324 41.6397H116.849L116.333 39.9777C116.236 39.6712 116.099 39.0903 116.099 39.0903H116.082C116.082 39.0903 115.937 39.6712 115.84 39.9777ZM121.181 43.7616V37.993H122.35V42.7854H125.061V43.7616H121.181Z" fill="#757575"/>
<rect x="129.206" y="36.097" width="15.1982" height="8.98075" rx="4.49038" fill="#EA731F" stroke="#EA731F" stroke-width="0.690827"/>
<path d="M133.691 43.2646C132.407 43.2646 131.747 42.5537 131.732 41.4657H132.675C132.711 42.0605 132.972 42.4739 133.654 42.4739C134.206 42.4739 134.532 42.1765 134.532 41.6688C134.532 41.19 134.227 40.8999 133.618 40.8999H133.313V40.1527H133.596C134.068 40.1527 134.401 39.9134 134.401 39.4926C134.401 39.101 134.133 38.8398 133.698 38.8398C133.132 38.8398 132.856 39.2098 132.835 39.7248H131.892C131.928 38.7455 132.545 38.0854 133.698 38.0854C134.735 38.0854 135.402 38.6004 135.402 39.4274C135.402 39.9859 135.047 40.3123 134.554 40.4719V40.4864C135.185 40.6387 135.562 41.0449 135.562 41.734C135.562 42.7641 134.713 43.2646 133.691 43.2646ZM136 43.1558V42.104H137.059V43.1558H136ZM139.469 43.2718C138.2 43.2718 137.395 42.2563 137.395 40.675C137.395 39.0864 138.214 38.0782 139.476 38.0782C140.76 38.0782 141.544 39.0792 141.544 40.675C141.544 42.2563 140.76 43.2718 139.469 43.2718ZM139.476 42.4304C140.216 42.4304 140.514 41.7413 140.514 40.675C140.514 39.6232 140.209 38.9196 139.476 38.9196C138.736 38.9196 138.425 39.616 138.425 40.675C138.425 41.7268 138.736 42.4304 139.476 42.4304Z" fill="white"/>
<path d="M23.1667 32.1309H149.026" stroke="#D6D6D6" stroke-width="0.806792" stroke-linecap="square"/>
</g>
<defs>
<clipPath id="clip0_2_12612">
<rect width="129.087" height="39.5328" fill="white" transform="translate(21.3152 5.91016)"/>
</clipPath>
</defs>
</svg>
