<svg width="100%" height="269.1" viewBox="0 0 424 269.1" fill="none" xmlns="http://www.w3.org/2000/svg">
<circle cx="211" cy="97" r="202" fill="#F3F4F4"/>
<path fill-rule="evenodd" clip-rule="evenodd" d="M245.439 71.129C245.439 63.9843 249.729 58.4332 256.979 58.4332C262.661 58.4332 266.102 61.6991 266.75 66.1908H263.755C263.178 63.1613 260.761 61.0862 256.917 61.0862C251.576 61.0862 248.573 65.4115 248.573 71.129C248.573 76.8464 251.874 81.1017 256.944 81.1017C261.54 81.1017 263.72 77.9671 264.027 74.3948H267.056C267.021 76.8114 265.866 79.5344 264.132 81.233C262.433 82.8966 259.947 83.7897 256.847 83.7897C249.939 83.7897 245.447 78.51 245.447 71.129H245.439ZM181.846 58.4333C174.491 58.4333 169.929 63.8443 169.929 71.129C169.929 78.4137 174.491 83.8247 181.846 83.8247C189.201 83.8247 193.762 78.4137 193.762 71.129C193.762 63.8443 189.201 58.4333 181.846 58.4333ZM181.846 61.0862C187.563 61.0862 190.628 65.4115 190.628 71.129C190.628 76.8465 187.563 81.1367 181.846 81.1367C176.128 81.1367 173.064 76.8465 173.064 71.129C173.064 65.4115 176.128 61.0862 181.846 61.0862ZM143.373 58.9764H124.11V61.6644H132.209V83.3172H135.274V61.6644H143.373V58.9764ZM100.96 58.9764H104.191L115.293 75.8924C116.107 77.1532 117.062 79.0269 117.062 79.0269H117.132V58.9764H119.995V83.3172H116.86L105.697 66.3662C104.918 65.1754 103.893 63.3367 103.893 63.3367H103.823V83.3172H100.96V58.9764ZM92.1802 58.9764H95.2447V83.3172H92.1802V58.9764ZM147.497 58.9764H158.87C163.16 58.9764 166.05 61.6644 166.05 65.6482C166.05 68.6077 164.754 70.7178 161.83 71.6721V71.7772C164.316 72.6615 165.095 74.3689 165.332 77.9762C165.603 81.89 166.015 82.8794 166.453 83.1859V83.3259H163.152C162.644 82.8794 162.539 81.9601 162.267 77.8799C162.031 74.3076 160.604 73.0468 157.329 73.0468H150.552V83.3259H147.488V58.9764H147.497ZM150.561 70.5514H157.776C161.182 70.5514 162.88 68.8528 162.88 66.0948C162.88 63.1354 161.514 61.6381 157.942 61.6381H150.552V70.5602L150.561 70.5514ZM198.49 58.9764H207.342C214.661 58.9764 218.137 63.9496 218.137 71.2344C218.137 78.5191 214.425 83.3172 207.105 83.3172H198.49V58.9764ZM207 80.6292C212.718 80.6292 215.003 76.9518 215.003 71.2344C215.003 65.5169 212.963 61.6381 207.245 61.6381H201.563V80.6292H207ZM222.454 58.9764V75.4546H222.463C222.463 81.3472 226.578 83.6937 231.788 83.6937C236.998 83.6937 241.113 81.3472 241.113 75.4546V58.9764H238.048V75.1482C238.048 79.3071 235.903 81.0757 231.884 81.0757C227.865 81.0757 225.519 79.2983 225.519 75.1482V58.9764H222.454ZM274.708 58.9764H271.644V83.3172H274.708V58.9764ZM280.427 58.9764H283.658L294.76 75.8924C295.575 77.1532 296.529 79.0269 296.529 79.0269H296.599V58.9764H299.462V83.3172H296.328L285.164 66.3662C284.385 65.1754 283.36 63.3368 283.36 63.3368H283.29V83.3172H280.427V58.9764ZM323.216 80.1214H323.286L323.277 80.1302L324.162 83.326H326.14V70.4552H315.756V73.1081H323.076V73.686C323.076 77.7662 320.659 81.1721 315.721 81.1721C310.783 81.1721 307.316 76.9519 307.316 71.2344C307.316 65.517 309.969 61.1216 315.826 61.1216C319.679 61.1216 321.955 63.0654 322.638 66.2962H325.808C325.028 61.5331 321.561 58.4686 315.905 58.4686C308.244 58.4686 304.19 63.8446 304.19 71.2344C304.19 78.6242 308.787 83.8338 315.625 83.8338C318.821 83.8338 321.447 82.608 323.216 80.1214Z" fill="#3D3D3D"/>
<g clip-path="url(#clip0_119_1660)">
<mask id="mask0_119_1660" style="mask-type:luminance" maskUnits="userSpaceOnUse" x="51" y="99" width="323" height="56">
<rect x="51.4255" y="99.056" width="321.782" height="55.0642" fill="white"/>
</mask>
<g mask="url(#mask0_119_1660)">
<path d="M59.1333 104.59L58.8196 104.637C58.8312 104.498 58.8428 104.358 58.8544 104.231C58.9707 103.337 59.3193 102.548 59.8074 101.899L60.1211 101.852C59.6214 102.502 59.2844 103.291 59.1566 104.184C59.1566 104.312 59.145 104.451 59.1333 104.59Z" fill="#A6510E"/>
<path d="M60.1325 101.841L59.8187 101.887C59.9582 101.701 60.1209 101.527 60.2952 101.365L60.609 101.319C60.4347 101.469 60.2836 101.655 60.1325 101.841Z" fill="#A6510E"/>
<path d="M60.6087 101.307L60.2949 101.353C60.4344 101.226 60.5854 101.098 60.7365 100.982L61.0503 100.936C60.8992 101.052 60.7481 101.179 60.6087 101.307Z" fill="#A7510E"/>
<path d="M61.0508 100.936L60.7371 100.982C60.8765 100.878 61.0276 100.785 61.1787 100.692L61.4924 100.646C61.3413 100.738 61.1903 100.831 61.0508 100.936Z" fill="#A8520F"/>
<path d="M61.4928 100.646L61.179 100.692C61.3301 100.611 61.4811 100.53 61.6322 100.46L61.946 100.414C61.7833 100.495 61.6322 100.564 61.4928 100.646Z" fill="#A9520F"/>
<path d="M61.9457 100.425L61.632 100.472C61.7831 100.402 61.9457 100.344 62.1084 100.298L62.4222 100.251C62.2595 100.298 62.0968 100.356 61.9457 100.425Z" fill="#A9530F"/>
<path d="M62.4216 100.24L62.1078 100.286C62.2821 100.228 62.4564 100.193 62.6424 100.158L62.9561 100.112C62.7702 100.147 62.5959 100.193 62.4216 100.24Z" fill="#AA5310"/>
<path d="M62.9564 100.124L62.6426 100.17L62.6891 100.158L63.0029 100.112L62.9564 100.124Z" fill="#AB5310"/>
<path d="M64.5483 109.754L64.2346 109.8C63.7813 109.87 63.3049 109.881 62.8168 109.8C60.4113 109.406 58.6914 107.143 58.8192 104.637L59.1329 104.59C59.0051 107.085 60.7134 109.359 63.1306 109.754C63.6186 109.823 64.0951 109.823 64.5483 109.754Z" fill="#A6510E"/>
<path d="M59.6673 104.614C59.6789 104.486 59.7021 104.358 59.7021 104.242C60.0159 101.852 62.1425 100.216 64.4202 100.588C66.5934 100.947 68.139 102.989 68.0227 105.24C68.0111 105.368 67.9879 105.496 67.9879 105.612C67.6625 108.002 65.5475 109.649 63.2698 109.266C61.0967 108.907 59.5511 106.865 59.6673 104.614Z" fill="#E7711F"/>
<path d="M59.6679 104.614L59.1333 104.591L59.145 104.556L59.6679 104.579V104.614Z" fill="#E06E1E"/>
<path d="M59.668 104.579L59.1451 104.556V104.498L59.6796 104.533L59.668 104.579Z" fill="#E06E1E"/>
<path d="M59.6796 104.533L59.1451 104.498V104.428L59.6796 104.463V104.533Z" fill="#E16F1E"/>
<path d="M59.6797 104.463L59.1452 104.428L59.1684 104.231L59.703 104.289L59.6797 104.463Z" fill="#E26F1E"/>
<path d="M59.7023 104.289L59.1678 104.231L59.1794 104.185L59.7023 104.243V104.289Z" fill="#E16F1E"/>
<path d="M59.7024 104.242L59.1794 104.184V104.173V104.161L59.7024 104.231V104.242Z" fill="#E26F1E"/>
<path d="M59.7024 104.231L59.1795 104.161L59.1911 104.057L59.7141 104.126L59.7024 104.231Z" fill="#E36F1E"/>
<path d="M59.7142 104.126L59.1913 104.057L59.2145 103.941L59.7374 104.034L59.7142 104.126Z" fill="#E3701E"/>
<path d="M59.7378 104.034L59.2149 103.941L59.2381 103.836L59.7495 103.929L59.7378 104.034Z" fill="#E4701E"/>
<path d="M59.7489 103.929L59.2376 103.836L59.2608 103.732L59.7722 103.836L59.7489 103.929Z" fill="#E5701E"/>
<path d="M59.7724 103.836L59.261 103.732L59.2843 103.628L59.7956 103.744L59.7724 103.836Z" fill="#E6711E"/>
<path d="M59.7958 103.743L59.2845 103.627L59.3077 103.523L59.819 103.651L59.7958 103.743Z" fill="#E6711F"/>
<path d="M59.8185 103.651L59.3072 103.523L59.3304 103.419L59.8417 103.558L59.8185 103.651Z" fill="#E7711F"/>
<path d="M59.8422 103.558L59.3309 103.419L59.3658 103.326L59.8771 103.477L59.8422 103.558Z" fill="#E8721F"/>
<path d="M59.8773 103.477L59.366 103.326L59.4009 103.233L59.9006 103.384L59.8773 103.477Z" fill="#E9721F"/>
<path d="M59.9001 103.384L59.4004 103.233L59.4237 103.14L59.935 103.303L59.9001 103.384Z" fill="#E9721F"/>
<path d="M59.9354 103.302L59.4241 103.14L59.459 103.047L59.9587 103.221L59.9354 103.302Z" fill="#EA731F"/>
<path d="M59.9582 103.222L59.4585 103.048L59.505 102.943L59.9931 103.129L59.9582 103.222Z" fill="#EB731F"/>
<path d="M59.9934 103.128L59.5054 102.954L59.5402 102.862L60.0283 103.047L59.9934 103.128Z" fill="#EC741F"/>
<path d="M60.0279 103.047L59.5398 102.862L59.5863 102.769L60.0627 102.966L60.0279 103.047Z" fill="#ED7420"/>
<path d="M60.0626 102.966L59.5862 102.769L59.621 102.676L60.1091 102.885L60.0626 102.966Z" fill="#EE7420"/>
<path d="M60.1094 102.885L59.6213 102.676L59.6678 102.583L60.1443 102.804L60.1094 102.885Z" fill="#EF7520"/>
<path d="M60.1442 102.804L59.6677 102.583L59.7142 102.49L60.1907 102.722L60.1442 102.804Z" fill="#F07520"/>
<path d="M60.1911 102.723L59.7146 102.491L59.7727 102.398L60.2375 102.641L60.1911 102.723Z" fill="#F17620"/>
<path d="M60.2374 102.641L59.761 102.398L59.8191 102.305L60.2839 102.56L60.2374 102.641Z" fill="#F27720"/>
<path d="M60.2836 102.56L59.8188 102.305L59.8769 102.212L60.3301 102.467L60.2836 102.56Z" fill="#F47721"/>
<path d="M60.3299 102.467L59.8767 102.212L59.9348 102.119L60.388 102.386L60.3299 102.467Z" fill="#F57F2B"/>
<path d="M60.3887 102.386L59.9354 102.119L59.9936 102.038L60.4351 102.305L60.3887 102.386Z" fill="#F58230"/>
<path d="M60.4352 102.305L59.9936 102.038L60.0633 101.934L60.5049 102.224L60.4352 102.305Z" fill="#F58433"/>
<path d="M60.5047 102.224L60.0631 101.934L60.1329 101.841L60.5628 102.142L60.5047 102.224Z" fill="#F68636"/>
<path d="M60.5629 102.142L60.133 101.841L60.2027 101.748L60.6327 102.049L60.5629 102.142Z" fill="#F68839"/>
<path d="M60.6328 102.05L60.2028 101.748L60.2958 101.643L60.7142 101.957L60.6328 102.05Z" fill="#F6893C"/>
<path d="M60.7134 101.957L60.2951 101.643L60.388 101.539L60.7948 101.864L60.7134 101.957Z" fill="#F68B3E"/>
<path d="M60.795 101.864L60.3883 101.539L60.4812 101.435L60.8764 101.771L60.795 101.864Z" fill="#F68C41"/>
<path d="M60.8767 101.771L60.4816 101.435L60.5978 101.319L60.9813 101.667L60.8767 101.771Z" fill="#F68D43"/>
<path d="M60.981 101.667L60.5975 101.319L60.7137 101.214L61.0856 101.574L60.981 101.667Z" fill="#F78F45"/>
<path d="M61.0854 101.574L60.7136 101.214L60.8646 101.075L61.2249 101.446L61.0854 101.574Z" fill="#F79047"/>
<path d="M61.2252 101.446L60.865 101.075L61.0509 100.936L61.3879 101.319L61.2252 101.446Z" fill="#F79149"/>
<path d="M61.3876 101.319L61.0506 100.936L61.2831 100.773L61.5968 101.179L61.3876 101.319Z" fill="#F7924B"/>
<path d="M61.5971 101.179L61.2833 100.773C61.446 100.669 61.6204 100.564 61.8063 100.483L62.0736 100.913C61.9109 100.994 61.7482 101.075 61.5971 101.179Z" fill="#F7934D"/>
<path d="M62.0731 100.912L61.8059 100.483C61.9453 100.425 62.0731 100.367 62.2126 100.309L62.4334 100.75C62.3172 100.808 62.1893 100.854 62.0731 100.912Z" fill="#F7944E"/>
<path d="M62.4449 100.762L62.2241 100.321C62.4101 100.251 62.6076 100.193 62.8052 100.158L62.9795 100.622C62.7819 100.646 62.6076 100.692 62.4449 100.762Z" fill="#F7934D"/>
<path d="M62.9685 100.611L62.8059 100.147C62.9337 100.123 63.0615 100.1 63.1893 100.089L63.3172 100.553C63.201 100.564 63.0848 100.588 62.9685 100.611Z" fill="#F7924B"/>
<path d="M63.3171 100.553L63.1893 100.089C63.2939 100.077 63.3985 100.065 63.5147 100.065L63.6193 100.53L63.3171 100.553Z" fill="#F79149"/>
<path d="M63.5959 100.53L63.503 100.054H63.7935L63.8632 100.53H63.5959Z" fill="#F79047"/>
<path d="M63.8633 100.53L63.7936 100.054L64.0841 100.065L64.119 100.541L63.8633 100.53Z" fill="#F78F45"/>
<path d="M64.1188 100.541L64.084 100.065L64.3513 100.1L64.3745 100.564L64.1188 100.541Z" fill="#F68D43"/>
<path d="M64.3746 100.564L64.3513 100.1L64.421 100.112L64.6418 100.158L64.6186 100.611L64.421 100.576L64.3746 100.564Z" fill="#F68C41"/>
<path d="M64.6185 100.611L64.6417 100.158L64.9206 100.228L64.8741 100.68L64.6185 100.611Z" fill="#F68B3E"/>
<path d="M64.8739 100.68L64.9204 100.228L65.1876 100.309L65.1179 100.762L64.8739 100.68Z" fill="#F6893C"/>
<path d="M65.1179 100.762L65.1876 100.309L65.4665 100.425L65.3736 100.855L65.1179 100.762Z" fill="#F68839"/>
<path d="M65.3733 100.854L65.4663 100.425L65.7336 100.541L65.6174 100.97L65.3733 100.854Z" fill="#F68636"/>
<path d="M65.6181 100.97L65.7343 100.541L66.0016 100.692L65.8505 101.098L65.6181 100.97Z" fill="#F58433"/>
<path d="M65.8501 101.098L66.0012 100.692L66.2685 100.854L66.0942 101.249L65.8501 101.098Z" fill="#F58230"/>
<path d="M66.0945 101.249L66.2688 100.855L66.5129 101.04L66.3153 101.411L66.0945 101.249Z" fill="#F57F2B"/>
<path d="M66.3148 101.411L66.5123 101.04L66.7448 101.237L66.524 101.585L66.3148 101.411Z" fill="#F47721"/>
<path d="M66.5241 101.585L66.7449 101.237L66.9657 101.446L66.7216 101.771L66.5241 101.585Z" fill="#F27720"/>
<path d="M66.7216 101.771L66.9656 101.446L67.1632 101.655L66.8959 101.968L66.7216 101.771Z" fill="#F17620"/>
<path d="M66.8964 101.968L67.1637 101.655L67.3497 101.887L67.0707 102.177L66.8964 101.968Z" fill="#F07520"/>
<path d="M67.0702 102.177L67.3491 101.887L67.5118 102.107L67.2213 102.374L67.0702 102.177Z" fill="#EF7520"/>
<path d="M67.2216 102.374L67.5121 102.108L67.6632 102.34L67.3494 102.583L67.2216 102.374Z" fill="#EE7420"/>
<path d="M67.3493 102.583L67.6631 102.34L67.8025 102.572L67.4771 102.792L67.3493 102.583Z" fill="#ED7420"/>
<path d="M67.4769 102.792L67.8023 102.572L67.9185 102.804L67.5815 103.001L67.4769 102.792Z" fill="#EC741F"/>
<path d="M67.5819 103.001L67.9189 102.804L68.0235 103.024L67.6749 103.198L67.5819 103.001Z" fill="#EB731F"/>
<path d="M67.6751 103.198L68.0238 103.024L68.1051 103.256L67.7565 103.407L67.6751 103.198Z" fill="#EA731F"/>
<path d="M67.7557 103.407L68.1043 103.256L68.1857 103.477L67.8254 103.616L67.7557 103.407Z" fill="#E9721F"/>
<path d="M67.8255 103.616L68.1858 103.477L68.2555 103.697L67.8836 103.813L67.8255 103.616Z" fill="#E9721F"/>
<path d="M67.8843 103.813L68.2562 103.697L68.3027 103.929L67.9308 104.01L67.8843 103.813Z" fill="#E8721F"/>
<path d="M67.9305 104.01L68.3023 103.929L68.3488 104.15L67.9653 104.208L67.9305 104.01Z" fill="#E7711F"/>
<path d="M67.9649 104.208L68.3484 104.15L68.3832 104.37L67.9998 104.405L67.9649 104.208Z" fill="#E6711F"/>
<path d="M68.0002 104.405L68.3837 104.359L68.407 104.579L68.0119 104.602L68.0002 104.405Z" fill="#E6711E"/>
<path d="M68.012 104.602L68.4071 104.579L68.4187 104.799H68.0236L68.012 104.602Z" fill="#E5701E"/>
<path d="M68.0236 104.8H68.4187V105.02L68.0352 104.997L68.0236 104.8Z" fill="#E4701E"/>
<path d="M68.0352 104.997L68.4187 105.02V105.229L68.0236 105.194L68.0352 104.997Z" fill="#E3701E"/>
<path d="M68.0236 105.194L68.4187 105.229L68.4071 105.275V105.391L68.012 105.333L68.0236 105.229V105.194Z" fill="#E36F1E"/>
<path d="M68.0118 105.333L68.4069 105.391L68.3721 105.681L67.9886 105.6L68.0118 105.333Z" fill="#E26F1E"/>
<path d="M67.9882 105.6L68.3717 105.681L67.9882 105.6Z" fill="#E36F1E"/>
<path d="M67.9881 105.6L68.3716 105.681L68.3484 105.82L67.9765 105.716L67.9881 105.6Z" fill="#E26F1E"/>
<path d="M67.977 105.716L68.3489 105.82L68.3373 105.948L67.9538 105.844L67.977 105.716Z" fill="#E16F1E"/>
<path d="M67.9537 105.844L68.3372 105.948L68.3023 106.087L67.9304 105.96L67.9537 105.844Z" fill="#E06E1E"/>
<path d="M67.9308 105.96L68.3027 106.087L68.2562 106.296L67.8843 106.145L67.9308 105.96Z" fill="#E06E1E"/>
<path d="M67.8837 106.145L68.2556 106.296L68.1975 106.493L67.8372 106.331L67.8837 106.145Z" fill="#DF6E1D"/>
<path d="M67.8255 106.331L68.1974 106.493L68.1277 106.702L67.7674 106.517L67.8255 106.331Z" fill="#DE6D1D"/>
<path d="M67.7676 106.517L68.1278 106.702L68.0581 106.9L67.6978 106.691L67.7676 106.517Z" fill="#DD6D1D"/>
<path d="M67.6977 106.691L68.058 106.9L67.965 107.097L67.628 106.876L67.6977 106.691Z" fill="#DC6C1D"/>
<path d="M67.6287 106.876L67.9657 107.097L67.8727 107.294L67.5357 107.05L67.6287 106.876Z" fill="#DC6C1D"/>
<path d="M67.5354 107.05L67.8725 107.294L67.7679 107.491L67.4425 107.224L67.5354 107.05Z" fill="#DB6C1D"/>
<path d="M67.4418 107.224L67.7672 107.491L67.651 107.677L67.3373 107.398L67.4418 107.224Z" fill="#DA6B1D"/>
<path d="M67.3377 107.398L67.6515 107.677L67.5237 107.874L67.2215 107.572L67.3377 107.398Z" fill="#D96B1D"/>
<path d="M67.2215 107.572L67.5236 107.874L67.3842 108.06L67.1053 107.735L67.2215 107.572Z" fill="#D96B1C"/>
<path d="M67.1053 107.735L67.3842 108.06L67.2331 108.245L66.9659 107.897L67.1053 107.735Z" fill="#D86A1C"/>
<path d="M66.9658 107.897L67.2331 108.245L67.0704 108.419L66.8147 108.071L66.9658 107.897Z" fill="#D76A1C"/>
<path d="M66.8144 108.071L67.07 108.419L66.8841 108.605L66.6517 108.222L66.8144 108.071Z" fill="#D66A1C"/>
<path d="M66.6518 108.222L66.8842 108.605L66.6867 108.779L66.4659 108.385L66.6518 108.222Z" fill="#D6691C"/>
<path d="M66.4662 108.385L66.687 108.779L66.4662 108.942L66.2803 108.536L66.4662 108.385Z" fill="#D5691C"/>
<path d="M66.2801 108.536L66.4661 108.942L66.2336 109.104L66.0593 108.686L66.2801 108.536Z" fill="#D4681C"/>
<path d="M66.0598 108.686L66.2341 109.104L65.9668 109.266L65.8274 108.826L66.0598 108.686Z" fill="#D3681B"/>
<path d="M65.8266 108.826L65.9661 109.266L65.6755 109.406L65.5593 108.953L65.8266 108.826Z" fill="#D3681B"/>
<path d="M65.5601 108.953L65.6763 109.406C65.5717 109.452 65.4555 109.499 65.3509 109.545L65.2695 109.081L65.5601 108.953Z" fill="#D2671B"/>
<path d="M65.2687 109.081L65.35 109.545C65.2222 109.591 65.106 109.626 64.9782 109.661L64.9317 109.185C65.0363 109.15 65.1525 109.116 65.2687 109.081Z" fill="#D1671B"/>
<path d="M64.9321 109.185L64.9786 109.661C64.8275 109.696 64.6764 109.731 64.5253 109.754V109.266C64.6532 109.243 64.7926 109.22 64.9321 109.185Z" fill="#D1671B"/>
<path d="M64.5257 109.267V109.754C64.3397 109.789 64.1538 109.8 63.9562 109.8L64.0144 109.313C64.1887 109.313 64.3514 109.29 64.5257 109.267Z" fill="#D0661B"/>
<path d="M64.0141 109.313L63.956 109.8C63.6887 109.812 63.4098 109.789 63.1309 109.742L63.0147 109.719L63.1658 109.232L63.2704 109.243C63.5144 109.301 63.7701 109.313 64.0141 109.313Z" fill="#CF661A"/>
<path d="M63.1658 109.243L63.0147 109.731C62.5498 109.638 62.1199 109.487 61.7131 109.266L61.992 108.826C62.3639 109.023 62.7474 109.162 63.1658 109.243Z" fill="#CE651A"/>
<path d="M62.0039 108.826L61.725 109.267C61.4578 109.127 61.2021 108.953 60.9697 108.768L61.3183 108.373C61.5275 108.547 61.7599 108.698 62.0039 108.826Z" fill="#CF661A"/>
<path d="M61.3183 108.373L60.9697 108.768C60.8303 108.652 60.6908 108.524 60.563 108.396L60.9465 108.048C61.0743 108.164 61.1905 108.269 61.3183 108.373Z" fill="#D0661B"/>
<path d="M60.9576 108.048L60.5741 108.396C60.4695 108.292 60.3766 108.188 60.2836 108.071L60.7019 107.747L60.9576 108.048Z" fill="#D1671B"/>
<path d="M60.7024 107.758L60.284 108.083L60.0632 107.793L60.5048 107.491L60.7024 107.758Z" fill="#D1671B"/>
<path d="M60.5042 107.491L60.0626 107.793L59.8883 107.526L60.3415 107.259L60.5042 107.491Z" fill="#D2671B"/>
<path d="M60.3422 107.259L59.889 107.526L59.7496 107.283L60.2144 107.039L60.3422 107.259Z" fill="#D3681B"/>
<path d="M60.2136 107.039L59.7487 107.282L59.6209 107.05L60.109 106.83L60.2136 107.039Z" fill="#D3681B"/>
<path d="M60.1096 106.83L59.6215 107.05L59.5286 106.83L60.0283 106.633L60.1096 106.83Z" fill="#D4681C"/>
<path d="M60.0281 106.633L59.5284 106.83L59.447 106.633L59.9467 106.447L60.0281 106.633Z" fill="#D5691C"/>
<path d="M59.9466 106.447L59.4469 106.633L59.3771 106.435L59.8885 106.273L59.9466 106.447Z" fill="#D6691C"/>
<path d="M59.8888 106.273L59.3774 106.435L59.331 106.25L59.8423 106.111L59.8888 106.273Z" fill="#D66A1C"/>
<path d="M59.8426 106.11L59.3313 106.25L59.2848 106.076L59.7961 105.948L59.8426 106.11Z" fill="#D76A1C"/>
<path d="M59.7955 105.948L59.2842 106.076L59.2377 105.913L59.7606 105.797L59.7955 105.948Z" fill="#D86A1C"/>
<path d="M59.7611 105.797L59.2382 105.913L59.2149 105.751L59.7379 105.658L59.7611 105.797Z" fill="#D96B1C"/>
<path d="M59.7374 105.658L59.2145 105.751L59.1913 105.588L59.7142 105.519L59.7374 105.658Z" fill="#D96B1D"/>
<path d="M59.714 105.519L59.1911 105.588L59.1678 105.449L59.6908 105.38L59.714 105.519Z" fill="#DA6B1D"/>
<path d="M59.6913 105.38L59.1684 105.438L59.1568 105.298L59.6797 105.252L59.6913 105.38Z" fill="#DB6C1D"/>
<path d="M59.6796 105.252L59.1567 105.298L59.1451 105.159L59.668 105.124L59.6796 105.252Z" fill="#DC6C1D"/>
<path d="M59.6679 105.124L59.145 105.159L59.1333 105.02L59.6679 105.008V105.124Z" fill="#DC6C1D"/>
<path d="M59.6679 105.008L59.1333 105.02V104.892L59.6679 104.881V105.008Z" fill="#DD6D1D"/>
<path d="M59.6679 104.881L59.1333 104.892V104.765L59.6679 104.776V104.881Z" fill="#DE6D1D"/>
<path d="M59.6679 104.776L59.1333 104.765V104.637L59.6679 104.66V104.776Z" fill="#DF6E1D"/>
<path d="M59.6679 104.66L59.1333 104.637V104.59L59.6679 104.614V104.66Z" fill="#E06E1E"/>
<path fill-rule="evenodd" clip-rule="evenodd" d="M320.546 151.988H327.229V138.343H327.345L338.001 151.988H346.868L334.654 137.392L346.147 125.255H337.56L327.24 136.336V109.881H320.546V151.988ZM232.797 151.988H226.324L214.68 112.562H222.373L229.787 140.965H229.903L238.77 112.562H245.684L254.389 140.965H254.505L262.256 112.562H269.391L257.898 151.988H251.204L242.059 121.972H241.942L232.797 151.988ZM271.053 148.821C269.752 147.591 268.729 146.117 267.962 144.388C267.207 142.659 266.823 140.745 266.823 138.622C266.823 136.498 267.195 134.584 267.962 132.855C268.718 131.126 269.752 129.653 271.053 128.423C272.355 127.193 273.889 126.253 275.679 125.58C277.468 124.919 279.362 124.582 281.373 124.582C283.383 124.582 285.277 124.907 287.067 125.58C288.845 126.253 290.391 127.193 291.692 128.423C292.994 129.653 294.016 131.126 294.783 132.855C295.539 134.584 295.922 136.51 295.922 138.622C295.922 140.745 295.55 142.659 294.783 144.388C294.028 146.117 292.994 147.591 291.692 148.821C290.391 150.05 288.857 150.99 287.067 151.663C285.277 152.325 283.383 152.661 281.373 152.661C279.362 152.661 277.468 152.336 275.679 151.663C273.901 150.99 272.355 150.05 271.053 148.821ZM274.051 135.617C274.4 134.654 274.923 133.795 275.608 133.052C276.294 132.31 277.119 131.718 278.095 131.265C279.06 130.825 280.164 130.593 281.384 130.593C282.604 130.593 283.708 130.813 284.673 131.265C285.637 131.706 286.462 132.31 287.16 133.052C287.845 133.795 288.368 134.654 288.717 135.617C289.065 136.58 289.251 137.589 289.251 138.622C289.251 139.666 289.077 140.664 288.717 141.627C288.368 142.59 287.845 143.448 287.16 144.191C286.474 144.934 285.649 145.525 284.673 145.978C283.708 146.419 282.604 146.651 281.384 146.651C280.164 146.651 279.06 146.43 278.095 145.978C277.131 145.537 276.306 144.934 275.608 144.191C274.923 143.448 274.4 142.59 274.051 141.627C273.691 140.664 273.516 139.654 273.516 138.622C273.516 137.589 273.691 136.58 274.051 135.617ZM307.206 151.988H300.513V125.255H307.206V129.49H307.322C308.066 127.935 309.135 126.729 310.507 125.87C311.878 125.023 313.458 124.594 315.248 124.594C315.655 124.594 316.05 124.64 316.445 124.71C316.828 124.779 317.235 124.872 317.642 124.988V131.451C317.084 131.3 316.526 131.184 315.992 131.091C315.446 130.999 314.923 130.952 314.4 130.952C312.842 130.952 311.576 131.242 310.634 131.811C309.693 132.379 308.961 133.041 308.461 133.783C307.962 134.526 307.625 135.268 307.462 136.011C307.288 136.754 307.206 137.311 307.206 137.682V151.988ZM363.323 125.51C365.078 126.125 366.484 127.17 367.565 128.655L363.056 132.669C361.754 130.848 360.011 129.943 357.815 129.943C356.92 129.943 356.048 130.175 355.189 130.616C354.34 131.057 353.91 131.788 353.91 132.785C353.91 133.609 354.259 134.201 354.968 134.572C355.665 134.944 356.56 135.268 357.641 135.524C358.721 135.791 359.883 136.057 361.127 136.336C362.37 136.614 363.532 137.032 364.613 137.612C365.682 138.192 366.577 138.981 367.286 139.979C367.995 140.977 368.343 142.358 368.343 144.098C368.343 145.699 367.995 147.045 367.309 148.136C366.624 149.227 365.729 150.108 364.636 150.781C363.544 151.454 362.301 151.93 360.929 152.232C359.558 152.522 358.175 152.673 356.804 152.673C354.724 152.673 352.806 152.371 351.063 151.779C349.32 151.187 347.751 150.108 346.38 148.554L350.842 144.377C351.702 145.34 352.62 146.129 353.608 146.744C354.596 147.359 355.793 147.66 357.211 147.66C357.699 147.66 358.198 147.614 358.721 147.498C359.244 147.382 359.732 147.196 360.174 146.941C360.627 146.686 360.987 146.361 361.266 145.966C361.545 145.572 361.685 145.119 361.685 144.597C361.685 143.669 361.336 142.973 360.627 142.532C359.93 142.079 359.035 141.72 357.954 141.441C356.874 141.163 355.711 140.907 354.468 140.664C353.225 140.42 352.062 140.026 350.982 139.492C349.913 138.958 349.018 138.204 348.309 137.241C347.6 136.266 347.251 134.932 347.251 133.226C347.251 131.741 347.554 130.453 348.169 129.351C348.785 128.249 349.599 127.355 350.598 126.648C351.609 125.951 352.76 125.429 354.061 125.093C355.363 124.756 356.688 124.594 358.024 124.594C359.814 124.594 361.58 124.895 363.323 125.51Z" fill="#C6C8D1"/>
<path fill-rule="evenodd" clip-rule="evenodd" d="M183.93 151.988H180.583V147.486H180.467C179.944 148.38 179.293 149.145 178.515 149.795C177.736 150.445 176.888 150.979 175.981 151.408C175.075 151.837 174.11 152.151 173.111 152.359C172.112 152.557 171.124 152.661 170.159 152.661C168.195 152.661 166.371 152.336 164.697 151.663C163.024 151.002 161.583 150.062 160.398 148.855C159.212 147.649 158.271 146.21 157.609 144.562C156.946 142.915 156.609 141.105 156.609 139.132C156.609 137.16 156.935 135.361 157.609 133.702C158.283 132.043 159.212 130.616 160.398 129.409C161.595 128.202 163.024 127.274 164.697 126.601C166.371 125.94 168.184 125.603 170.159 125.603C171.124 125.603 172.112 125.696 173.111 125.905C174.11 126.114 175.075 126.427 175.981 126.856C176.888 127.286 177.736 127.819 178.515 128.469C179.293 129.119 179.944 129.885 180.467 130.778H180.583V109.893H183.93V151.988ZM105.675 143.53C104.966 144.609 104.153 145.525 103.223 146.291C102.293 147.057 101.317 147.683 100.294 148.182C99.2717 148.681 98.2258 149.052 97.1451 149.296C96.0643 149.54 95.03 149.656 94.019 149.656C91.4508 149.656 89.1382 149.215 87.0697 148.321C85.0011 147.428 83.2464 146.21 81.7938 144.643C80.3411 143.077 79.2255 141.244 78.4469 139.132C77.6683 137.02 77.2732 134.735 77.2732 132.286C77.2732 129.838 77.6683 127.552 78.4469 125.441C79.2255 123.329 80.3411 121.484 81.7938 119.929C83.2464 118.375 85.0011 117.145 87.0697 116.251C89.1382 115.358 91.4508 114.917 94.019 114.917C96.0294 114.917 97.9934 115.346 99.8992 116.193C101.817 117.052 103.386 118.398 104.617 120.254L107.627 117.748C105.884 115.52 103.839 113.931 101.515 112.991C99.1904 112.039 96.6918 111.575 94.0074 111.575C90.9976 111.575 88.2318 112.098 85.7216 113.13C83.2115 114.174 81.0616 115.613 79.2836 117.446C77.494 119.28 76.0995 121.461 75.1001 123.99C74.1007 126.52 73.5894 129.281 73.5894 132.286C73.5894 135.292 74.0891 138.065 75.1001 140.617C76.0995 143.158 77.494 145.351 79.2836 147.184C81.0733 149.018 83.2115 150.456 85.7216 151.477C88.2318 152.499 90.9976 153.009 94.0074 153.009C96.9126 153.009 99.6087 152.452 102.096 151.338C104.582 150.224 106.779 148.391 108.673 145.827L105.675 143.53ZM112.821 151.988H116.157V137.949C116.157 136.684 116.319 135.512 116.656 134.41C116.993 133.319 117.505 132.356 118.19 131.544C118.876 130.732 119.748 130.082 120.817 129.618C121.874 129.154 123.129 128.922 124.582 128.922C124.989 128.922 125.419 128.991 125.86 129.142L126.255 125.859L126.046 125.815L126.046 125.815L126.046 125.815C125.783 125.76 125.527 125.707 125.279 125.661C124.965 125.603 124.64 125.58 124.303 125.58C122.374 125.58 120.735 126.067 119.399 127.03C118.062 127.993 116.958 129.235 116.11 130.767C116.04 130.511 115.994 129.931 115.971 129.038L115.965 128.829L115.965 128.828L115.965 128.828V128.828C115.944 127.999 115.921 127.141 115.889 126.253H112.543C112.543 126.59 112.566 127.065 112.601 127.669C112.635 128.284 112.67 128.945 112.682 129.641C112.705 130.349 112.728 131.045 112.763 131.73C112.798 132.414 112.821 133.006 112.821 133.482V151.988ZM145.337 148.426C146.941 147.614 148.161 146.5 149.021 145.084L151.485 147.15C150.183 149.122 148.579 150.526 146.662 151.385C144.744 152.232 142.629 152.661 140.329 152.661C138.353 152.661 136.575 152.336 134.971 151.663C133.379 151.002 131.996 150.062 130.846 148.855C129.695 147.649 128.812 146.21 128.196 144.562C127.58 142.903 127.278 141.081 127.278 139.074C127.278 137.136 127.604 135.361 128.231 133.725C128.859 132.089 129.753 130.674 130.904 129.467C132.054 128.26 133.414 127.309 134.971 126.624C136.528 125.94 138.26 125.592 140.154 125.592C142.13 125.592 143.861 125.94 145.372 126.624C146.871 127.309 148.138 128.214 149.16 129.351C150.183 130.488 150.95 131.776 151.473 133.226C151.996 134.677 152.252 136.139 152.252 137.624V139.968H130.613C130.613 140.675 130.753 141.58 131.032 142.671C131.311 143.762 131.822 144.829 132.566 145.873C133.309 146.906 134.309 147.799 135.552 148.542C136.796 149.285 138.399 149.656 140.375 149.656C142.083 149.656 143.733 149.238 145.337 148.426ZM130.614 136.951C130.614 136.614 130.765 135.999 131.055 135.083C131.358 134.178 131.857 133.238 132.566 132.275C133.275 131.312 134.228 130.453 135.437 129.711C136.645 128.968 138.156 128.597 139.98 128.597C141.212 128.597 142.374 128.817 143.467 129.27C144.559 129.711 145.512 130.314 146.314 131.08C147.116 131.846 147.743 132.727 148.208 133.725C148.673 134.723 148.905 135.802 148.905 136.951H130.614ZM180.084 143.216C179.526 144.493 178.759 145.607 177.795 146.558C176.83 147.509 175.691 148.252 174.39 148.809C173.088 149.366 171.67 149.644 170.148 149.644C168.591 149.644 167.173 149.366 165.906 148.809C164.64 148.252 163.559 147.498 162.676 146.558C161.781 145.607 161.107 144.493 160.642 143.216C160.177 141.94 159.945 140.571 159.945 139.121C159.945 137.67 160.177 136.313 160.642 135.025C161.107 133.749 161.781 132.635 162.676 131.683C163.571 130.732 164.651 129.989 165.906 129.432C167.173 128.875 168.579 128.597 170.148 128.597C171.67 128.597 173.088 128.875 174.39 129.432C175.691 129.989 176.83 130.743 177.795 131.683C178.759 132.635 179.526 133.749 180.084 135.025C180.642 136.301 180.921 137.67 180.921 139.121C180.921 140.571 180.642 141.94 180.084 143.216ZM194.424 151.988H191.077V126.265H194.424V151.988ZM190.961 117.853C191.449 118.34 192.042 118.572 192.751 118.572C193.459 118.572 194.052 118.328 194.54 117.853C195.028 117.365 195.261 116.774 195.261 116.066C195.261 115.358 195.017 114.766 194.54 114.279C194.052 113.792 193.459 113.56 192.751 113.56C192.042 113.56 191.449 113.803 190.961 114.279C190.473 114.766 190.24 115.358 190.24 116.066C190.24 116.774 190.473 117.365 190.961 117.853ZM207.463 126.265H214.808V129.27H207.44V146.036C207.44 147.185 207.765 148.078 208.393 148.705C209.032 149.343 209.904 149.656 211.019 149.656C211.658 149.656 212.298 149.563 212.948 149.401C213.599 149.238 214.227 149.018 214.819 148.763L215.098 151.768C214.471 151.988 213.739 152.197 212.925 152.383C212.112 152.568 211.38 152.661 210.752 152.661C209.567 152.661 208.544 152.475 207.684 152.127C206.824 151.779 206.138 151.304 205.616 150.712C205.093 150.12 204.721 149.424 204.477 148.623C204.233 147.823 204.116 146.964 204.116 146.036V129.27H198.538V126.265H204.116V118.862H207.463V126.265Z" fill="#11202C"/>
<path d="M54.8215 151.988H73.2291V150.921H67.3257V119.141H54.8215V120.208H60.7366V150.921H54.8215V151.988Z" fill="#496081"/>
</g>
<path d="M67.4683 192.411V178.043H73.7785C75.4465 178.043 76.6924 178.525 77.5365 179.389C78.3403 180.213 78.8226 181.339 78.8226 182.665C78.8226 185.378 77.0341 187.207 74.0197 187.207H70.4827V192.411H67.4683ZM70.4827 180.575V184.835H73.4972C75.0245 184.835 75.8283 183.991 75.8283 182.685C75.8283 181.339 74.9843 180.575 73.5373 180.575H70.4827ZM211.359 192.411V178.043H217.669C219.337 178.043 220.583 178.525 221.427 179.389C222.231 180.213 222.713 181.339 222.713 182.665C222.713 185.378 220.925 187.207 217.91 187.207H214.374V192.411H211.359ZM214.374 180.575V184.835H217.388C218.915 184.835 219.719 183.991 219.719 182.685C219.719 181.339 218.875 180.575 217.428 180.575H214.374Z" fill="#EA731F"/>
<path d="M85.1418 192.411V178.043H91.7333C94.5066 178.043 96.3554 179.65 96.3554 182.042C96.3554 183.73 95.5716 185.016 93.7228 185.519V185.579C95.0491 185.961 95.7324 186.724 95.9133 188.473C96.1142 190.502 96.0339 192.05 96.5363 192.271V192.411H93.7429C93.3812 192.251 93.341 190.643 93.2204 189.096C93.0998 187.528 92.2156 186.644 90.4069 186.644H88.0557V192.411H85.1418ZM88.0557 180.394V184.393H91.1505C92.7381 184.393 93.5218 183.569 93.5218 182.424C93.5218 181.258 92.7783 180.394 91.2309 180.394H88.0557ZM109.42 192.733C105.179 192.733 102.487 189.558 102.487 185.257C102.487 180.957 105.179 177.761 109.42 177.761C113.66 177.761 116.333 180.957 116.333 185.257C116.333 189.558 113.66 192.733 109.42 192.733ZM109.44 190.342C112.072 190.342 113.359 188.111 113.359 185.257C113.359 182.384 112.072 180.153 109.44 180.153C106.807 180.153 105.461 182.384 105.461 185.257C105.461 188.111 106.807 190.342 109.44 190.342ZM125.876 192.411L121.033 178.043H124.087L126.62 186.363C126.901 187.307 127.243 188.654 127.243 188.654H127.283C127.283 188.654 127.624 187.287 127.906 186.363L130.418 178.043H133.372L128.529 192.411H125.876ZM139.419 192.411V178.043H142.333V192.411H139.419ZM149.438 192.411V178.043H155.045C158.883 178.043 161.355 181.138 161.355 185.378C161.355 187.709 160.571 189.759 159.064 191.025C157.999 191.909 156.612 192.411 154.803 192.411H149.438ZM152.352 189.899H154.602C157.336 189.899 158.401 188.232 158.401 185.378C158.401 182.524 157.155 180.535 154.683 180.535H152.352V189.899ZM167.818 192.411V178.043H178.388V180.495H170.732V183.71H177.444V186.101H170.732V189.98H178.449V192.411H167.818ZM185.138 192.411V178.043H191.729C194.503 178.043 196.352 179.65 196.352 182.042C196.352 183.73 195.568 185.016 193.719 185.519V185.579C195.045 185.961 195.729 186.724 195.909 188.473C196.11 190.502 196.03 192.05 196.532 192.271V192.411H193.739C193.377 192.251 193.337 190.643 193.217 189.096C193.096 187.528 192.212 186.644 190.403 186.644H188.052V192.411H185.138ZM188.052 180.394V184.393H191.147C192.734 184.393 193.518 183.569 193.518 182.424C193.518 181.258 192.774 180.394 191.227 180.394H188.052ZM235.539 192.733C231.299 192.733 228.606 189.558 228.606 185.257C228.606 180.957 231.299 177.761 235.539 177.761C239.779 177.761 242.452 180.957 242.452 185.257C242.452 189.558 239.779 192.733 235.539 192.733ZM235.559 190.342C238.192 190.342 239.478 188.111 239.478 185.257C239.478 182.384 238.192 180.153 235.559 180.153C232.926 180.153 231.58 182.384 231.58 185.257C231.58 188.111 232.926 190.342 235.559 190.342ZM248.924 192.411V178.043H255.515C258.288 178.043 260.137 179.65 260.137 182.042C260.137 183.73 259.353 185.016 257.505 185.519V185.579C258.831 185.961 259.514 186.724 259.695 188.473C259.896 190.502 259.816 192.05 260.318 192.271V192.411H257.525C257.163 192.251 257.123 190.643 257.002 189.096C256.882 187.528 255.997 186.644 254.189 186.644H251.838V192.411H248.924ZM251.838 180.394V184.393H254.932C256.52 184.393 257.304 183.569 257.304 182.424C257.304 181.258 256.56 180.394 255.013 180.394H251.838ZM265.952 180.495V178.043H277.507V180.495H273.186V192.411H270.272V180.495H265.952ZM281.008 192.411L286.012 178.043H289.026L294.09 192.411H291.056L290.091 189.357H284.907L283.962 192.411H281.008ZM286.876 182.986L285.59 187.126H289.388L288.102 182.986C287.861 182.223 287.519 180.776 287.519 180.776H287.479C287.479 180.776 287.117 182.223 286.876 182.986ZM300.178 192.411V178.043H303.092V189.98H309.844V192.411H300.178Z" fill="#757575"/>
<rect x="320.166" y="174.247" width="37.8567" height="22.3699" rx="11.1849" fill="#EA731F" stroke="#EA731F" stroke-width="1.72076"/>
<path d="M331.338 191.664C328.14 191.664 326.496 189.894 326.46 187.183H328.809C328.899 188.665 329.55 189.695 331.248 189.695C332.621 189.695 333.434 188.954 333.434 187.689C333.434 186.497 332.675 185.774 331.158 185.774H330.399V183.913H331.103C332.278 183.913 333.109 183.317 333.109 182.269C333.109 181.293 332.44 180.643 331.356 180.643C329.947 180.643 329.261 181.564 329.206 182.847H326.857C326.948 180.408 328.484 178.764 331.356 178.764C333.94 178.764 335.602 180.047 335.602 182.106C335.602 183.498 334.717 184.311 333.488 184.708V184.744C335.06 185.124 336 186.136 336 187.852C336 190.418 333.886 191.664 331.338 191.664ZM337.091 191.393V188.773H339.729V191.393H337.091ZM345.732 191.682C342.57 191.682 340.564 189.153 340.564 185.214C340.564 181.257 342.606 178.746 345.75 178.746C348.948 178.746 350.899 181.239 350.899 185.214C350.899 189.153 348.948 191.682 345.732 191.682ZM345.75 189.587C347.593 189.587 348.334 187.87 348.334 185.214C348.334 182.594 347.575 180.842 345.75 180.842C343.907 180.842 343.13 182.576 343.13 185.214C343.13 187.834 343.907 189.587 345.75 189.587Z" fill="white"/>
<path d="M56.0381 164.368H369.537" stroke="#D6D6D6" stroke-width="2.00961" stroke-linecap="square"/>
</g>
<defs>
<clipPath id="clip0_119_1660">
<rect width="321.538" height="98.4709" fill="white" transform="translate(51.4255 99.056)"/>
</clipPath>
</defs>
</svg>
