<svg width="21" height="12" viewBox="0 0 21 12" fill="none" xmlns="http://www.w3.org/2000/svg">
  <path fill-rule="evenodd" clip-rule="evenodd" d="M3.92046 9.13622C6.21499 10.7748 8.59836 11.6409 10.8129 11.6409C13.0275 11.6409 15.4108 10.7747 17.7053 9.13622C19.4206 7.91134 20.4793 6.69774 20.5235 6.64668C20.7048 6.43739 20.7048 6.12678 20.5235 5.91752C20.4793 5.86643 19.4206 4.65287 17.7053 3.42799C15.4108 1.78951 13.0274 0.923401 10.8129 0.923401C8.59841 0.923401 6.21504 1.78955 3.92046 3.42799C2.20513 4.65287 1.14647 5.86647 1.10223 5.91752C0.921001 6.12682 0.921001 6.43743 1.10223 6.64668C1.14647 6.69783 2.20517 7.91134 3.92046 9.13622ZM4.58964 8.24556C3.52278 7.48637 2.71477 6.71872 2.28664 6.28217C2.71486 5.84548 3.52292 5.07783 4.58964 4.31878C6.05223 3.27799 8.31915 2.03725 10.8128 2.03725C13.3065 2.03725 15.5735 3.27799 17.036 4.31878C18.1029 5.07797 18.9109 5.84562 19.339 6.28217C18.9108 6.71877 18.1027 7.48651 17.036 8.24556C15.5735 9.28631 13.3065 10.5271 10.8128 10.5271C8.31915 10.5271 6.05223 9.28631 4.58964 8.24556Z" fill="#486082"/>
  <circle cx="10.9184" cy="6.28124" r="3.31731" fill="#486082"/>
  <path d="M13.6904 6.43542C13.0763 6.43542 12.5767 5.93578 12.5767 5.32165C12.5767 4.70752 13.0763 4.20789 13.6904 4.20789C14.3046 4.20789 14.8042 4.70752 14.8042 5.32165C14.8042 5.93578 14.3046 6.43542 13.6904 6.43542Z" fill="white"/>
  <!-- Added the strikethrough line -->
  <line x1="1" y1="1" x2="20" y2="11" stroke="#486082" stroke-width="1.5"/>
</svg>