<svg width="15" height="18" viewBox="0 0 15 18" fill="none" xmlns="http://www.w3.org/2000/svg">
<path fill-rule="evenodd" clip-rule="evenodd" d="M7.61571 9.32124C7.13223 9.32067 6.69574 9.5163 6.37963 9.83184C6.06274 10.1486 5.86653 10.5866 5.86653 11.0701C5.86596 11.3585 5.93598 11.6312 6.05902 11.8704C6.15187 12.0512 6.27606 12.214 6.42449 12.3519L6.42396 14.1221H6.42197H6.42396C6.42313 14.3897 6.53136 14.6322 6.70674 14.8069C6.88222 14.9828 7.12506 15.0918 7.3926 15.0918V15.0936V15.0918L7.83468 15.0922C8.08825 15.0922 8.31895 14.9953 8.49119 14.8363L8.52139 14.8092C8.69593 14.6345 8.80437 14.3917 8.80494 14.1229L8.80536 12.3525C8.95316 12.2154 9.0772 12.0526 9.17077 11.8716C9.2945 11.6329 9.36389 11.3605 9.36468 11.0706C9.36468 10.5877 9.16905 10.1505 8.85351 9.8344C8.5374 9.51745 8.09935 9.32124 7.61571 9.32124ZM10.6992 7.57492V6.57619C10.6992 5.72531 10.3539 4.95476 9.79673 4.39723C9.23935 3.84006 8.46864 3.49506 7.61813 3.49506C6.76725 3.49506 5.99728 3.84006 5.43911 4.39723C4.88194 4.95476 4.53694 5.72531 4.53694 6.57619V7.57492H10.6992ZM13.0247 17.0396H2.20621C1.78731 17.0396 1.40667 16.8688 1.13107 16.593C0.855517 16.3175 0.685059 15.9373 0.685059 15.5178V9.09669C0.685059 8.67722 0.855517 8.29694 1.13107 8.02139C1.34073 7.81173 1.61125 7.66231 1.91407 7.60323V6.57602C1.9147 5.80396 2.06893 5.06775 2.34705 4.39784C2.63688 3.70041 3.06201 3.07227 3.58971 2.54509C4.11554 2.01932 4.74409 1.59535 5.44168 1.30614C6.11237 1.02823 6.84853 0.874365 7.62044 0.874941C8.39255 0.874941 9.12876 1.02959 9.79872 1.30807C10.4955 1.59791 11.1241 2.02283 11.6514 2.55001C12.1772 3.07657 12.601 3.7047 12.8902 4.40214C13.1683 5.07261 13.3218 5.80883 13.3218 6.58073L13.3214 7.60364C13.6221 7.66409 13.891 7.81231 14.0999 8.02139C14.3757 8.29694 14.5459 8.67722 14.5459 9.09669V15.5178C14.5459 15.9373 14.3757 16.3175 14.0999 16.593C13.8244 16.8688 13.4438 17.0396 13.0247 17.0396Z" fill="white"/>
</svg>
