<svg width="87" height="87" viewBox="0 0 87 87" fill="none" xmlns="http://www.w3.org/2000/svg">
<g filter="url(#filter0_d_1_2050)">
<circle cx="43.5" cy="43.5" r="36" fill="url(#paint0_linear_1_2050)"/>
<circle cx="43.5" cy="43.5" r="36" stroke="#C5C5C5" stroke-width="1.5"/>
</g>
<g filter="url(#filter1_d_1_2050)">
<path fill-rule="evenodd" clip-rule="evenodd" d="M43.2188 42.5625C48.3446 42.5625 52.5 38.4071 52.5 33.2812C52.5 28.1554 48.3446 24 43.2188 24C38.0929 24 33.9375 28.1554 33.9375 33.2812C33.9375 38.4071 38.0929 42.5625 43.2188 42.5625ZM60.9375 56.3834C57.3994 61.2312 50.8044 64.5 43.2188 64.5C35.6331 64.5 29.0381 61.2312 25.5 56.3834C27.5662 49.4025 34.699 44.25 43.2188 44.25C51.7385 44.25 58.8713 49.4025 60.9375 56.3834Z" fill="#486082"/>
</g>
<defs>
<filter id="filter0_d_1_2050" x="3.75" y="6.75" width="79.5" height="79.5" filterUnits="userSpaceOnUse" color-interpolation-filters="sRGB">
<feFlood flood-opacity="0" result="BackgroundImageFix"/>
<feColorMatrix in="SourceAlpha" type="matrix" values="0 0 0 0 0 0 0 0 0 0 0 0 0 0 0 0 0 0 127 0" result="hardAlpha"/>
<feOffset dy="3"/>
<feGaussianBlur stdDeviation="1.5"/>
<feColorMatrix type="matrix" values="0 0 0 0 0 0 0 0 0 0 0 0 0 0 0 0 0 0 0.136282 0"/>
<feBlend mode="normal" in2="BackgroundImageFix" result="effect1_dropShadow_1_2050"/>
<feBlend mode="normal" in="SourceGraphic" in2="effect1_dropShadow_1_2050" result="shape"/>
</filter>
<filter id="filter1_d_1_2050" x="25.5" y="24" width="35.4375" height="42" filterUnits="userSpaceOnUse" color-interpolation-filters="sRGB">
<feFlood flood-opacity="0" result="BackgroundImageFix"/>
<feColorMatrix in="SourceAlpha" type="matrix" values="0 0 0 0 0 0 0 0 0 0 0 0 0 0 0 0 0 0 127 0" result="hardAlpha"/>
<feOffset dy="1.5"/>
<feColorMatrix type="matrix" values="0 0 0 0 1 0 0 0 0 1 0 0 0 0 1 0 0 0 0.527398 0"/>
<feBlend mode="normal" in2="BackgroundImageFix" result="effect1_dropShadow_1_2050"/>
<feBlend mode="normal" in="SourceGraphic" in2="effect1_dropShadow_1_2050" result="shape"/>
</filter>
<linearGradient id="paint0_linear_1_2050" x1="13.2125" y1="18.1409" x2="13.2125" y2="78.7159" gradientUnits="userSpaceOnUse">
<stop stop-color="white"/>
<stop offset="1" stop-color="#CECECE"/>
</linearGradient>
</defs>
</svg>
